SplineFontDB: 3.0
FontName: Chivo-LightItalic
FullName: Chivo Light Italic
FamilyName: Chivo
Weight: Light
Copyright: Copyright (c) 2011-2014 by Omnibus-Type (www.omnibus-type.com omnibus.type@gmail.com), with Reserved Font Name 'Chivo'
UComments: "Disclaimer+AAoA +AAoA-Omnibus-Type give no warranty in relation to this font, and you use this+AAoA-at your own risk.+AAoA +AAoA-Omnibus-Type shall not be liable for any direct, indirect, consequential, or incidental damages (including damages from loss of business profits, business interruption, loss of business information, and the like) arising out of the use of or inability to use the fonts.+AAoA +AAoA +AAoA-If you have further questions, please contact us:+AAoA-omnibus.type@gmail.com" 

StartChar: .notdef
Encoding: 65536 -1 0
Width: 500
Flags: MW
HStem: 0 50<80 420 80 500> 650 50<80 80 80 420>
VStem: 0 50<95 605 95 700> 450 50<95 605 605 605>
LayerCount: 2
Fore
SplineSet
500 700 m 1
 500 0 l 1
 0 0 l 1
 0 700 l 1
 500 700 l 1
80 650 m 1
 250 395 l 1
 420 650 l 1
 80 650 l 1
220 350 m 1
 50 605 l 1
 50 95 l 1
 220 350 l 1
450 605 m 1
 280 350 l 1
 450 95 l 1
 450 605 l 1
250 305 m 1
 80 50 l 1
 420 50 l 1
 250 305 l 1
EndSplineSet
EndChar

StartChar: A
Encoding: 65 65 1
Width: 650
GlyphClass: 2
Flags: MW
HStem: 0 219<-36 462 -36 462 140 522 140 581> 170 49<113 462 140 462 140 475> 612 74<354 358 354 354> 666 20G<344 394 394 394>
VStem: -36 617<0 0>
LayerCount: 2
Fore
SplineSet
113 170 m 1x58
 19 0 l 1
 -36 0 l 1
 344 686 l 1
 394 686 l 1
 581 0 l 1
 522 0 l 1x98
 475 170 l 1
 113 170 l 1x58
462 219 m 1x68
 358 612 l 1
 354 612 l 1
 140 219 l 1
 462 219 l 1x68
EndSplineSet
Substitution2: "Single Substitution lookup 5 subtable" ordfeminine
Substitution2: "'aalt' Access All Alternates lookup 0 subtable" ordfeminine
Position2: "'cpsp' Capital Spacing lookup 0 subtable" dx=5 dy=0 dh=10 dv=0
EndChar

StartChar: Aacute
Encoding: 193 193 2
Width: 650
GlyphClass: 2
Flags: MW
HStem: 0 219<-36 462 -36 462 140 522 140 581> 170 49<113 462 140 462 140 475> 612 74<354 358 354 354> 666 20G<344 394 394 394> 750 145<346 528 346 528>
VStem: -36 617<0 0>
LayerCount: 2
Fore
SplineSet
463 895 m 1x5c
 528 895 l 1
 527 892 l 1
 396 750 l 1
 346 750 l 1
 463 895 l 1x5c
113 170 m 1
 19 0 l 1
 -36 0 l 1
 344 686 l 1
 394 686 l 1
 581 0 l 1
 522 0 l 1x9c
 475 170 l 1
 113 170 l 1
462 219 m 1x6c
 358 612 l 1
 354 612 l 1
 140 219 l 1
 462 219 l 1x6c
EndSplineSet
Position2: "'cpsp' Capital Spacing lookup 0 subtable" dx=5 dy=0 dh=10 dv=0
EndChar

StartChar: Abreve
Encoding: 258 258 3
Width: 650
GlyphClass: 2
Flags: MW
HStem: 0 219<-36 462 -36 462 140 522 140 581> 170 49<113 462 140 462 140 475> 612 74<354 358 354 354> 666 20G<344 394 394 394> 788 49<349.5 414.5 349.5 428.5>
VStem: -36 621
LayerCount: 2
Fore
SplineSet
375 788 m 0x5c
 274 788 199 849 199 904 c 0
 199 906 199 909 200 912 c 2
 256 912 l 1
 265 862 317 837 382 837 c 0
 447 837 505 862 529 912 c 1
 585 912 l 1
 577 855 482 788 375 788 c 0x5c
113 170 m 1
 19 0 l 1
 -36 0 l 1
 344 686 l 1
 394 686 l 1
 581 0 l 1
 522 0 l 1x9c
 475 170 l 1
 113 170 l 1
462 219 m 1x6c
 358 612 l 1
 354 612 l 1
 140 219 l 1
 462 219 l 1x6c
EndSplineSet
EndChar

StartChar: Acircumflex
Encoding: 194 194 4
Width: 650
GlyphClass: 2
Flags: MW
HStem: 0 219<-36 462 -36 462 140 522 140 581> 170 49<113 462 140 462 140 475> 612 74<354 358 354 354> 666 20G<344 394 394 394> 750 145<219 432 374 545 374 485>
VStem: -36 617<0 0>
LayerCount: 2
Fore
SplineSet
432 895 m 1x5c
 545 750 l 1
 485 750 l 1
 396 847 l 1
 279 750 l 1
 219 750 l 1
 374 895 l 1
 432 895 l 1x5c
113 170 m 1
 19 0 l 1
 -36 0 l 1
 344 686 l 1
 394 686 l 1
 581 0 l 1
 522 0 l 1x9c
 475 170 l 1
 113 170 l 1
462 219 m 1x6c
 358 612 l 1
 354 612 l 1
 140 219 l 1
 462 219 l 1x6c
EndSplineSet
Position2: "'cpsp' Capital Spacing lookup 0 subtable" dx=5 dy=0 dh=10 dv=0
EndChar

StartChar: Adieresis
Encoding: 196 196 5
Width: 650
GlyphClass: 2
Flags: MW
HStem: 0 219<-36 462 -36 462 140 522 140 581> 170 49<113 462 140 462 140 475> 612 74<354 358 354 354> 666 20G<344 394 394 394> 750 69<261 317 252 326 437 493>
VStem: 256.5 65 432.5 65
LayerCount: 2
Fore
SplineSet
326 819 m 1x5e
 317 750 l 1
 252 750 l 1
 261 819 l 1
 326 819 l 1x5e
502 819 m 1
 493 750 l 1
 428 750 l 1
 437 819 l 1
 502 819 l 1
113 170 m 1
 19 0 l 1
 -36 0 l 1
 344 686 l 1
 394 686 l 1
 581 0 l 1
 522 0 l 1x9e
 475 170 l 1
 113 170 l 1
462 219 m 1x6e
 358 612 l 1
 354 612 l 1
 140 219 l 1
 462 219 l 1x6e
EndSplineSet
Position2: "'cpsp' Capital Spacing lookup 0 subtable" dx=5 dy=0 dh=10 dv=0
EndChar

StartChar: Agrave
Encoding: 192 192 6
Width: 650
GlyphClass: 2
Flags: MW
HStem: 0 219<-36 462 -36 462 140 522 140 581> 170 49<113 462 140 462 140 475> 612 74<354 358 354 354> 666 20G<344 394 394 394> 750 145<250 390 250 340>
VStem: -36 617<0 0>
LayerCount: 2
Fore
SplineSet
249 892 m 1x5c
 250 895 l 1
 315 895 l 1
 390 750 l 1
 340 750 l 1
 249 892 l 1x5c
113 170 m 1
 19 0 l 1
 -36 0 l 1
 344 686 l 1
 394 686 l 1
 581 0 l 1
 522 0 l 1x9c
 475 170 l 1
 113 170 l 1
462 219 m 1x6c
 358 612 l 1
 354 612 l 1
 140 219 l 1
 462 219 l 1x6c
EndSplineSet
Position2: "'cpsp' Capital Spacing lookup 0 subtable" dx=5 dy=0 dh=10 dv=0
EndChar

StartChar: Amacron
Encoding: 256 256 7
Width: 650
GlyphClass: 2
Flags: MW
HStem: 0 219<-36 462 -36 462 140 522 140 581> 170 49<113 462 140 462 140 475> 612 74<354 358 354 354> 666 20G<344 394 394 394> 866 45<242 552 234 560>
VStem: -36 617<0 0>
LayerCount: 2
Fore
SplineSet
242 911 m 1x5c
 560 911 l 1
 552 866 l 1
 234 866 l 1
 242 911 l 1x5c
113 170 m 1
 19 0 l 1
 -36 0 l 1
 344 686 l 1
 394 686 l 1
 581 0 l 1
 522 0 l 1x9c
 475 170 l 1
 113 170 l 1
462 219 m 1x6c
 358 612 l 1
 354 612 l 1
 140 219 l 1
 462 219 l 1x6c
EndSplineSet
EndChar

StartChar: Aogonek
Encoding: 260 260 8
Width: 650
GlyphClass: 2
Flags: MW
HStem: -143 43<547.5 561.5> 0 21G<-36 19 -36 -36 522 525 522 522 575 575 575 581> 170 49<140 462 140 475 113 462> 612 74<354 358 354 354> 666 20G<344 394 394 394>
VStem: 460 58<-80 -63.5>
LayerCount: 2
Fore
SplineSet
626 -86 m 1xec
 635 -119 l 1
 607 -135 576 -143 547 -143 c 0
 504 -143 460 -129 460 -83 c 0
 460 -44 493 -19 525 0 c 1
 522 0 l 1
 475 170 l 1
 113 170 l 1
 19 0 l 1
 -36 0 l 1
 344 686 l 1
 394 686 l 1
 581 0 l 1
 575 0 l 1
 571 -2 l 2
 547 -17 518 -36 518 -67 c 0
 518 -93 538 -100 557 -100 c 0
 581 -100 604 -93 626 -86 c 1xec
462 219 m 1
 358 612 l 1
 354 612 l 1xf4
 140 219 l 1
 462 219 l 1
EndSplineSet
EndChar

StartChar: Aring
Encoding: 197 197 9
Width: 650
GlyphClass: 2
Flags: MW
HStem: 0 219<-36 462 -36 462 140 522 140 581> 170 49<113 462 140 462 140 475> 612 74<354 358 354 354> 666 20G<344 394 394 394> 720 36<363 398.5 363 406> 885 36<378.5 413.5>
VStem: 286 36<795 831 795 840> 454 36<809.5 846>
LayerCount: 2
Fore
SplineSet
490 835 m 0x5f
 490 772 438 720 374 720 c 0
 323 720 286 757 286 807 c 0
 286 873 343 921 403 921 c 0
 453 921 490 884 490 835 c 0x5f
379 756 m 0
 418 756 454 789 454 830 c 0
 454 862 429 885 398 885 c 0
 359 885 322 851 322 811 c 0
 322 779 347 756 379 756 c 0
113 170 m 1
 19 0 l 1
 -36 0 l 1
 344 686 l 1
 394 686 l 1
 581 0 l 1
 522 0 l 1x9f
 475 170 l 1
 113 170 l 1
462 219 m 1x6f
 358 612 l 1
 354 612 l 1
 140 219 l 1
 462 219 l 1x6f
EndSplineSet
Position2: "'cpsp' Capital Spacing lookup 0 subtable" dx=5 dy=0 dh=10 dv=0
EndChar

StartChar: Atilde
Encoding: 195 195 10
Width: 650
GlyphClass: 2
Flags: MW
HStem: 0 219<-36 462 -36 462 140 522 140 581> 170 49<113 462 140 462 140 475> 612 74<354 358 354 354> 666 20G<344 394 394 394> 750 50<442 485.5 442 494.5> 782 50<275.5 319>
VStem: -36 617<0 0>
LayerCount: 2
Fore
SplineSet
530 832 m 1x5a
 567 832 l 1
 563 800 534 750 455 750 c 0x5a
 391 750 346 782 292 782 c 0
 259 782 241 773 231 750 c 1
 194 750 l 1
 198 782 228 832 306 832 c 0x56
 370 832 415 800 469 800 c 0
 502 800 520 809 530 832 c 1x5a
113 170 m 1
 19 0 l 1
 -36 0 l 1
 344 686 l 1
 394 686 l 1
 581 0 l 1
 522 0 l 1x9a
 475 170 l 1
 113 170 l 1
462 219 m 1x6a
 358 612 l 1
 354 612 l 1
 140 219 l 1
 462 219 l 1x6a
EndSplineSet
Position2: "'cpsp' Capital Spacing lookup 0 subtable" dx=5 dy=0 dh=10 dv=0
EndChar

StartChar: AE
Encoding: 198 198 11
Width: 981
GlyphClass: 2
Flags: MW
HStem: 0 48<524 864 568 864 568 873> 170 49<150 464 150 477 123 464> 326 48<492 812 492 492> 638 48<407 851 407 407>
VStem: -33 906<0 0>
LayerCount: 2
Fore
SplineSet
477 170 m 1
 123 170 l 1
 29 0 l 1
 -33 0 l 1
 348 686 l 1
 863 686 l 1
 851 638 l 1
 407 638 l 1
 479 374 l 1
 812 374 l 1
 812 326 l 1
 492 326 l 1
 568 48 l 1
 864 48 l 1
 873 0 l 1
 524 0 l 1
 477 170 l 1
464 219 m 1
 361 608 l 1
 358 607 l 1
 150 219 l 1
 464 219 l 1
EndSplineSet
Position2: "'cpsp' Capital Spacing lookup 0 subtable" dx=5 dy=0 dh=10 dv=0
EndChar

StartChar: B
Encoding: 66 66 12
Width: 652
GlyphClass: 2
Flags: MW
HStem: 0 48<112 331> 326 48<158 368 368 371 151 368> 638 48<195 405 195 195>
VStem: 494 55<162 240> 522 57<483.5 558.5>
LayerCount: 2
Fore
SplineSet
148 686 m 1xf0
 422 686 l 2
 513 686 579 622 579 540 c 0xe8
 579 423 490 372 435 359 c 1
 434 353 l 1
 466 348 549 322 549 216 c 0
 549 100 450 0 331 0 c 2
 51 0 l 1
 148 686 l 1xf0
158 374 m 1
 368 374 l 2
 449 374 522 441 522 526 c 0
 522 591 473 638 405 638 c 2
 195 638 l 1
 158 374 l 1
112 48 m 1
 332 48 l 2
 416 48 494 118 494 206 c 0xf0
 494 274 442 326 371 326 c 2
 151 326 l 1
 112 48 l 1
EndSplineSet
Position2: "'cpsp' Capital Spacing lookup 0 subtable" dx=5 dy=0 dh=10 dv=0
EndChar

StartChar: C
Encoding: 67 67 13
Width: 662
GlyphClass: 2
Flags: MW
HStem: -10 48<232 334.5 232 341> 648 48<308.5 413.5>
VStem: 57 53<151.5 238.5> 542 54<486.5 550.5>
AnchorPoint: "Bottom" 295 0 basechar 0
LayerCount: 2
Fore
SplineSet
513 251 m 1
 566 251 l 1
 537 48 407 -10 275 -10 c 0
 149 -10 57 37 57 223 c 0
 57 254 59 289 68 356 c 0
 104 631 227 696 374 696 c 0
 492 696 596 653 596 496 c 0
 596 477 594 456 591 434 c 1
 538 434 l 1
 541 453 542 470 542 486 c 0
 542 615 460 648 367 648 c 0
 250 648 155 595 123 368 c 0
 111 284 110 254 110 227 c 0
 110 76 182 38 282 38 c 0
 387 38 489 81 513 251 c 1
EndSplineSet
Position2: "'cpsp' Capital Spacing lookup 0 subtable" dx=5 dy=0 dh=10 dv=0
EndChar

StartChar: Cacute
Encoding: 262 262 14
Width: 662
GlyphClass: 2
Flags: MW
HStem: -10 48<232 334.5 232 341> 648 48<308.5 413.5> 750 145<360 542 360 542>
VStem: 57 53<151.5 238.5> 542 54<486.5 550.5>
AnchorPoint: "Bottom" 295 0 basechar 0
LayerCount: 2
Fore
SplineSet
477 895 m 1
 542 895 l 1
 541 892 l 1
 410 750 l 1
 360 750 l 1
 477 895 l 1
513 251 m 1
 566 251 l 1
 537 48 407 -10 275 -10 c 0
 149 -10 57 37 57 223 c 0
 57 254 59 289 68 356 c 0
 104 631 227 696 374 696 c 0
 492 696 596 653 596 496 c 0
 596 477 594 456 591 434 c 1
 538 434 l 1
 541 453 542 470 542 486 c 0
 542 615 460 648 367 648 c 0
 250 648 155 595 123 368 c 0
 111 284 110 254 110 227 c 0
 110 76 182 38 282 38 c 0
 387 38 489 81 513 251 c 1
EndSplineSet
EndChar

StartChar: Ccaron
Encoding: 268 268 15
Width: 662
GlyphClass: 2
Flags: MW
HStem: -10 48<232 334.5 232 341> 648 48<308.5 413.5> 750 145<248 419 248 361>
VStem: 57 53<151.5 238.5> 542 54<486.5 550.5>
AnchorPoint: "Bottom" 295 0 basechar 0
LayerCount: 2
Fore
SplineSet
308 895 m 1
 397 798 l 1
 514 895 l 1
 574 895 l 1
 419 750 l 1
 361 750 l 1
 248 895 l 1
 308 895 l 1
513 251 m 1
 566 251 l 1
 537 48 407 -10 275 -10 c 0
 149 -10 57 37 57 223 c 0
 57 254 59 289 68 356 c 0
 104 631 227 696 374 696 c 0
 492 696 596 653 596 496 c 0
 596 477 594 456 591 434 c 1
 538 434 l 1
 541 453 542 470 542 486 c 0
 542 615 460 648 367 648 c 0
 250 648 155 595 123 368 c 0
 111 284 110 254 110 227 c 0
 110 76 182 38 282 38 c 0
 387 38 489 81 513 251 c 1
EndSplineSet
EndChar

StartChar: Ccedilla
Encoding: 199 199 16
Width: 662
GlyphClass: 2
Flags: MW
HStem: -197 46<212.5 240 205.5 249> -184 21G<149 149> -51 34<237 254 232 266.5> -10 48<232 334.5 232 341> 648 48<308.5 413.5>
VStem: 57 53<151.5 238.5> 306 51<-115 -77.5> 542 54<486.5 550.5>
LayerCount: 2
Fore
SplineSet
513 251 m 1x9f
 566 251 l 1
 537 48 407 -10 275 -10 c 0
 149 -10 57 37 57 223 c 0
 57 254 59 289 68 356 c 0
 104 631 227 696 374 696 c 0
 492 696 596 653 596 496 c 0
 596 477 594 456 591 434 c 1
 538 434 l 1
 541 453 542 470 542 486 c 0
 542 615 460 648 367 648 c 0
 250 648 155 595 123 368 c 0
 111 284 110 254 110 227 c 0
 110 76 182 38 282 38 c 0
 387 38 489 81 513 251 c 1x9f
149 -184 m 1x5f
 155 -138 l 1
 167 -145 189 -151 222 -151 c 0
 258 -151 306 -139 306 -91 c 0
 306 -64 279 -51 254 -51 c 2
 232 -51 l 1
 237 -17 l 1
 296 -17 357 -22 357 -90 c 0
 357 -177 273 -197 225 -197 c 0xaf
 200 -197 171 -193 149 -184 c 1x5f
EndSplineSet
Position2: "'cpsp' Capital Spacing lookup 0 subtable" dx=5 dy=0 dh=10 dv=0
EndChar

StartChar: D
Encoding: 68 68 17
Width: 677
GlyphClass: 2
Flags: MW
HStem: 0 48<112 271> 638 48<195 361 195 195>
VStem: 541 53<435.5 516.5>
LayerCount: 2
Fore
SplineSet
148 686 m 1
 368 686 l 2
 495 686 594 632 594 450 c 0
 594 421 592 391 584 331 c 0
 551 74 425 0 271 0 c 2
 51 0 l 1
 148 686 l 1
112 48 m 1
 278 48 l 2
 395 48 498 104 529 322 c 0
 539 393 541 418 541 441 c 0
 541 592 468 638 361 638 c 2
 195 638 l 1
 112 48 l 1
EndSplineSet
Position2: "'cpsp' Capital Spacing lookup 0 subtable" dx=5 dy=0 dh=10 dv=0
EndChar

StartChar: Eth
Encoding: 208 208 18
Width: 682
GlyphClass: 2
Flags: MW
HStem: 0 48<125 284> 319 48<16 109 10 116 16 163 170 335> 638 48<208 374 208 208>
VStem: 554 53<435.5 516.5>
LayerCount: 2
Fore
SplineSet
109 319 m 1
 10 319 l 1
 16 367 l 1
 116 367 l 1
 161 686 l 1
 381 686 l 2
 508 686 607 632 607 450 c 0
 607 421 605 391 597 331 c 0
 564 74 438 0 284 0 c 2
 64 0 l 1
 109 319 l 1
125 48 m 1
 291 48 l 2
 408 48 511 104 542 322 c 0
 552 393 554 418 554 441 c 0
 554 592 481 638 374 638 c 2
 208 638 l 1
 170 367 l 1
 342 367 l 1
 335 319 l 1
 163 319 l 1
 125 48 l 1
EndSplineSet
Position2: "'cpsp' Capital Spacing lookup 0 subtable" dx=5 dy=0 dh=10 dv=0
EndChar

StartChar: Dcaron
Encoding: 270 270 19
Width: 677
GlyphClass: 2
Flags: MW
HStem: 0 48<112 271> 638 48<195 361 195 195> 750 145<206 377 206 319>
VStem: 541 53<435.5 516.5>
LayerCount: 2
Fore
SplineSet
266 895 m 1
 355 798 l 1
 472 895 l 1
 532 895 l 1
 377 750 l 1
 319 750 l 1
 206 895 l 1
 266 895 l 1
148 686 m 1
 368 686 l 2
 495 686 594 632 594 450 c 0
 594 421 592 391 584 331 c 0
 551 74 425 0 271 0 c 2
 51 0 l 1
 148 686 l 1
112 48 m 1
 278 48 l 2
 395 48 498 104 529 322 c 0
 539 393 541 418 541 441 c 0
 541 592 468 638 361 638 c 2
 195 638 l 1
 112 48 l 1
EndSplineSet
EndChar

StartChar: Dcroat
Encoding: 272 272 20
Width: 682
GlyphClass: 2
Flags: MW
HStem: 0 48<125 284> 319 48<16 109 10 116 16 163 170 335> 638 48<208 374 208 208>
VStem: 554 53<435.5 516.5>
LayerCount: 2
Fore
SplineSet
109 319 m 1
 10 319 l 1
 16 367 l 1
 116 367 l 1
 161 686 l 1
 381 686 l 2
 508 686 607 632 607 450 c 0
 607 421 605 391 597 331 c 0
 564 74 438 0 284 0 c 2
 64 0 l 1
 109 319 l 1
125 48 m 1
 291 48 l 2
 408 48 511 104 542 322 c 0
 552 393 554 418 554 441 c 0
 554 592 481 638 374 638 c 2
 208 638 l 1
 170 367 l 1
 342 367 l 1
 335 319 l 1
 163 319 l 1
 125 48 l 1
EndSplineSet
EndChar

StartChar: E
Encoding: 69 69 21
Width: 592
GlyphClass: 2
Flags: MW
HStem: 0 48<112 481 112 481> 326 48<158 470 151 477> 638 48<195 559 195 195>
VStem: 51 521
AnchorPoint: "Bottom" 260 0 basechar 0
LayerCount: 2
Fore
SplineSet
148 686 m 1
 572 686 l 1
 559 638 l 1
 195 638 l 1
 158 374 l 1
 477 374 l 1
 470 326 l 1
 151 326 l 1
 112 48 l 1
 481 48 l 1
 481 0 l 1
 51 0 l 1
 148 686 l 1
EndSplineSet
Position2: "'cpsp' Capital Spacing lookup 0 subtable" dx=5 dy=0 dh=10 dv=0
EndChar

StartChar: Eacute
Encoding: 201 201 22
Width: 592
GlyphClass: 2
Flags: MW
HStem: 0 48<112 481 112 481> 326 48<158 470 151 477> 638 48<195 559 195 195> 750 145<334 516 334 516>
VStem: 51 521
LayerCount: 2
Fore
SplineSet
451 895 m 1
 516 895 l 1
 515 892 l 1
 384 750 l 1
 334 750 l 1
 451 895 l 1
148 686 m 1
 572 686 l 1
 559 638 l 1
 195 638 l 1
 158 374 l 1
 477 374 l 1
 470 326 l 1
 151 326 l 1
 112 48 l 1
 481 48 l 1
 481 0 l 1
 51 0 l 1
 148 686 l 1
EndSplineSet
Position2: "'cpsp' Capital Spacing lookup 0 subtable" dx=5 dy=0 dh=10 dv=0
EndChar

StartChar: Ecaron
Encoding: 282 282 23
Width: 592
GlyphClass: 2
Flags: MW
HStem: 0 48<112 481 112 481> 326 48<158 470 151 477> 638 48<195 559 195 195> 750 145<213 384 213 326>
VStem: 51 521
AnchorPoint: "Bottom" 260 0 basechar 0
LayerCount: 2
Fore
SplineSet
273 895 m 1
 362 798 l 1
 479 895 l 1
 539 895 l 1
 384 750 l 1
 326 750 l 1
 213 895 l 1
 273 895 l 1
148 686 m 1
 572 686 l 1
 559 638 l 1
 195 638 l 1
 158 374 l 1
 477 374 l 1
 470 326 l 1
 151 326 l 1
 112 48 l 1
 481 48 l 1
 481 0 l 1
 51 0 l 1
 148 686 l 1
EndSplineSet
EndChar

StartChar: Ecircumflex
Encoding: 202 202 24
Width: 592
GlyphClass: 2
Flags: MW
HStem: 0 48<112 481 112 481> 326 48<158 470 151 477> 638 48<195 559 195 195> 750 145<199 412 354 525 354 465>
VStem: 51 521
LayerCount: 2
Fore
SplineSet
412 895 m 1
 525 750 l 1
 465 750 l 1
 376 847 l 1
 259 750 l 1
 199 750 l 1
 354 895 l 1
 412 895 l 1
148 686 m 1
 572 686 l 1
 559 638 l 1
 195 638 l 1
 158 374 l 1
 477 374 l 1
 470 326 l 1
 151 326 l 1
 112 48 l 1
 481 48 l 1
 481 0 l 1
 51 0 l 1
 148 686 l 1
EndSplineSet
Position2: "'cpsp' Capital Spacing lookup 0 subtable" dx=5 dy=0 dh=10 dv=0
EndChar

StartChar: Edieresis
Encoding: 203 203 25
Width: 592
GlyphClass: 2
Flags: MW
HStem: 0 48<112 481 112 481> 326 48<158 470 151 477> 638 48<195 559 195 195> 750 69<263 319 254 328 439 495>
VStem: 258.5 65 434.5 65
LayerCount: 2
Fore
SplineSet
328 819 m 1
 319 750 l 1
 254 750 l 1
 263 819 l 1
 328 819 l 1
504 819 m 1
 495 750 l 1
 430 750 l 1
 439 819 l 1
 504 819 l 1
148 686 m 1
 572 686 l 1
 559 638 l 1
 195 638 l 1
 158 374 l 1
 477 374 l 1
 470 326 l 1
 151 326 l 1
 112 48 l 1
 481 48 l 1
 481 0 l 1
 51 0 l 1
 148 686 l 1
EndSplineSet
Position2: "'cpsp' Capital Spacing lookup 0 subtable" dx=5 dy=0 dh=10 dv=0
EndChar

StartChar: Edotaccent
Encoding: 278 278 26
Width: 592
GlyphClass: 2
Flags: MW
HStem: 0 48<112 481 112 481> 326 48<158 470 151 477> 638 48<195 559 195 195> 779 132<366 392>
VStem: 312 134<834.5 855.5>
AnchorPoint: "Bottom" 260 0 basechar 0
LayerCount: 2
Fore
SplineSet
446 854 m 0
 446 815 414 779 370 779 c 0
 338 779 312 803 312 835 c 0
 312 876 344 911 388 911 c 0
 422 911 446 886 446 854 c 0
148 686 m 1
 572 686 l 1
 559 638 l 1
 195 638 l 1
 158 374 l 1
 477 374 l 1
 470 326 l 1
 151 326 l 1
 112 48 l 1
 481 48 l 1
 481 0 l 1
 51 0 l 1
 148 686 l 1
EndSplineSet
EndChar

StartChar: Egrave
Encoding: 200 200 27
Width: 592
GlyphClass: 2
Flags: MW
HStem: 0 48<112 481 112 481> 326 48<158 470 151 477> 638 48<195 559 195 195> 750 145<251 391 251 341>
VStem: 51 521
LayerCount: 2
Fore
SplineSet
250 892 m 1
 251 895 l 1
 316 895 l 1
 391 750 l 1
 341 750 l 1
 250 892 l 1
148 686 m 1
 572 686 l 1
 559 638 l 1
 195 638 l 1
 158 374 l 1
 477 374 l 1
 470 326 l 1
 151 326 l 1
 112 48 l 1
 481 48 l 1
 481 0 l 1
 51 0 l 1
 148 686 l 1
EndSplineSet
Position2: "'cpsp' Capital Spacing lookup 0 subtable" dx=5 dy=0 dh=10 dv=0
EndChar

StartChar: Emacron
Encoding: 274 274 28
Width: 592
GlyphClass: 2
Flags: MW
HStem: 0 48<112 481 112 481> 326 48<158 470 151 477> 638 48<195 559 195 195> 866 45<230 540 222 548>
VStem: 51 521
AnchorPoint: "Bottom" 260 0 basechar 0
LayerCount: 2
Fore
SplineSet
230 911 m 1
 548 911 l 1
 540 866 l 1
 222 866 l 1
 230 911 l 1
148 686 m 1
 572 686 l 1
 559 638 l 1
 195 638 l 1
 158 374 l 1
 477 374 l 1
 470 326 l 1
 151 326 l 1
 112 48 l 1
 481 48 l 1
 481 0 l 1
 51 0 l 1
 148 686 l 1
EndSplineSet
EndChar

StartChar: Eogonek
Encoding: 280 280 29
Width: 592
GlyphClass: 2
Flags: MW
HStem: -143 43<426.5 440.5> 0 48<112 404 454 481 454 454> 326 48<158 470 151 477> 638 48<195 195 195 559>
VStem: 339 58<-80 -63.5>
AnchorPoint: "Bottom" 260 0 basechar 0
LayerCount: 2
Fore
SplineSet
195 638 m 1
 158 374 l 1
 477 374 l 1
 470 326 l 1
 151 326 l 1
 112 48 l 1
 481 48 l 1
 481 0 l 1
 454 0 l 1
 450 -2 l 2
 426 -17 397 -36 397 -67 c 0
 397 -93 417 -100 436 -100 c 0
 460 -100 483 -93 505 -86 c 1
 514 -119 l 1
 486 -135 455 -143 426 -143 c 0
 383 -143 339 -129 339 -83 c 0
 339 -44 372 -19 404 0 c 1
 51 0 l 1
 148 686 l 1
 572 686 l 1
 559 638 l 1
 195 638 l 1
EndSplineSet
EndChar

StartChar: F
Encoding: 70 70 30
Width: 552
GlyphClass: 2
Flags: MW
HStem: 0 21G<51 105 51 51> 326 48<158 444 151 451> 638 48<195 195 195 541>
VStem: 51 503
LayerCount: 2
Fore
SplineSet
195 638 m 1
 158 374 l 1
 451 374 l 1
 444 326 l 1
 151 326 l 1
 105 0 l 1
 51 0 l 1
 148 686 l 1
 554 686 l 1
 541 638 l 1
 195 638 l 1
EndSplineSet
Position2: "'cpsp' Capital Spacing lookup 0 subtable" dx=5 dy=0 dh=10 dv=0
EndChar

StartChar: G
Encoding: 71 71 31
Width: 675
GlyphClass: 2
Flags: MW
HStem: -10 48<239 323.5> 0 21G<499 536 499 499> 303 47<291 579 297 523> 648 48<308.5 412.5>
VStem: 57 53<151.5 238.5> 496 40 543 54<495.5 555>
AnchorPoint: "Bottom" 302 0 basechar 0
LayerCount: 2
Fore
SplineSet
291 303 m 1xba
 297 350 l 1
 579 350 l 1
 547 119 l 2
 537 48 536 0 536 0 c 1
 499 0 l 1x7c
 499 0 496 30 496 92 c 1xbc
 446 18 362 -10 285 -10 c 0
 153 -10 57 37 57 223 c 0
 57 254 59 289 68 356 c 0
 104 631 227 696 374 696 c 0
 490 696 597 655 597 504 c 0
 597 487 596 469 593 449 c 1
 540 449 l 1
 542 465 543 480 543 494 c 0
 543 616 458 648 367 648 c 0
 250 648 155 595 123 368 c 0
 111 284 110 254 110 227 c 0
 110 76 186 38 292 38 c 0
 384 38 494 79 516 251 c 2
 523 303 l 1
 291 303 l 1xba
EndSplineSet
Position2: "'cpsp' Capital Spacing lookup 0 subtable" dx=5 dy=0 dh=10 dv=0
EndChar

StartChar: Gbreve
Encoding: 286 286 32
Width: 675
GlyphClass: 2
Flags: MW
HStem: -10 48<239 323.5> 0 21G<499 536 499 499> 303 47<291 579 297 523> 648 48<308.5 412.5> 788 49<339.5 404.5 339.5 418.5>
VStem: 57 53<151.5 238.5> 496 40 543 54<495.5 555>
AnchorPoint: "Bottom" 302 0 basechar 0
LayerCount: 2
Fore
SplineSet
365 788 m 0xbd
 264 788 189 849 189 904 c 0
 189 906 189 909 190 912 c 2
 246 912 l 1
 255 862 307 837 372 837 c 0
 437 837 495 862 519 912 c 1
 575 912 l 1
 567 855 472 788 365 788 c 0xbd
291 303 m 1
 297 350 l 1
 579 350 l 1
 547 119 l 2
 537 48 536 0 536 0 c 1
 499 0 l 1x7e
 499 0 496 30 496 92 c 1xbe
 446 18 362 -10 285 -10 c 0
 153 -10 57 37 57 223 c 0
 57 254 59 289 68 356 c 0
 104 631 227 696 374 696 c 0
 490 696 597 655 597 504 c 0
 597 487 596 469 593 449 c 1
 540 449 l 1
 542 465 543 480 543 494 c 0
 543 616 458 648 367 648 c 0
 250 648 155 595 123 368 c 0
 111 284 110 254 110 227 c 0
 110 76 186 38 292 38 c 0
 384 38 494 79 516 251 c 2
 523 303 l 1
 291 303 l 1
EndSplineSet
EndChar

StartChar: Gcommaaccent
Encoding: 290 290 33
Width: 675
GlyphClass: 2
Flags: MW
HStem: -149 69<256 271 247 321> -10 48<239 323.5> 0 21G<499 536 499 499> 303 47<291 579 297 523> 648 48<308.5 412.5>
VStem: 57 53<151.5 238.5> 251.5 65.5 496 40 543 54<495.5 555>
AnchorPoint: "Bottom" 302 0 basechar 0
LayerCount: 2
Fore
SplineSet
291 303 m 1xdc80
 297 350 l 1
 579 350 l 1
 547 119 l 2
 537 48 536 0 536 0 c 1
 499 0 l 1xbf
 499 0 496 30 496 92 c 1xdd
 446 18 362 -10 285 -10 c 0
 153 -10 57 37 57 223 c 0
 57 254 59 289 68 356 c 0
 104 631 227 696 374 696 c 0
 490 696 597 655 597 504 c 0
 597 487 596 469 593 449 c 1
 540 449 l 1
 542 465 543 480 543 494 c 0
 543 616 458 648 367 648 c 0
 250 648 155 595 123 368 c 0
 111 284 110 254 110 227 c 0
 110 76 186 38 292 38 c 0
 384 38 494 79 516 251 c 2
 523 303 l 1
 291 303 l 1xdc80
267 -250 m 1
 233 -250 l 2
 234 -250 271 -149 271 -149 c 1
 247 -149 l 1
 256 -80 l 1
 321 -80 l 1
 313 -138 l 1
 267 -250 l 1
EndSplineSet
EndChar

StartChar: H
Encoding: 72 72 34
Width: 693
GlyphClass: 2
Flags: MW
HStem: 0 21G<51 105 51 51 476 476 476 530> 326 48<158 522 151 529> 666 20G<148 202 202 202 573 627 627 627>
VStem: 51 576
LayerCount: 2
Fore
SplineSet
522 326 m 1
 151 326 l 1
 105 0 l 1
 51 0 l 1
 148 686 l 1
 202 686 l 1
 158 374 l 1
 529 374 l 1
 573 686 l 1
 627 686 l 1
 530 0 l 1
 476 0 l 1
 522 326 l 1
EndSplineSet
Position2: "'cpsp' Capital Spacing lookup 0 subtable" dx=5 dy=0 dh=10 dv=0
EndChar

StartChar: I
Encoding: 73 73 35
Width: 365
GlyphClass: 2
Flags: MW
HStem: 0 49<19 98 152 224 12 98> 637 49<109 181 102 321 235 314 235 235>
VStem: 12 309
LayerCount: 2
Fore
SplineSet
321 686 m 1
 314 637 l 1
 235 637 l 1
 152 49 l 1
 231 49 l 1
 224 0 l 1
 12 0 l 1
 19 49 l 1
 98 49 l 1
 181 637 l 1
 102 637 l 1
 109 686 l 1
 321 686 l 1
EndSplineSet
Position2: "'cpsp' Capital Spacing lookup 0 subtable" dx=5 dy=0 dh=10 dv=0
EndChar

StartChar: Iacute
Encoding: 205 205 36
Width: 365
GlyphClass: 2
Flags: MW
HStem: 0 49<19 98 152 224 12 98> 637 49<109 181 102 321 235 314 235 235> 750 145<194 376 194 376>
VStem: 12 364
LayerCount: 2
Fore
SplineSet
311 895 m 1
 376 895 l 1
 375 892 l 1
 244 750 l 1
 194 750 l 1
 311 895 l 1
321 686 m 1
 314 637 l 1
 235 637 l 1
 152 49 l 1
 231 49 l 1
 224 0 l 1
 12 0 l 1
 19 49 l 1
 98 49 l 1
 181 637 l 1
 102 637 l 1
 109 686 l 1
 321 686 l 1
EndSplineSet
Position2: "'cpsp' Capital Spacing lookup 0 subtable" dx=5 dy=0 dh=10 dv=0
EndChar

StartChar: Icircumflex
Encoding: 206 206 37
Width: 365
GlyphClass: 2
Flags: MW
HStem: 0 49<19 98 152 224 12 98> 637 49<109 181 102 321 235 314 235 235> 750 145<61 274 216 387 216 327>
VStem: 12 375
LayerCount: 2
Fore
SplineSet
274 895 m 1
 387 750 l 1
 327 750 l 1
 238 847 l 1
 121 750 l 1
 61 750 l 1
 216 895 l 1
 274 895 l 1
321 686 m 1
 314 637 l 1
 235 637 l 1
 152 49 l 1
 231 49 l 1
 224 0 l 1
 12 0 l 1
 19 49 l 1
 98 49 l 1
 181 637 l 1
 102 637 l 1
 109 686 l 1
 321 686 l 1
EndSplineSet
Position2: "'cpsp' Capital Spacing lookup 0 subtable" dx=5 dy=0 dh=10 dv=0
EndChar

StartChar: Idieresis
Encoding: 207 207 38
Width: 365
GlyphClass: 2
Flags: MW
HStem: 0 49<19 98 152 224 12 98> 637 49<109 181 102 321 235 314 235 235> 751 69<111 167 102 176 287 343>
VStem: 106.5 65 282.5 65
LayerCount: 2
Fore
SplineSet
176 820 m 1
 167 751 l 1
 102 751 l 1
 111 820 l 1
 176 820 l 1
352 820 m 1
 343 751 l 1
 278 751 l 1
 287 820 l 1
 352 820 l 1
321 686 m 1
 314 637 l 1
 235 637 l 1
 152 49 l 1
 231 49 l 1
 224 0 l 1
 12 0 l 1
 19 49 l 1
 98 49 l 1
 181 637 l 1
 102 637 l 1
 109 686 l 1
 321 686 l 1
EndSplineSet
Position2: "'cpsp' Capital Spacing lookup 0 subtable" dx=5 dy=0 dh=10 dv=0
EndChar

StartChar: Idotaccent
Encoding: 304 304 39
Width: 365
GlyphClass: 2
Flags: MW
HStem: 0 49<19 98 152 224 12 98> 637 49<109 181 102 321 235 314 235 235> 779 132<224 250>
VStem: 170 134<834.5 855.5>
LayerCount: 2
Fore
SplineSet
304 854 m 0
 304 815 272 779 228 779 c 0
 196 779 170 803 170 835 c 0
 170 876 202 911 246 911 c 0
 280 911 304 886 304 854 c 0
321 686 m 1
 314 637 l 1
 235 637 l 1
 152 49 l 1
 231 49 l 1
 224 0 l 1
 12 0 l 1
 19 49 l 1
 98 49 l 1
 181 637 l 1
 102 637 l 1
 109 686 l 1
 321 686 l 1
EndSplineSet
EndChar

StartChar: Igrave
Encoding: 204 204 40
Width: 365
GlyphClass: 2
Flags: MW
HStem: 0 49<19 98 152 224 12 98> 637 49<109 181 102 321 235 314 235 235> 750 145<109 249 109 199>
VStem: 12 309
LayerCount: 2
Fore
SplineSet
108 892 m 1
 109 895 l 1
 174 895 l 1
 249 750 l 1
 199 750 l 1
 108 892 l 1
321 686 m 1
 314 637 l 1
 235 637 l 1
 152 49 l 1
 231 49 l 1
 224 0 l 1
 12 0 l 1
 19 49 l 1
 98 49 l 1
 181 637 l 1
 102 637 l 1
 109 686 l 1
 321 686 l 1
EndSplineSet
Position2: "'cpsp' Capital Spacing lookup 0 subtable" dx=5 dy=0 dh=10 dv=0
EndChar

StartChar: Imacron
Encoding: 298 298 41
Width: 365
GlyphClass: 2
Flags: MW
HStem: 0 49<19 98 152 224 12 98> 637 49<109 181 102 321 235 314 235 235> 866 45<88 398 80 406>
VStem: 12 394
LayerCount: 2
Fore
SplineSet
88 911 m 1
 406 911 l 1
 398 866 l 1
 80 866 l 1
 88 911 l 1
321 686 m 1
 314 637 l 1
 235 637 l 1
 152 49 l 1
 231 49 l 1
 224 0 l 1
 12 0 l 1
 19 49 l 1
 98 49 l 1
 181 637 l 1
 102 637 l 1
 109 686 l 1
 321 686 l 1
EndSplineSet
EndChar

StartChar: Iogonek
Encoding: 302 302 42
Width: 365
GlyphClass: 2
Flags: MW
HStem: -143 43<191.5 205.5> 0 49<19 98 152 169 12 98 219 224 219 219> 637 49<109 181 102 321 235 314 235 235>
VStem: 104 58<-80 -63.5>
LayerCount: 2
Fore
SplineSet
235 637 m 1
 152 49 l 1
 231 49 l 1
 224 0 l 1
 219 0 l 1
 215 -2 l 2
 191 -17 162 -36 162 -67 c 0
 162 -93 182 -100 201 -100 c 0
 225 -100 248 -93 270 -86 c 1
 279 -119 l 1
 251 -135 220 -143 191 -143 c 0
 148 -143 104 -129 104 -83 c 0
 104 -44 137 -19 169 0 c 1
 12 0 l 1
 19 49 l 1
 98 49 l 1
 181 637 l 1
 102 637 l 1
 109 686 l 1
 321 686 l 1
 314 637 l 1
 235 637 l 1
EndSplineSet
EndChar

StartChar: J
Encoding: 74 74 43
Width: 525
GlyphClass: 2
Flags: MW
HStem: -10 48<148 221.5 148 235> 666 20G<413 467 467 467>
VStem: 10 51<108 140>
LayerCount: 2
Fore
SplineSet
15 185 m 1
 65 185 l 1
 61 163 61 154 61 146 c 0
 61 70 113 38 183 38 c 0
 260 38 328 78 341 172 c 2
 413 686 l 1
 467 686 l 1
 394 166 l 2
 378 50 293 -10 177 -10 c 0
 80 -10 10 39 10 135 c 0
 10 145 10 155 15 185 c 1
EndSplineSet
Position2: "'cpsp' Capital Spacing lookup 0 subtable" dx=5 dy=0 dh=10 dv=0
EndChar

StartChar: K
Encoding: 75 75 44
Width: 621
GlyphClass: 2
Flags: MW
HStem: 0 21G<51 105 51 51 472 540 472 472> 666 20G<148 202 202 202 565 629 629 629>
VStem: 51 578
AnchorPoint: "Bottom" 275 0 basechar 0
LayerCount: 2
Fore
SplineSet
202 686 m 1
 145 279 l 1
 565 686 l 1
 629 686 l 1
 320 387 l 1
 540 0 l 1
 472 0 l 1
 277 346 l 1
 135 208 l 1
 105 0 l 1
 51 0 l 1
 148 686 l 1
 202 686 l 1
EndSplineSet
Position2: "'cpsp' Capital Spacing lookup 0 subtable" dx=5 dy=0 dh=10 dv=0
EndChar

StartChar: Kcommaaccent
Encoding: 310 310 45
Width: 621
GlyphClass: 2
Flags: MW
HStem: -149 69<229 244 220 294> 0 21G<51 105 51 51 472 540 472 472> 666 20G<148 202 202 202 565 629 629 629>
VStem: 224.5 65.5
AnchorPoint: "Bottom" 275 0 basechar 0
LayerCount: 2
Fore
SplineSet
202 686 m 1
 145 279 l 1
 565 686 l 1
 629 686 l 1
 320 387 l 1
 540 0 l 1
 472 0 l 1
 277 346 l 1
 135 208 l 1
 105 0 l 1
 51 0 l 1
 148 686 l 1
 202 686 l 1
240 -250 m 1
 206 -250 l 2
 207 -250 244 -149 244 -149 c 1
 220 -149 l 1
 229 -80 l 1
 294 -80 l 1
 286 -138 l 1
 240 -250 l 1
EndSplineSet
EndChar

StartChar: L
Encoding: 76 76 46
Width: 532
GlyphClass: 2
Flags: MW
HStem: 0 48<112 454 112 454> 666 20G<148 202 202 202>
VStem: 51 403<0 48>
AnchorPoint: "Bottom" 230 0 basechar 0
LayerCount: 2
Fore
SplineSet
148 686 m 1
 202 686 l 1
 112 48 l 1
 454 48 l 1
 454 0 l 1
 51 0 l 1
 148 686 l 1
EndSplineSet
Position2: "'cpsp' Capital Spacing lookup 0 subtable" dx=5 dy=0 dh=10 dv=0
EndChar

StartChar: Lacute
Encoding: 313 313 47
Width: 532
GlyphClass: 2
Flags: MW
HStem: 0 48<112 454 112 454> 666 20G<148 202 202 202> 750 145<143 325 143 325>
VStem: 51 403<0 48>
AnchorPoint: "Bottom" 230 0 basechar 0
LayerCount: 2
Fore
SplineSet
260 895 m 1
 325 895 l 1
 324 892 l 1
 193 750 l 1
 143 750 l 1
 260 895 l 1
148 686 m 1
 202 686 l 1
 112 48 l 1
 454 48 l 1
 454 0 l 1
 51 0 l 1
 148 686 l 1
EndSplineSet
EndChar

StartChar: Lcaron
Encoding: 317 317 48
Width: 532
GlyphClass: 2
Flags: MW
HStem: 0 48<112 454 112 454> 496 20G<517 551 517 517.5> 516 170<539 551> 617 69<539 554>
VStem: 534.5 65.5
AnchorPoint: "Bottom" 230 0 basechar 0
LayerCount: 2
Fore
SplineSet
148 686 m 1xd8
 202 686 l 1
 112 48 l 1
 454 48 l 1
 454 0 l 1
 51 0 l 1
 148 686 l 1xd8
551 516 m 1xa8
 517 516 l 2
 518 516 554 617 554 617 c 1
 530 617 l 1
 539 686 l 1
 604 686 l 1
 596 628 l 1xd8
 551 516 l 1xa8
EndSplineSet
EndChar

StartChar: Lcommaaccent
Encoding: 315 315 49
Width: 532
GlyphClass: 2
Flags: MW
HStem: -149 69<184 199 175 249> 0 48<112 454 112 454> 666 20G<148 202 202 202>
VStem: 179.5 65.5
AnchorPoint: "Bottom" 230 0 basechar 0
LayerCount: 2
Fore
SplineSet
148 686 m 1
 202 686 l 1
 112 48 l 1
 454 48 l 1
 454 0 l 1
 51 0 l 1
 148 686 l 1
195 -250 m 1
 161 -250 l 2
 162 -250 199 -149 199 -149 c 1
 175 -149 l 1
 184 -80 l 1
 249 -80 l 1
 241 -138 l 1
 195 -250 l 1
EndSplineSet
EndChar

StartChar: Lslash
Encoding: 321 321 50
Width: 534
GlyphClass: 2
Flags: MW
HStem: 0 48<126 466 126 471> 666 20G<162 216 216 216>
VStem: 33 438<0 294>
LayerCount: 2
Fore
SplineSet
170 358 m 1
 126 48 l 1
 466 48 l 1
 471 0 l 1
 65 0 l 1
 112 331 l 1
 33 294 l 1
 39 338 l 1
 118 375 l 1
 162 686 l 1
 216 686 l 1
 176 402 l 1
 339 479 l 1
 332 435 l 1
 170 358 l 1
EndSplineSet
Position2: "'cpsp' Capital Spacing lookup 0 subtable" dx=5 dy=0 dh=10 dv=0
EndChar

StartChar: M
Encoding: 77 77 51
Width: 938
GlyphClass: 2
Flags: MW
HStem: 0 70<414 418 414 428 377 418> 625 61<187 192 187 187 791 796 791 791>
VStem: 51 808<0 686>
LayerCount: 2
Fore
SplineSet
796 625 m 1
 791 625 l 1
 428 0 l 1
 377 0 l 1
 192 625 l 1
 187 625 l 1
 99 0 l 1
 51 0 l 1
 148 686 l 1
 234 686 l 1
 414 70 l 1
 418 70 l 1
 774 686 l 1
 859 686 l 1
 762 0 l 1
 708 0 l 1
 796 625 l 1
EndSplineSet
Position2: "'cpsp' Capital Spacing lookup 0 subtable" dx=5 dy=0 dh=10 dv=0
EndChar

StartChar: N
Encoding: 78 78 52
Width: 694
GlyphClass: 2
Flags: MW
HStem: 0 21G<51 99 51 51 482 482 482 530> 0 103<482 497 493 497 493 530> 583 103<181 185 181 181> 666 20G<148 194 194 194 579 627 627 627>
VStem: 51 576
AnchorPoint: "Bottom" 311 0 basechar 0
LayerCount: 2
Fore
SplineSet
185 583 m 1xa8
 181 583 l 1xa8
 99 0 l 1
 51 0 l 1
 148 686 l 1
 194 686 l 1
 493 103 l 1
 497 103 l 1x58
 579 686 l 1
 627 686 l 1
 530 0 l 1
 482 0 l 1
 185 583 l 1xa8
EndSplineSet
Position2: "'cpsp' Capital Spacing lookup 0 subtable" dx=5 dy=0 dh=10 dv=0
EndChar

StartChar: Nacute
Encoding: 323 323 53
Width: 694
GlyphClass: 2
Flags: MW
HStem: 0 21G<51 99 51 51 482 482 482 530> 0 103<482 497 493 497 493 530> 583 103<181 185 181 181> 666 20G<148 194 194 194 579 627 627 627> 750 145<346 528 346 528>
VStem: 51 576
AnchorPoint: "Bottom" 311 0 basechar 0
LayerCount: 2
Fore
SplineSet
463 895 m 1x9c
 528 895 l 1
 527 892 l 1
 396 750 l 1
 346 750 l 1
 463 895 l 1x9c
185 583 m 1xac
 181 583 l 1xac
 99 0 l 1
 51 0 l 1
 148 686 l 1
 194 686 l 1
 493 103 l 1
 497 103 l 1x5c
 579 686 l 1
 627 686 l 1
 530 0 l 1
 482 0 l 1
 185 583 l 1xac
EndSplineSet
EndChar

StartChar: Ncaron
Encoding: 327 327 54
Width: 694
GlyphClass: 2
Flags: MW
HStem: 0 21G<51 99 51 51 482 482 482 530> 0 103<482 497 493 497 493 530> 583 103<181 185 181 181> 666 20G<148 194 194 194 579 627 627 627> 750 145<234 405 234 347>
VStem: 51 576
AnchorPoint: "Bottom" 311 0 basechar 0
LayerCount: 2
Fore
SplineSet
294 895 m 1x9c
 383 798 l 1
 500 895 l 1
 560 895 l 1
 405 750 l 1
 347 750 l 1
 234 895 l 1
 294 895 l 1x9c
185 583 m 1xac
 181 583 l 1xac
 99 0 l 1
 51 0 l 1
 148 686 l 1
 194 686 l 1
 493 103 l 1
 497 103 l 1x5c
 579 686 l 1
 627 686 l 1
 530 0 l 1
 482 0 l 1
 185 583 l 1xac
EndSplineSet
EndChar

StartChar: Ncommaaccent
Encoding: 325 325 55
Width: 694
GlyphClass: 2
Flags: MW
HStem: -149 69<265 280 256 330> 0 21G<51 99 51 51 482 482 482 530> 0 103<482 497 493 497 493 530> 583 103<181 185 181 181> 666 20G<148 194 194 194 579 627 627 627>
VStem: 260.5 65.5
AnchorPoint: "Bottom" 311 0 basechar 0
LayerCount: 2
Fore
SplineSet
185 583 m 1xd4
 181 583 l 1xd4
 99 0 l 1
 51 0 l 1
 148 686 l 1
 194 686 l 1
 493 103 l 1
 497 103 l 1xac
 579 686 l 1
 627 686 l 1
 530 0 l 1
 482 0 l 1
 185 583 l 1xd4
276 -250 m 1xcc
 242 -250 l 2
 243 -250 280 -149 280 -149 c 1
 256 -149 l 1
 265 -80 l 1
 330 -80 l 1
 322 -138 l 1
 276 -250 l 1xcc
EndSplineSet
EndChar

StartChar: Ntilde
Encoding: 209 209 56
Width: 694
GlyphClass: 2
Flags: MW
HStem: 0 21G<51 99 51 51 482 482 482 530> 0 103<482 497 493 497 493 530> 583 103<181 185 181 181> 666 20G<148 194 194 194 579 627 627 627> 750 50<467 510.5 467 519.5> 782 50<300.5 344>
VStem: 51 576
LayerCount: 2
Fore
SplineSet
555 832 m 1x9a
 592 832 l 1
 588 800 559 750 480 750 c 0xaa
 416 750 371 782 317 782 c 0
 284 782 266 773 256 750 c 1
 219 750 l 1
 223 782 253 832 331 832 c 0x96
 395 832 440 800 494 800 c 0
 527 800 545 809 555 832 c 1x9a
185 583 m 1
 181 583 l 1xaa
 99 0 l 1
 51 0 l 1
 148 686 l 1
 194 686 l 1
 493 103 l 1
 497 103 l 1x5a
 579 686 l 1
 627 686 l 1
 530 0 l 1
 482 0 l 1
 185 583 l 1
EndSplineSet
Position2: "'cpsp' Capital Spacing lookup 0 subtable" dx=5 dy=0 dh=10 dv=0
EndChar

StartChar: O
Encoding: 79 79 57
Width: 690
GlyphClass: 2
Flags: MW
HStem: -10 48<239.5 348.5 239.5 356.5> 648 48<316.5 425>
VStem: 57 53<154.5 243> 555 53<443 531.5>
LayerCount: 2
Fore
SplineSet
283 -10 m 0
 156 -10 57 38 57 228 c 0
 57 258 59 291 68 356 c 0
 104 631 235 696 382 696 c 0
 509 696 608 648 608 458 c 0
 608 428 605 394 597 330 c 0
 562 54 430 -10 283 -10 c 0
290 38 m 0
 407 38 511 91 542 318 c 0
 553 400 555 428 555 454 c 0
 555 609 475 648 375 648 c 0
 258 648 156 595 123 368 c 0
 111 286 110 257 110 232 c 0
 110 77 189 38 290 38 c 0
EndSplineSet
Substitution2: "Single Substitution lookup 5 subtable" ordmasculine
Substitution2: "'aalt' Access All Alternates lookup 0 subtable" ordmasculine
Position2: "'cpsp' Capital Spacing lookup 0 subtable" dx=5 dy=0 dh=10 dv=0
EndChar

StartChar: Oacute
Encoding: 211 211 58
Width: 690
GlyphClass: 2
Flags: MW
HStem: -10 48<239.5 348.5 239.5 356.5> 648 48<316.5 425> 750 145<368 550 368 550>
VStem: 57 53<154.5 243> 555 53<443 531.5>
LayerCount: 2
Fore
SplineSet
485 895 m 1
 550 895 l 1
 549 892 l 1
 418 750 l 1
 368 750 l 1
 485 895 l 1
283 -10 m 0
 156 -10 57 38 57 228 c 0
 57 258 59 291 68 356 c 0
 104 631 235 696 382 696 c 0
 509 696 608 648 608 458 c 0
 608 428 605 394 597 330 c 0
 562 54 430 -10 283 -10 c 0
290 38 m 0
 407 38 511 91 542 318 c 0
 553 400 555 428 555 454 c 0
 555 609 475 648 375 648 c 0
 258 648 156 595 123 368 c 0
 111 286 110 257 110 232 c 0
 110 77 189 38 290 38 c 0
EndSplineSet
Position2: "'cpsp' Capital Spacing lookup 0 subtable" dx=5 dy=0 dh=10 dv=0
EndChar

StartChar: Ocircumflex
Encoding: 212 212 59
Width: 690
GlyphClass: 2
Flags: MW
HStem: -10 48<239.5 348.5 239.5 356.5> 648 48<316.5 425> 750 145<240 453 395 566 395 506>
VStem: 57 53<154.5 243> 555 53<443 531.5>
LayerCount: 2
Fore
SplineSet
453 895 m 1
 566 750 l 1
 506 750 l 1
 417 847 l 1
 300 750 l 1
 240 750 l 1
 395 895 l 1
 453 895 l 1
283 -10 m 0
 156 -10 57 38 57 228 c 0
 57 258 59 291 68 356 c 0
 104 631 235 696 382 696 c 0
 509 696 608 648 608 458 c 0
 608 428 605 394 597 330 c 0
 562 54 430 -10 283 -10 c 0
290 38 m 0
 407 38 511 91 542 318 c 0
 553 400 555 428 555 454 c 0
 555 609 475 648 375 648 c 0
 258 648 156 595 123 368 c 0
 111 286 110 257 110 232 c 0
 110 77 189 38 290 38 c 0
EndSplineSet
Position2: "'cpsp' Capital Spacing lookup 0 subtable" dx=5 dy=0 dh=10 dv=0
EndChar

StartChar: Odieresis
Encoding: 214 214 60
Width: 690
GlyphClass: 2
Flags: MW
HStem: -10 48<239.5 348.5 239.5 356.5> 648 48<316.5 425> 751 69<295 351 286 360 471 527>
VStem: 57 53<154.5 243> 290.5 65 466.5 65 555 53<443 531.5>
LayerCount: 2
Fore
SplineSet
360 820 m 1
 351 751 l 1
 286 751 l 1
 295 820 l 1
 360 820 l 1
536 820 m 1xfe
 527 751 l 1
 462 751 l 1
 471 820 l 1
 536 820 l 1xfe
283 -10 m 0
 156 -10 57 38 57 228 c 0
 57 258 59 291 68 356 c 0
 104 631 235 696 382 696 c 0
 509 696 608 648 608 458 c 0
 608 428 605 394 597 330 c 0xfa
 562 54 430 -10 283 -10 c 0
290 38 m 0
 407 38 511 91 542 318 c 0
 553 400 555 428 555 454 c 0
 555 609 475 648 375 648 c 0xfa
 258 648 156 595 123 368 c 0
 111 286 110 257 110 232 c 0
 110 77 189 38 290 38 c 0
EndSplineSet
Position2: "'cpsp' Capital Spacing lookup 0 subtable" dx=5 dy=0 dh=10 dv=0
EndChar

StartChar: Ograve
Encoding: 210 210 61
Width: 690
GlyphClass: 2
Flags: MW
HStem: -10 48<239.5 348.5 239.5 356.5> 648 48<316.5 425> 750 145<288 428 288 378>
VStem: 57 53<154.5 243> 555 53<443 531.5>
LayerCount: 2
Fore
SplineSet
287 892 m 1
 288 895 l 1
 353 895 l 1
 428 750 l 1
 378 750 l 1
 287 892 l 1
283 -10 m 0
 156 -10 57 38 57 228 c 0
 57 258 59 291 68 356 c 0
 104 631 235 696 382 696 c 0
 509 696 608 648 608 458 c 0
 608 428 605 394 597 330 c 0
 562 54 430 -10 283 -10 c 0
290 38 m 0
 407 38 511 91 542 318 c 0
 553 400 555 428 555 454 c 0
 555 609 475 648 375 648 c 0
 258 648 156 595 123 368 c 0
 111 286 110 257 110 232 c 0
 110 77 189 38 290 38 c 0
EndSplineSet
Position2: "'cpsp' Capital Spacing lookup 0 subtable" dx=5 dy=0 dh=10 dv=0
EndChar

StartChar: Ohungarumlaut
Encoding: 336 336 62
Width: 690
GlyphClass: 2
Flags: MW
HStem: -10 48<239.5 348.5 239.5 356.5> 648 48<316.5 425> 750 145<289 470 289 470 414 414 414 464>
VStem: 57 53<154.5 243> 555 53<443 531.5>
LayerCount: 2
Fore
SplineSet
406 895 m 1
 470 895 l 1
 470 891 l 1
 339 750 l 1
 289 750 l 1
 406 895 l 1
531 895 m 1
 595 895 l 1
 595 891 l 1
 464 750 l 1
 414 750 l 1
 531 895 l 1
283 -10 m 0
 156 -10 57 38 57 228 c 0
 57 258 59 291 68 356 c 0
 104 631 235 696 382 696 c 0
 509 696 608 648 608 458 c 0
 608 428 605 394 597 330 c 0
 562 54 430 -10 283 -10 c 0
290 38 m 0
 407 38 511 91 542 318 c 0
 553 400 555 428 555 454 c 0
 555 609 475 648 375 648 c 0
 258 648 156 595 123 368 c 0
 111 286 110 257 110 232 c 0
 110 77 189 38 290 38 c 0
EndSplineSet
EndChar

StartChar: Omacron
Encoding: 332 332 63
Width: 690
GlyphClass: 2
Flags: MW
HStem: -10 48<239.5 348.5 239.5 356.5> 648 48<316.5 425> 866 45<249 559 241 567>
VStem: 57 53<154.5 243> 555 53<443 531.5>
LayerCount: 2
Fore
SplineSet
249 911 m 1
 567 911 l 1
 559 866 l 1
 241 866 l 1
 249 911 l 1
283 -10 m 0
 156 -10 57 38 57 228 c 0
 57 258 59 291 68 356 c 0
 104 631 235 696 382 696 c 0
 509 696 608 648 608 458 c 0
 608 428 605 394 597 330 c 0
 562 54 430 -10 283 -10 c 0
290 38 m 0
 407 38 511 91 542 318 c 0
 553 400 555 428 555 454 c 0
 555 609 475 648 375 648 c 0
 258 648 156 595 123 368 c 0
 111 286 110 257 110 232 c 0
 110 77 189 38 290 38 c 0
EndSplineSet
EndChar

StartChar: Oslash
Encoding: 216 216 64
Width: 690
GlyphClass: 2
Flags: MW
HStem: -10 48<275 359.5 275 367.5> 648 48<327.5 411.5>
VStem: 68 53<204.5 243> 566 53<443 481>
LayerCount: 2
Fore
SplineSet
294 -10 m 0
 233 -10 178 1 138 34 c 1
 65 -65 l 1
 20 -65 l 1
 112 60 l 1
 84 96 68 150 68 228 c 0
 68 258 70 291 79 356 c 0
 115 631 246 696 393 696 c 0
 454 696 509 685 549 652 c 1
 624 754 l 1
 668 754 l 1
 574 626 l 1
 602 590 619 536 619 458 c 0
 619 428 616 394 608 330 c 0
 573 54 441 -10 294 -10 c 0
121 232 m 0
 121 177 131 137 148 108 c 1
 515 607 l 1
 483 637 437 648 386 648 c 0
 269 648 167 595 134 368 c 0
 122 286 121 257 121 232 c 0
301 38 m 0
 418 38 522 91 553 318 c 0
 564 400 566 428 566 454 c 0
 566 508 555 549 538 578 c 1
 171 79 l 1
 203 48 249 38 301 38 c 0
EndSplineSet
Position2: "'cpsp' Capital Spacing lookup 0 subtable" dx=5 dy=0 dh=10 dv=0
EndChar

StartChar: Otilde
Encoding: 213 213 65
Width: 690
GlyphClass: 2
Flags: MW
HStem: -10 48<239.5 348.5 239.5 356.5> 648 48<316.5 425> 751 50<470 513.5 470 522.5> 783 50<303.5 347>
VStem: 57 53<154.5 243> 555 53<443 531.5>
LayerCount: 2
Fore
SplineSet
558 833 m 1xec
 595 833 l 1
 591 801 562 751 483 751 c 0xec
 419 751 374 783 320 783 c 0
 287 783 269 774 259 751 c 1
 222 751 l 1
 226 783 256 833 334 833 c 0xdc
 398 833 443 801 497 801 c 0
 530 801 548 810 558 833 c 1xec
283 -10 m 0
 156 -10 57 38 57 228 c 0
 57 258 59 291 68 356 c 0
 104 631 235 696 382 696 c 0
 509 696 608 648 608 458 c 0
 608 428 605 394 597 330 c 0
 562 54 430 -10 283 -10 c 0
290 38 m 0
 407 38 511 91 542 318 c 0
 553 400 555 428 555 454 c 0
 555 609 475 648 375 648 c 0
 258 648 156 595 123 368 c 0
 111 286 110 257 110 232 c 0
 110 77 189 38 290 38 c 0
EndSplineSet
Position2: "'cpsp' Capital Spacing lookup 0 subtable" dx=5 dy=0 dh=10 dv=0
EndChar

StartChar: OE
Encoding: 338 338 66
Width: 1031
GlyphClass: 2
Flags: MW
HStem: -10 48<270.5 357.5> 0 48<588 957 588 957> 326 48<634 946 627 953> 638 48<671 1031 671 671> 648 48<347.5 456>
VStem: 88 53<154.5 243>
LayerCount: 2
Fore
SplineSet
527 0 m 1x74
 542 88 l 1
 483 12 401 -10 314 -10 c 0
 187 -10 88 38 88 228 c 0
 88 258 90 291 99 356 c 0
 135 631 266 696 413 696 c 0
 499 696 573 674 611 600 c 1xac
 624 686 l 1
 1048 686 l 1
 1031 638 l 1
 671 638 l 1
 634 374 l 1
 953 374 l 1
 946 326 l 1
 627 326 l 1
 588 48 l 1
 957 48 l 1
 957 0 l 1
 527 0 l 1x74
321 38 m 0
 438 38 542 91 573 318 c 0
 584 400 586 428 586 454 c 0
 586 609 506 648 406 648 c 0
 289 648 187 595 154 368 c 0
 142 286 141 257 141 232 c 0
 141 77 220 38 321 38 c 0
EndSplineSet
Position2: "'cpsp' Capital Spacing lookup 0 subtable" dx=5 dy=0 dh=10 dv=0
EndChar

StartChar: P
Encoding: 80 80 67
Width: 626
GlyphClass: 2
Flags: MW
HStem: 0 21G<51 105 51 51> 312 47<156 376 156 376 149 376> 638 48<195 415 195 195>
VStem: 538 53<475.5 553>
LayerCount: 2
Fore
SplineSet
148 686 m 1
 429 686 l 2
 523 686 591 616 591 526 c 0
 591 411 500 312 376 312 c 2
 149 312 l 1
 105 0 l 1
 51 0 l 1
 148 686 l 1
156 359 m 1
 376 359 l 2
 470 359 538 432 538 519 c 0
 538 587 486 638 415 638 c 2
 195 638 l 1
 156 359 l 1
EndSplineSet
Position2: "'cpsp' Capital Spacing lookup 0 subtable" dx=5 dy=0 dh=10 dv=0
EndChar

StartChar: Thorn
Encoding: 222 222 68
Width: 633
GlyphClass: 2
Flags: MW
HStem: 0 21G<51 105 51 51> 177 47<137 357 137 357 130 357> 503 48<183 396 176 410> 503 183<176 202 148 396 176 176>
VStem: 519 53<340.5 418>
LayerCount: 2
Fore
SplineSet
148 686 m 1xd8
 202 686 l 1xd8
 183 551 l 1
 410 551 l 2xe8
 504 551 572 481 572 391 c 0
 572 276 469 177 357 177 c 2
 130 177 l 1
 105 0 l 1
 51 0 l 1
 148 686 l 1xd8
137 224 m 1
 357 224 l 2
 441 224 519 297 519 384 c 0
 519 452 467 503 396 503 c 2
 176 503 l 1xe8
 137 224 l 1
EndSplineSet
Position2: "'cpsp' Capital Spacing lookup 0 subtable" dx=5 dy=0 dh=10 dv=0
EndChar

StartChar: Q
Encoding: 81 81 69
Width: 690
GlyphClass: 2
Flags: MW
HStem: -137 47<370.5 431.5 370.5 433.5> -9 47 648 48<316.5 425>
VStem: 57 53<154.5 243> 261 50<4.29497e+09 4.29497e+09> 519 7 555 53<443 531.5>
LayerCount: 2
Fore
SplineSet
402 -137 m 0
 283 -137 261 -66 261 -9 c 1
 144 -4 57 49 57 228 c 0
 57 258 59 291 68 356 c 0
 104 631 235 696 382 696 c 0
 509 696 608 648 608 458 c 0
 608 428 605 394 597 330 c 0xfa
 564 71 446 -1 311 -9 c 1
 313 -46 333 -90 408 -90 c 0
 455 -90 526 -62 526 -61 c 2
 519 -110 l 1xfe
 519 -110 465 -137 402 -137 c 0
290 38 m 0
 407 38 511 91 542 318 c 0
 553 400 555 428 555 454 c 0
 555 609 475 648 375 648 c 0
 258 648 156 595 123 368 c 0
 111 286 110 257 110 232 c 0
 110 77 189 38 290 38 c 0
EndSplineSet
Position2: "'cpsp' Capital Spacing lookup 0 subtable" dx=5 dy=0 dh=10 dv=0
EndChar

StartChar: R
Encoding: 82 82 70
Width: 670
GlyphClass: 2
Flags: MW
HStem: -3 21G<518.5 539> 0 20 326 48<157 371 150 377> 638 48<194 422 194 194>
VStem: 476 56<186 251> 539 55<490 557.5>
AnchorPoint: "Bottom" 299 0 basechar 0
LayerCount: 2
Fore
SplineSet
560 20 m 1x78
 558 1 l 1
 558 1 546 -3 532 -3 c 0
 505 -3 469 10 469 85 c 0
 469 115 476 158 476 186 c 0xb8
 476 316 399 326 371 326 c 2
 150 326 l 1
 105 0 l 1
 51 0 l 1
 147 686 l 1
 426 686 l 2
 526 686 594 626 594 531 c 0x74
 594 449 527 368 446 354 c 1
 446 349 l 1
 446 349 532 335 532 204 c 0
 532 168 522 112 522 87 c 0
 522 30 542 29 560 20 c 1x78
157 374 m 1
 377 374 l 2
 460 374 539 441 539 521 c 0x74
 539 594 494 638 422 638 c 2
 194 638 l 1
 157 374 l 1
EndSplineSet
Position2: "'cpsp' Capital Spacing lookup 0 subtable" dx=5 dy=0 dh=10 dv=0
EndChar

StartChar: Racute
Encoding: 340 340 71
Width: 670
GlyphClass: 2
Flags: MW
HStem: -3 21G<518.5 539> 0 20 326 48<157 371 150 377> 638 48<194 422 194 194> 750 145<304 486 304 486>
VStem: 476 56<186 251> 539 55<490 557.5>
AnchorPoint: "Bottom" 299 0 basechar 0
LayerCount: 2
Fore
SplineSet
421 895 m 1x7a
 486 895 l 1
 485 892 l 1
 354 750 l 1
 304 750 l 1
 421 895 l 1x7a
560 20 m 1x7c
 558 1 l 1
 558 1 546 -3 532 -3 c 0
 505 -3 469 10 469 85 c 0
 469 115 476 158 476 186 c 0xbc
 476 316 399 326 371 326 c 2
 150 326 l 1
 105 0 l 1
 51 0 l 1
 147 686 l 1
 426 686 l 2
 526 686 594 626 594 531 c 0x7a
 594 449 527 368 446 354 c 1
 446 349 l 1
 446 349 532 335 532 204 c 0
 532 168 522 112 522 87 c 0
 522 30 542 29 560 20 c 1x7c
157 374 m 1
 377 374 l 2
 460 374 539 441 539 521 c 0x7a
 539 594 494 638 422 638 c 2
 194 638 l 1
 157 374 l 1
EndSplineSet
EndChar

StartChar: Rcaron
Encoding: 344 344 72
Width: 670
GlyphClass: 2
Flags: MW
HStem: -3 21G<518.5 539> 0 20 326 48<157 371 150 377> 638 48<194 422 194 194> 750 145<192 363 192 305>
VStem: 476 56<186 251> 539 55<490 557.5>
AnchorPoint: "Bottom" 299 0 basechar 0
LayerCount: 2
Fore
SplineSet
252 895 m 1x7a
 341 798 l 1
 458 895 l 1
 518 895 l 1
 363 750 l 1
 305 750 l 1
 192 895 l 1
 252 895 l 1x7a
560 20 m 1x7c
 558 1 l 1
 558 1 546 -3 532 -3 c 0
 505 -3 469 10 469 85 c 0
 469 115 476 158 476 186 c 0xbc
 476 316 399 326 371 326 c 2
 150 326 l 1
 105 0 l 1
 51 0 l 1
 147 686 l 1
 426 686 l 2
 526 686 594 626 594 531 c 0x7a
 594 449 527 368 446 354 c 1
 446 349 l 1
 446 349 532 335 532 204 c 0
 532 168 522 112 522 87 c 0
 522 30 542 29 560 20 c 1x7c
157 374 m 1
 377 374 l 2
 460 374 539 441 539 521 c 0x7a
 539 594 494 638 422 638 c 2
 194 638 l 1
 157 374 l 1
EndSplineSet
EndChar

StartChar: Rcommaaccent
Encoding: 342 342 73
Width: 670
GlyphClass: 2
Flags: MW
HStem: -149 69<253 268 244 318> -3 21G<518.5 539> 0 20 326 48<157 371 150 377> 638 48<194 422 194 194>
VStem: 248.5 65.5 476 56<186 251> 539 55<490 557.5>
AnchorPoint: "Bottom" 299 0 basechar 0
LayerCount: 2
Fore
SplineSet
560 20 m 1xba
 558 1 l 1
 558 1 546 -3 532 -3 c 0
 505 -3 469 10 469 85 c 0
 469 115 476 158 476 186 c 0xda
 476 316 399 326 371 326 c 2
 150 326 l 1
 105 0 l 1
 51 0 l 1
 147 686 l 1
 426 686 l 2
 526 686 594 626 594 531 c 0xb9
 594 449 527 368 446 354 c 1
 446 349 l 1
 446 349 532 335 532 204 c 0
 532 168 522 112 522 87 c 0
 522 30 542 29 560 20 c 1xba
157 374 m 1
 377 374 l 2
 460 374 539 441 539 521 c 0xbd
 539 594 494 638 422 638 c 2
 194 638 l 1
 157 374 l 1
264 -250 m 1
 230 -250 l 2
 231 -250 268 -149 268 -149 c 1
 244 -149 l 1
 253 -80 l 1
 318 -80 l 1
 310 -138 l 1
 264 -250 l 1
EndSplineSet
EndChar

StartChar: S
Encoding: 83 83 74
Width: 629
GlyphClass: 2
Flags: MW
HStem: -10 48<212.5 315.5 212.5 326> 648 48<298.5 393>
VStem: 36 50<112 159> 102 53<426.5 559.5 426.5 569> 477 55<140.5 293> 508 50<541.5 577.5>
AnchorPoint: "Bottom" 279 0 basechar 0
LayerCount: 2
Fore
SplineSet
554 503 m 1xd4
 504 503 l 1
 508 531 508 537 508 542 c 0xd4
 508 613 438 648 348 648 c 0
 249 648 155 611 155 508 c 0xd8
 155 345 532 431 532 217 c 0
 532 49 393 -10 259 -10 c 0
 135 -10 36 31 36 151 c 0
 36 167 39 195 42 205 c 1
 93 205 l 1
 90 197 86 169 86 155 c 0xf8
 86 69 163 38 262 38 c 0
 369 38 477 76 477 205 c 0xd8
 477 381 102 293 102 500 c 0
 102 638 224 696 354 696 c 0
 469 696 558 654 558 546 c 0
 558 537 558 527 554 503 c 1xd4
EndSplineSet
Position2: "'cpsp' Capital Spacing lookup 0 subtable" dx=5 dy=0 dh=10 dv=0
EndChar

StartChar: Sacute
Encoding: 346 346 75
Width: 629
GlyphClass: 2
Flags: MW
HStem: -10 48<212.5 315.5 212.5 326> 648 48<298.5 393> 750 145<314 496 314 496>
VStem: 36 50<112 159> 102 53<426.5 559.5 426.5 569> 477 55<140.5 293> 508 50<541.5 577.5>
AnchorPoint: "Bottom" 279 0 basechar 0
LayerCount: 2
Fore
SplineSet
431 895 m 1xec
 496 895 l 1
 495 892 l 1
 364 750 l 1
 314 750 l 1
 431 895 l 1xec
554 503 m 1xea
 504 503 l 1
 508 531 508 537 508 542 c 0xea
 508 613 438 648 348 648 c 0
 249 648 155 611 155 508 c 0xec
 155 345 532 431 532 217 c 0
 532 49 393 -10 259 -10 c 0
 135 -10 36 31 36 151 c 0
 36 167 39 195 42 205 c 1
 93 205 l 1
 90 197 86 169 86 155 c 0xfc
 86 69 163 38 262 38 c 0
 369 38 477 76 477 205 c 0xec
 477 381 102 293 102 500 c 0
 102 638 224 696 354 696 c 0
 469 696 558 654 558 546 c 0
 558 537 558 527 554 503 c 1xea
EndSplineSet
EndChar

StartChar: Scaron
Encoding: 352 352 76
Width: 629
GlyphClass: 2
Flags: MW
HStem: -10 48<212.5 315.5 212.5 326> 648 48<298.5 393> 750 145<215 386 215 328>
VStem: 36 50<112 159> 102 53<426.5 559.5 426.5 569> 477 55<140.5 293> 508 50<541.5 577.5>
LayerCount: 2
Fore
SplineSet
275 895 m 1xec
 364 798 l 1
 481 895 l 1
 541 895 l 1
 386 750 l 1
 328 750 l 1
 215 895 l 1
 275 895 l 1xec
554 503 m 1xea
 504 503 l 1
 508 531 508 537 508 542 c 0xea
 508 613 438 648 348 648 c 0
 249 648 155 611 155 508 c 0xec
 155 345 532 431 532 217 c 0
 532 49 393 -10 259 -10 c 0
 135 -10 36 31 36 151 c 0
 36 167 39 195 42 205 c 1
 93 205 l 1
 90 197 86 169 86 155 c 0xfc
 86 69 163 38 262 38 c 0
 369 38 477 76 477 205 c 0xec
 477 381 102 293 102 500 c 0
 102 638 224 696 354 696 c 0
 469 696 558 654 558 546 c 0
 558 537 558 527 554 503 c 1xea
EndSplineSet
Position2: "'cpsp' Capital Spacing lookup 0 subtable" dx=5 dy=0 dh=10 dv=0
EndChar

StartChar: Scedilla
Encoding: 350 350 77
Width: 629
GlyphClass: 2
Flags: MW
HStem: -197 46<233.5 261 226.5 270> -184 21G<170 170> -51 34<258 275 253 287.5> -10 48<212.5 315.5 212.5 326> 648 48<298.5 393>
VStem: 36 50<112 159> 102 53<426.5 559.5 426.5 569> 327 51<-115 -77.5> 477 55<140.5 293> 508 50<541.5 577.5>
AnchorPoint: "Bottom" 279 0 basechar 0
LayerCount: 2
Fore
SplineSet
554 503 m 1x9b40
 504 503 l 1
 508 531 508 537 508 542 c 0x5b40
 508 613 438 648 348 648 c 0
 249 648 155 611 155 508 c 0x9b80
 155 345 532 431 532 217 c 0
 532 49 393 -10 259 -10 c 0
 135 -10 36 31 36 151 c 0
 36 167 39 195 42 205 c 1
 93 205 l 1
 90 197 86 169 86 155 c 0x9f80
 86 69 163 38 262 38 c 0
 369 38 477 76 477 205 c 0x9b80
 477 381 102 293 102 500 c 0
 102 638 224 696 354 696 c 0
 469 696 558 654 558 546 c 0
 558 537 558 527 554 503 c 1x9b40
170 -184 m 1
 176 -138 l 1
 188 -145 210 -151 243 -151 c 0
 279 -151 327 -139 327 -91 c 0
 327 -64 300 -51 275 -51 c 2
 253 -51 l 1
 258 -17 l 1
 317 -17 378 -22 378 -90 c 0
 378 -177 294 -197 246 -197 c 0xab80
 221 -197 192 -193 170 -184 c 1
EndSplineSet
EndChar

StartChar: Scommaaccent
Encoding: 536 536 78
Width: 629
GlyphClass: 2
Flags: MW
HStem: -149 69<233 248 224 298> -10 48<212.5 315.5 212.5 326> 648 48<298.5 393>
VStem: 36 50<112 159> 102 53<426.5 559.5 426.5 569> 228.5 65.5 477 55<140.5 293> 508 50<541.5 577.5>
AnchorPoint: "Bottom" 279 0 basechar 0
LayerCount: 2
Fore
SplineSet
554 503 m 1xe9
 504 503 l 1
 508 531 508 537 508 542 c 0xed
 508 613 438 648 348 648 c 0
 249 648 155 611 155 508 c 0xea
 155 345 532 431 532 217 c 0
 532 49 393 -10 259 -10 c 0
 135 -10 36 31 36 151 c 0
 36 167 39 195 42 205 c 1
 93 205 l 1
 90 197 86 169 86 155 c 0xfa
 86 69 163 38 262 38 c 0
 369 38 477 76 477 205 c 0xea
 477 381 102 293 102 500 c 0
 102 638 224 696 354 696 c 0
 469 696 558 654 558 546 c 0
 558 537 558 527 554 503 c 1xe9
244 -250 m 1
 210 -250 l 2
 211 -250 248 -149 248 -149 c 1
 224 -149 l 1
 233 -80 l 1
 298 -80 l 1
 290 -138 l 1
 244 -250 l 1
EndSplineSet
EndChar

StartChar: T
Encoding: 84 84 79
Width: 575
GlyphClass: 2
Flags: MW
HStem: 0 21G<209 261 209 209> 638 48<74 299 67 590 351 351 351 583>
VStem: 67 523<638 686>
AnchorPoint: "Bottom" 241 0 basechar 0
LayerCount: 2
Fore
SplineSet
261 0 m 1
 209 0 l 1
 299 638 l 1
 67 638 l 1
 74 686 l 1
 590 686 l 1
 583 638 l 1
 351 638 l 1
 261 0 l 1
EndSplineSet
Position2: "'cpsp' Capital Spacing lookup 0 subtable" dx=5 dy=0 dh=10 dv=0
EndChar

StartChar: Tcaron
Encoding: 356 356 80
Width: 575
GlyphClass: 2
Flags: MW
HStem: 0 21G<209 261 209 209> 638 48<74 299 67 590 351 351 351 583> 750 145<188 359 188 301>
VStem: 67 523<638 686>
AnchorPoint: "Bottom" 241 0 basechar 0
LayerCount: 2
Fore
SplineSet
248 895 m 1
 337 798 l 1
 454 895 l 1
 514 895 l 1
 359 750 l 1
 301 750 l 1
 188 895 l 1
 248 895 l 1
261 0 m 1
 209 0 l 1
 299 638 l 1
 67 638 l 1
 74 686 l 1
 590 686 l 1
 583 638 l 1
 351 638 l 1
 261 0 l 1
EndSplineSet
EndChar

StartChar: Tcedilla
Encoding: 354 354 81
Width: 575
GlyphClass: 2
Flags: MW
HStem: -197 46<195.5 223 188.5 232> -184 21G<132 132> -51 34<220 237 215 249.5> 0 21G<209 261 209 209> 638 48<74 299 67 590 351 351 351 583>
VStem: 289 51<-115 -77.5>
AnchorPoint: "Bottom" 241 0 basechar 0
LayerCount: 2
Fore
SplineSet
261 0 m 1x9c
 209 0 l 1
 299 638 l 1
 67 638 l 1
 74 686 l 1
 590 686 l 1
 583 638 l 1
 351 638 l 1
 261 0 l 1x9c
132 -184 m 1x5c
 138 -138 l 1
 150 -145 172 -151 205 -151 c 0
 241 -151 289 -139 289 -91 c 0
 289 -64 262 -51 237 -51 c 2
 215 -51 l 1
 220 -17 l 1
 279 -17 340 -22 340 -90 c 0
 340 -177 256 -197 208 -197 c 0xbc
 183 -197 154 -193 132 -184 c 1x5c
EndSplineSet
EndChar

StartChar: Tcommaaccent
Encoding: 538 538 82
Width: 575
GlyphClass: 2
Flags: MW
HStem: -149 69<195 210 186 260> 0 21G<209 261 209 209> 638 48<74 299 67 590 351 351 351 583>
VStem: 190.5 65.5
AnchorPoint: "Bottom" 241 0 basechar 0
LayerCount: 2
Fore
SplineSet
261 0 m 1
 209 0 l 1
 299 638 l 1
 67 638 l 1
 74 686 l 1
 590 686 l 1
 583 638 l 1
 351 638 l 1
 261 0 l 1
206 -250 m 1
 172 -250 l 2
 173 -250 210 -149 210 -149 c 1
 186 -149 l 1
 195 -80 l 1
 260 -80 l 1
 252 -138 l 1
 206 -250 l 1
EndSplineSet
EndChar

StartChar: U
Encoding: 85 85 83
Width: 682
GlyphClass: 2
Flags: MW
HStem: -10 48<236.5 348.5 236.5 355> 666 20G<142 196 196 196 565 619 619 619>
VStem: 74 54<141.5 200.5 141.5 206.5>
LayerCount: 2
Fore
SplineSet
619 686 m 1
 554 220 l 2
 534 81 427 -10 283 -10 c 0
 153 -10 74 64 74 180 c 0
 74 233 142 686 142 686 c 1
 196 686 l 1
 129 210 128 214 128 187 c 0
 128 96 184 38 289 38 c 0
 408 38 485 114 500 222 c 2
 565 686 l 1
 619 686 l 1
EndSplineSet
Position2: "'cpsp' Capital Spacing lookup 0 subtable" dx=5 dy=0 dh=10 dv=0
EndChar

StartChar: Uacute
Encoding: 218 218 84
Width: 682
GlyphClass: 2
Flags: MW
HStem: -10 48<236.5 348.5 236.5 355> 666 20G<142 196 196 196 565 619 619 619> 750 145<363 545 363 545>
VStem: 74 54<141.5 200.5 141.5 206.5>
LayerCount: 2
Fore
SplineSet
480 895 m 1
 545 895 l 1
 544 892 l 1
 413 750 l 1
 363 750 l 1
 480 895 l 1
619 686 m 1
 554 220 l 2
 534 81 427 -10 283 -10 c 0
 153 -10 74 64 74 180 c 0
 74 233 142 686 142 686 c 1
 196 686 l 1
 129 210 128 214 128 187 c 0
 128 96 184 38 289 38 c 0
 408 38 485 114 500 222 c 2
 565 686 l 1
 619 686 l 1
EndSplineSet
Position2: "'cpsp' Capital Spacing lookup 0 subtable" dx=5 dy=0 dh=10 dv=0
EndChar

StartChar: Ucircumflex
Encoding: 219 219 85
Width: 682
GlyphClass: 2
Flags: MW
HStem: -10 48<236.5 348.5 236.5 355> 666 20G<142 196 196 196 565 619 619 619> 750 145<221 434 376 547 376 487>
VStem: 74 54<141.5 200.5 141.5 206.5>
LayerCount: 2
Fore
SplineSet
434 895 m 1
 547 750 l 1
 487 750 l 1
 398 847 l 1
 281 750 l 1
 221 750 l 1
 376 895 l 1
 434 895 l 1
619 686 m 1
 554 220 l 2
 534 81 427 -10 283 -10 c 0
 153 -10 74 64 74 180 c 0
 74 233 142 686 142 686 c 1
 196 686 l 1
 129 210 128 214 128 187 c 0
 128 96 184 38 289 38 c 0
 408 38 485 114 500 222 c 2
 565 686 l 1
 619 686 l 1
EndSplineSet
Position2: "'cpsp' Capital Spacing lookup 0 subtable" dx=5 dy=0 dh=10 dv=0
EndChar

StartChar: Udieresis
Encoding: 220 220 86
Width: 682
GlyphClass: 2
Flags: MW
HStem: -10 48<236.5 348.5 236.5 355> 666 20G<142 196 196 196 565 619 619 619> 751 69<279 335 270 344 455 511>
VStem: 74 54<141.5 200.5 141.5 206.5> 274.5 65 450.5 65
LayerCount: 2
Fore
SplineSet
344 820 m 1
 335 751 l 1
 270 751 l 1
 279 820 l 1
 344 820 l 1
520 820 m 1
 511 751 l 1
 446 751 l 1
 455 820 l 1
 520 820 l 1
619 686 m 1
 554 220 l 2
 534 81 427 -10 283 -10 c 0
 153 -10 74 64 74 180 c 0
 74 233 142 686 142 686 c 1
 196 686 l 1
 129 210 128 214 128 187 c 0
 128 96 184 38 289 38 c 0
 408 38 485 114 500 222 c 2
 565 686 l 1
 619 686 l 1
EndSplineSet
Position2: "'cpsp' Capital Spacing lookup 0 subtable" dx=5 dy=0 dh=10 dv=0
EndChar

StartChar: Ugrave
Encoding: 217 217 87
Width: 682
GlyphClass: 2
Flags: MW
HStem: -10 48<236.5 348.5 236.5 355> 666 20G<142 196 196 196 565 619 619 619> 750 145<278 418 278 368>
VStem: 74 54<141.5 200.5 141.5 206.5>
LayerCount: 2
Fore
SplineSet
277 892 m 1
 278 895 l 1
 343 895 l 1
 418 750 l 1
 368 750 l 1
 277 892 l 1
619 686 m 1
 554 220 l 2
 534 81 427 -10 283 -10 c 0
 153 -10 74 64 74 180 c 0
 74 233 142 686 142 686 c 1
 196 686 l 1
 129 210 128 214 128 187 c 0
 128 96 184 38 289 38 c 0
 408 38 485 114 500 222 c 2
 565 686 l 1
 619 686 l 1
EndSplineSet
Position2: "'cpsp' Capital Spacing lookup 0 subtable" dx=5 dy=0 dh=10 dv=0
EndChar

StartChar: Uhungarumlaut
Encoding: 368 368 88
Width: 682
GlyphClass: 2
Flags: MW
HStem: -10 48<236.5 348.5 236.5 355> 666 20G<142 196 196 196 565 619 619 619> 750 145<294 475 294 475 419 419 419 469>
VStem: 74 54<141.5 200.5 141.5 206.5>
LayerCount: 2
Fore
SplineSet
411 895 m 1
 475 895 l 1
 475 891 l 1
 344 750 l 1
 294 750 l 1
 411 895 l 1
536 895 m 1
 600 895 l 1
 600 891 l 1
 469 750 l 1
 419 750 l 1
 536 895 l 1
619 686 m 1
 554 220 l 2
 534 81 427 -10 283 -10 c 0
 153 -10 74 64 74 180 c 0
 74 233 142 686 142 686 c 1
 196 686 l 1
 129 210 128 214 128 187 c 0
 128 96 184 38 289 38 c 0
 408 38 485 114 500 222 c 2
 565 686 l 1
 619 686 l 1
EndSplineSet
EndChar

StartChar: Umacron
Encoding: 362 362 89
Width: 682
GlyphClass: 2
Flags: MW
HStem: -10 48<236.5 348.5 236.5 355> 666 20G<142 196 196 196 565 619 619 619> 866 45<254 564 246 572>
VStem: 74 54<141.5 200.5 141.5 206.5>
LayerCount: 2
Fore
SplineSet
254 911 m 1
 572 911 l 1
 564 866 l 1
 246 866 l 1
 254 911 l 1
619 686 m 1
 554 220 l 2
 534 81 427 -10 283 -10 c 0
 153 -10 74 64 74 180 c 0
 74 233 142 686 142 686 c 1
 196 686 l 1
 129 210 128 214 128 187 c 0
 128 96 184 38 289 38 c 0
 408 38 485 114 500 222 c 2
 565 686 l 1
 619 686 l 1
EndSplineSet
EndChar

StartChar: Uogonek
Encoding: 370 370 90
Width: 682
GlyphClass: 2
Flags: MW
HStem: -143 43<327.5 341.5> -10 48<236.5 283 283 289> 666 20G<142 196 196 196 565 619 619 619>
VStem: 74 54<141.5 200.5 141.5 206.5> 240 58<-80 -66.5>
LayerCount: 2
Fore
SplineSet
619 686 m 1
 554 220 l 2
 537 103 459 20 349 -3 c 1
 326 -18 298 -37 298 -67 c 0
 298 -93 318 -100 337 -100 c 0
 361 -100 384 -93 406 -86 c 1
 415 -119 l 1
 387 -135 356 -143 327 -143 c 0
 284 -143 240 -129 240 -83 c 0
 240 -50 263 -28 289 -10 c 1
 283 -10 l 2
 153 -10 74 64 74 180 c 0
 74 233 142 686 142 686 c 1
 196 686 l 1
 129 210 128 214 128 187 c 0
 128 96 184 38 289 38 c 0
 408 38 485 114 500 222 c 2
 565 686 l 1
 619 686 l 1
EndSplineSet
EndChar

StartChar: Uring
Encoding: 366 366 91
Width: 682
GlyphClass: 2
Flags: MW
HStem: -10 48<236.5 348.5 236.5 355> 666 20G<142 196 196 196 565 619 619 619> 720 36<375 410.5 375 418> 885 36<390.5 425.5>
VStem: 74 54<141.5 200.5 141.5 206.5> 298 36<795 831 795 840> 466 36<809.5 846>
LayerCount: 2
Fore
SplineSet
502 835 m 0
 502 772 450 720 386 720 c 0
 335 720 298 757 298 807 c 0
 298 873 355 921 415 921 c 0
 465 921 502 884 502 835 c 0
391 756 m 0
 430 756 466 789 466 830 c 0
 466 862 441 885 410 885 c 0
 371 885 334 851 334 811 c 0
 334 779 359 756 391 756 c 0
619 686 m 1
 554 220 l 2
 534 81 427 -10 283 -10 c 0
 153 -10 74 64 74 180 c 0
 74 233 142 686 142 686 c 1
 196 686 l 1
 129 210 128 214 128 187 c 0
 128 96 184 38 289 38 c 0
 408 38 485 114 500 222 c 2
 565 686 l 1
 619 686 l 1
EndSplineSet
EndChar

StartChar: V
Encoding: 86 86 92
Width: 602
GlyphClass: 2
Flags: MW
HStem: 0 21G<222 270 222 222> 0 86<258 263 258 270 222 263> 666 20G<59 118 118 118 573 626 626 626>
VStem: 59 567<686 686>
LayerCount: 2
Fore
SplineSet
626 686 m 1xb0
 270 0 l 1
 222 0 l 1
 59 686 l 1
 118 686 l 1
 258 86 l 1
 263 86 l 1x70
 573 686 l 1
 626 686 l 1xb0
EndSplineSet
Position2: "'cpsp' Capital Spacing lookup 0 subtable" dx=5 dy=0 dh=10 dv=0
EndChar

StartChar: W
Encoding: 87 87 93
Width: 914
GlyphClass: 2
Flags: MW
HStem: 0 21G<170 216 170 170 558 604 558 558> 0 107<210 214 210 216 170 214 598 602> 581 105<467 471 467 467> 666 20G<67 125 125 125 463 513 513 513 851 901 901 901>
VStem: 67 834<686 686>
LayerCount: 2
Fore
SplineSet
901 686 m 1x98
 604 0 l 1
 558 0 l 1
 471 581 l 1
 467 581 l 1xa8
 216 0 l 1
 170 0 l 1
 67 686 l 1
 125 686 l 1
 210 107 l 1
 214 107 l 1
 463 686 l 1
 513 686 l 1
 598 107 l 1
 602 107 l 1x58
 851 686 l 1
 901 686 l 1x98
EndSplineSet
Position2: "'cpsp' Capital Spacing lookup 0 subtable" dx=5 dy=0 dh=10 dv=0
EndChar

StartChar: X
Encoding: 88 88 94
Width: 628
GlyphClass: 2
Flags: MW
HStem: 0 21G<-32 26 -32 -32 474 539 474 474> 666 20G<87 152 152 152 555 614 614 614>
VStem: -32 646
LayerCount: 2
Fore
SplineSet
539 0 m 1
 474 0 l 1
 298 315 l 1
 294 315 l 1
 26 0 l 1
 -32 0 l 1
 273 359 l 1
 87 686 l 1
 152 686 l 1
 310 402 l 1
 314 402 l 1
 555 686 l 1
 614 686 l 1
 335 359 l 1
 539 0 l 1
EndSplineSet
Position2: "'cpsp' Capital Spacing lookup 0 subtable" dx=5 dy=0 dh=10 dv=0
EndChar

StartChar: Y
Encoding: 89 89 95
Width: 570
GlyphClass: 2
Flags: MW
HStem: 0 21G<198 252 198 198> 666 20G<49 112 112 112 540 595 595 595>
VStem: 49 546<686 686>
LayerCount: 2
Fore
SplineSet
252 0 m 1
 198 0 l 1
 236 266 l 1
 49 686 l 1
 112 686 l 1
 270 321 l 1
 275 321 l 1
 540 686 l 1
 595 686 l 1
 290 266 l 1
 252 0 l 1
EndSplineSet
Position2: "'cpsp' Capital Spacing lookup 0 subtable" dx=5 dy=0 dh=10 dv=0
EndChar

StartChar: Yacute
Encoding: 221 221 96
Width: 570
GlyphClass: 2
Flags: MW
HStem: 0 21G<198 252 198 198> 666 20G<49 112 112 112 540 595 595 595> 750 145<311 493 311 493>
VStem: 49 546<686 686>
LayerCount: 2
Fore
SplineSet
428 895 m 1
 493 895 l 1
 492 892 l 1
 361 750 l 1
 311 750 l 1
 428 895 l 1
252 0 m 1
 198 0 l 1
 236 266 l 1
 49 686 l 1
 112 686 l 1
 270 321 l 1
 275 321 l 1
 540 686 l 1
 595 686 l 1
 290 266 l 1
 252 0 l 1
EndSplineSet
Position2: "'cpsp' Capital Spacing lookup 0 subtable" dx=5 dy=0 dh=10 dv=0
EndChar

StartChar: Ydieresis
Encoding: 376 376 97
Width: 570
GlyphClass: 2
Flags: MW
HStem: 0 21G<198 252 198 198> 666 20G<49 112 112 112 540 595 595 595> 750 69<219 275 210 284 395 451>
VStem: 214.5 65 390.5 65
LayerCount: 2
Fore
SplineSet
284 819 m 1
 275 750 l 1
 210 750 l 1
 219 819 l 1
 284 819 l 1
460 819 m 1
 451 750 l 1
 386 750 l 1
 395 819 l 1
 460 819 l 1
252 0 m 1
 198 0 l 1
 236 266 l 1
 49 686 l 1
 112 686 l 1
 270 321 l 1
 275 321 l 1
 540 686 l 1
 595 686 l 1
 290 266 l 1
 252 0 l 1
EndSplineSet
Position2: "'cpsp' Capital Spacing lookup 0 subtable" dx=5 dy=0 dh=10 dv=0
EndChar

StartChar: Z
Encoding: 90 90 98
Width: 595
GlyphClass: 2
Flags: MW
HStem: 0 48<79 494> 638 48<112 494 105 583>
VStem: -9 592
LayerCount: 2
Fore
SplineSet
-5 25 m 1
 494 638 l 1
 105 638 l 1
 112 686 l 1
 583 686 l 1
 579 662 l 1
 79 48 l 1
 501 48 l 1
 494 0 l 1
 -9 0 l 1
 -5 25 l 1
EndSplineSet
Position2: "'cpsp' Capital Spacing lookup 0 subtable" dx=5 dy=0 dh=10 dv=0
EndChar

StartChar: Zacute
Encoding: 377 377 99
Width: 595
GlyphClass: 2
Flags: MW
HStem: 0 48<79 494> 638 48<112 494 105 583> 750 145<327 509 327 509>
VStem: -9 592
LayerCount: 2
Fore
SplineSet
444 895 m 1
 509 895 l 1
 508 892 l 1
 377 750 l 1
 327 750 l 1
 444 895 l 1
-5 25 m 1
 494 638 l 1
 105 638 l 1
 112 686 l 1
 583 686 l 1
 579 662 l 1
 79 48 l 1
 501 48 l 1
 494 0 l 1
 -9 0 l 1
 -5 25 l 1
EndSplineSet
EndChar

StartChar: Zcaron
Encoding: 381 381 100
Width: 595
GlyphClass: 2
Flags: MW
HStem: 0 48<79 494> 638 48<112 494 105 583> 750 145<203 374 203 316>
VStem: -9 592
LayerCount: 2
Fore
SplineSet
263 895 m 1
 352 798 l 1
 469 895 l 1
 529 895 l 1
 374 750 l 1
 316 750 l 1
 203 895 l 1
 263 895 l 1
-5 25 m 1
 494 638 l 1
 105 638 l 1
 112 686 l 1
 583 686 l 1
 579 662 l 1
 79 48 l 1
 501 48 l 1
 494 0 l 1
 -9 0 l 1
 -5 25 l 1
EndSplineSet
Position2: "'cpsp' Capital Spacing lookup 0 subtable" dx=5 dy=0 dh=10 dv=0
EndChar

StartChar: Zdotaccent
Encoding: 379 379 101
Width: 595
GlyphClass: 2
Flags: MW
HStem: 0 48<79 494> 638 48<112 494 105 583> 779 132<368 394>
VStem: 314 134<834.5 855.5>
LayerCount: 2
Fore
SplineSet
448 854 m 0
 448 815 416 779 372 779 c 0
 340 779 314 803 314 835 c 0
 314 876 346 911 390 911 c 0
 424 911 448 886 448 854 c 0
-5 25 m 1
 494 638 l 1
 105 638 l 1
 112 686 l 1
 583 686 l 1
 579 662 l 1
 79 48 l 1
 501 48 l 1
 494 0 l 1
 -9 0 l 1
 -5 25 l 1
EndSplineSet
EndChar

StartChar: a
Encoding: 97 97 102
Width: 607
GlyphClass: 2
Flags: MW
HStem: -10 46<186.5 248 453.5 455.5> 475 46<213.5 323> 491 20G<466 499 499 499>
VStem: 42 51<135 254.5 135 267> 386 51<52 57.5>
LayerCount: 2
Fore
SplineSet
386 55 m 0xd8
 386 60 386 64 387 69 c 1
 342 15 284 -10 212 -10 c 0
 115 -10 42 50 42 190 c 0
 42 344 112 521 287 521 c 0
 359 521 412 490 438 440 c 1
 442 440 l 1xd8
 466 511 l 1
 499 511 l 1xb8
 499 511 437 73 437 61 c 0
 437 43 447 36 460 36 c 0
 475 36 496 43 513 52 c 1
 507 9 l 1
 488 -3 467 -10 444 -10 c 0
 400 -10 386 21 386 55 c 0xd8
224 36 m 0
 368 36 418 187 418 321 c 0
 418 428 361 475 285 475 c 0
 142 475 93 316 93 193 c 0
 93 77 149 36 224 36 c 0
EndSplineSet
Substitution2: "Single Substitution lookup 5 subtable" ordfeminine
Substitution2: "'aalt' Access All Alternates lookup 0 subtable" ordfeminine
EndChar

StartChar: aacute
Encoding: 225 225 103
Width: 607
GlyphClass: 2
Flags: MW
HStem: -10 46<186.5 248 453.5 455.5> 475 46<213.5 323> 491 20G<466 499 499 499> 575 145<285 467 285 467>
VStem: 42 51<135 254.5 135 267> 386 51<52 57.5>
LayerCount: 2
Fore
SplineSet
402 720 m 1xdc
 467 720 l 1
 466 717 l 1
 335 575 l 1
 285 575 l 1
 402 720 l 1xdc
386 55 m 0
 386 60 386 64 387 69 c 1
 342 15 284 -10 212 -10 c 0
 115 -10 42 50 42 190 c 0
 42 344 112 521 287 521 c 0
 359 521 412 490 438 440 c 1
 442 440 l 1xdc
 466 511 l 1
 499 511 l 1xbc
 499 511 437 73 437 61 c 0
 437 43 447 36 460 36 c 0
 475 36 496 43 513 52 c 1
 507 9 l 1
 488 -3 467 -10 444 -10 c 0
 400 -10 386 21 386 55 c 0
224 36 m 0
 368 36 418 187 418 321 c 0
 418 428 361 475 285 475 c 0
 142 475 93 316 93 193 c 0
 93 77 149 36 224 36 c 0
EndSplineSet
EndChar

StartChar: abreve
Encoding: 259 259 104
Width: 607
GlyphClass: 2
Flags: MW
HStem: -10 46<186.5 248 453.5 455.5> 475 46<213.5 323> 491 20G<466 499 499 499> 613 49<260.5 325.5 260.5 339.5>
VStem: 42 51<135 254.5 135 267> 386 51<52 57.5>
LayerCount: 2
Fore
SplineSet
286 613 m 0xdc
 185 613 110 674 110 729 c 0
 110 731 110 734 111 737 c 2
 167 737 l 1
 176 687 228 662 293 662 c 0
 358 662 416 687 440 737 c 1
 496 737 l 1
 488 680 393 613 286 613 c 0xdc
386 55 m 0
 386 60 386 64 387 69 c 1
 342 15 284 -10 212 -10 c 0
 115 -10 42 50 42 190 c 0
 42 344 112 521 287 521 c 0
 359 521 412 490 438 440 c 1
 442 440 l 1xdc
 466 511 l 1
 499 511 l 1xbc
 499 511 437 73 437 61 c 0
 437 43 447 36 460 36 c 0
 475 36 496 43 513 52 c 1
 507 9 l 1
 488 -3 467 -10 444 -10 c 0
 400 -10 386 21 386 55 c 0
224 36 m 0
 368 36 418 187 418 321 c 0
 418 428 361 475 285 475 c 0
 142 475 93 316 93 193 c 0
 93 77 149 36 224 36 c 0
EndSplineSet
EndChar

StartChar: acircumflex
Encoding: 226 226 105
Width: 607
GlyphClass: 2
Flags: MW
HStem: -10 46<186.5 248 453.5 455.5> 475 46<213.5 323> 491 20G<466 499 499 499> 575 145<154 367 309 480 309 420>
VStem: 42 51<135 254.5 135 267> 386 51<52 57.5>
LayerCount: 2
Fore
SplineSet
367 720 m 1xdc
 480 575 l 1
 420 575 l 1
 331 672 l 1
 214 575 l 1
 154 575 l 1
 309 720 l 1
 367 720 l 1xdc
386 55 m 0
 386 60 386 64 387 69 c 1
 342 15 284 -10 212 -10 c 0
 115 -10 42 50 42 190 c 0
 42 344 112 521 287 521 c 0
 359 521 412 490 438 440 c 1
 442 440 l 1xdc
 466 511 l 1
 499 511 l 1xbc
 499 511 437 73 437 61 c 0
 437 43 447 36 460 36 c 0
 475 36 496 43 513 52 c 1
 507 9 l 1
 488 -3 467 -10 444 -10 c 0
 400 -10 386 21 386 55 c 0
224 36 m 0
 368 36 418 187 418 321 c 0
 418 428 361 475 285 475 c 0
 142 475 93 316 93 193 c 0
 93 77 149 36 224 36 c 0
EndSplineSet
EndChar

StartChar: adieresis
Encoding: 228 228 106
Width: 607
GlyphClass: 2
Flags: MW
HStem: -10 46<186.5 248 453.5 455.5> 475 46<213.5 323> 491 20G<466 499 499 499> 651 69<217 273 208 282 393 449>
VStem: 42 51<135 254.5 135 267> 212.5 65 386 51<52 57.5> 388.5 65
LayerCount: 2
Fore
SplineSet
282 720 m 1xde
 273 651 l 1
 208 651 l 1
 217 720 l 1
 282 720 l 1xde
458 720 m 1xdd
 449 651 l 1
 384 651 l 1
 393 720 l 1
 458 720 l 1xdd
386 55 m 0xbe
 386 60 386 64 387 69 c 1
 342 15 284 -10 212 -10 c 0
 115 -10 42 50 42 190 c 0
 42 344 112 521 287 521 c 0
 359 521 412 490 438 440 c 1
 442 440 l 1xde
 466 511 l 1
 499 511 l 1
 499 511 437 73 437 61 c 0
 437 43 447 36 460 36 c 0
 475 36 496 43 513 52 c 1
 507 9 l 1
 488 -3 467 -10 444 -10 c 0
 400 -10 386 21 386 55 c 0xbe
224 36 m 0
 368 36 418 187 418 321 c 0
 418 428 361 475 285 475 c 0
 142 475 93 316 93 193 c 0xde
 93 77 149 36 224 36 c 0
EndSplineSet
EndChar

StartChar: agrave
Encoding: 224 224 107
Width: 607
GlyphClass: 2
Flags: MW
HStem: -10 46<186.5 248 453.5 455.5> 475 46<213.5 323> 491 20G<466 499 499 499> 575 145<197 337 197 287>
VStem: 42 51<135 254.5 135 267> 386 51<52 57.5>
LayerCount: 2
Fore
SplineSet
196 717 m 1xdc
 197 720 l 1
 262 720 l 1
 337 575 l 1
 287 575 l 1
 196 717 l 1xdc
386 55 m 0
 386 60 386 64 387 69 c 1
 342 15 284 -10 212 -10 c 0
 115 -10 42 50 42 190 c 0
 42 344 112 521 287 521 c 0
 359 521 412 490 438 440 c 1
 442 440 l 1xdc
 466 511 l 1
 499 511 l 1xbc
 499 511 437 73 437 61 c 0
 437 43 447 36 460 36 c 0
 475 36 496 43 513 52 c 1
 507 9 l 1
 488 -3 467 -10 444 -10 c 0
 400 -10 386 21 386 55 c 0
224 36 m 0
 368 36 418 187 418 321 c 0
 418 428 361 475 285 475 c 0
 142 475 93 316 93 193 c 0
 93 77 149 36 224 36 c 0
EndSplineSet
EndChar

StartChar: amacron
Encoding: 257 257 108
Width: 607
GlyphClass: 2
Flags: MW
HStem: -10 46<186.5 248 453.5 455.5> 475 46<213.5 323> 491 20G<466 499 499 499> 691 45<153 463 145 471>
VStem: 42 51<135 254.5 135 267> 386 51<52 57.5>
LayerCount: 2
Fore
SplineSet
153 736 m 1xdc
 471 736 l 1
 463 691 l 1
 145 691 l 1
 153 736 l 1xdc
386 55 m 0
 386 60 386 64 387 69 c 1
 342 15 284 -10 212 -10 c 0
 115 -10 42 50 42 190 c 0
 42 344 112 521 287 521 c 0
 359 521 412 490 438 440 c 1
 442 440 l 1xdc
 466 511 l 1
 499 511 l 1xbc
 499 511 437 73 437 61 c 0
 437 43 447 36 460 36 c 0
 475 36 496 43 513 52 c 1
 507 9 l 1
 488 -3 467 -10 444 -10 c 0
 400 -10 386 21 386 55 c 0
224 36 m 0
 368 36 418 187 418 321 c 0
 418 428 361 475 285 475 c 0
 142 475 93 316 93 193 c 0
 93 77 149 36 224 36 c 0
EndSplineSet
EndChar

StartChar: aogonek
Encoding: 261 261 109
Width: 607
GlyphClass: 2
Flags: MW
HStem: -143 43<469.5 483.5> -10 46<186.5 248> 0 21G<490 497 497 497> 475 46<213.5 323> 491 20G<466 499 499 499>
VStem: 42 51<135 254.5 135 267> 382 58<-80 -66.5> 386 51<52 57.5>
LayerCount: 2
Fore
SplineSet
548 -86 m 1xd5
 557 -119 l 1
 529 -135 498 -143 469 -143 c 0
 426 -143 382 -129 382 -83 c 0xd6
 382 -50 406 -27 432 -9 c 1
 397 -4 386 24 386 55 c 0
 386 60 386 64 387 69 c 1
 342 15 284 -10 212 -10 c 0
 115 -10 42 50 42 190 c 0
 42 344 112 521 287 521 c 0
 359 521 412 490 438 440 c 1
 442 440 l 1xd5
 466 511 l 1
 499 511 l 1
 499 511 437 73 437 61 c 0
 437 43 447 36 460 36 c 0
 475 36 496 43 513 52 c 1xcd
 507 9 l 1xb5
 502 6 496 3 490 0 c 2
 497 0 l 1
 493 -2 l 2
 469 -17 440 -36 440 -67 c 0
 440 -93 460 -100 479 -100 c 0xb6
 503 -100 526 -93 548 -86 c 1xd5
224 36 m 0
 368 36 418 187 418 321 c 0
 418 428 361 475 285 475 c 0
 142 475 93 316 93 193 c 0
 93 77 149 36 224 36 c 0
EndSplineSet
EndChar

StartChar: aring
Encoding: 229 229 110
Width: 607
GlyphClass: 2
Flags: MW
HStem: -10 46<186.5 248 453.5 455.5> 475 46<213.5 323> 491 20G<466 499 499 499> 555 36<303 338.5 303 346> 720 36<318.5 353.5>
VStem: 42 51<135 254.5 135 267> 226 36<630 666 630 675> 386 51<52 57.5> 394 36<644.5 681>
LayerCount: 2
Fore
SplineSet
430 670 m 0xde80
 430 607 378 555 314 555 c 0
 263 555 226 592 226 642 c 0
 226 708 283 756 343 756 c 0
 393 756 430 719 430 670 c 0xde80
319 591 m 0
 358 591 394 624 394 665 c 0
 394 697 369 720 338 720 c 0
 299 720 262 686 262 646 c 0
 262 614 287 591 319 591 c 0
386 55 m 0xbf
 386 60 386 64 387 69 c 1
 342 15 284 -10 212 -10 c 0
 115 -10 42 50 42 190 c 0
 42 344 112 521 287 521 c 0
 359 521 412 490 438 440 c 1
 442 440 l 1xdf
 466 511 l 1
 499 511 l 1
 499 511 437 73 437 61 c 0
 437 43 447 36 460 36 c 0
 475 36 496 43 513 52 c 1
 507 9 l 1
 488 -3 467 -10 444 -10 c 0
 400 -10 386 21 386 55 c 0xbf
224 36 m 0
 368 36 418 187 418 321 c 0
 418 428 361 475 285 475 c 0
 142 475 93 316 93 193 c 0xdf
 93 77 149 36 224 36 c 0
EndSplineSet
EndChar

StartChar: atilde
Encoding: 227 227 111
Width: 607
GlyphClass: 2
Flags: MW
HStem: -10 46<186.5 248 453.5 455.5> 475 46<213.5 323> 491 20G<466 499 499 499> 638 50<393 436.5 393 445.5> 670 50<226.5 270>
VStem: 42 51<135 254.5 135 267> 386 51<52 57.5>
LayerCount: 2
Fore
SplineSet
481 720 m 1xd6
 518 720 l 1
 514 688 485 638 406 638 c 0xb6
 342 638 297 670 243 670 c 0xce
 210 670 192 661 182 638 c 1
 145 638 l 1
 149 670 179 720 257 720 c 0
 321 720 366 688 420 688 c 0
 453 688 471 697 481 720 c 1xd6
386 55 m 0
 386 60 386 64 387 69 c 1
 342 15 284 -10 212 -10 c 0
 115 -10 42 50 42 190 c 0
 42 344 112 521 287 521 c 0
 359 521 412 490 438 440 c 1
 442 440 l 1xd6
 466 511 l 1
 499 511 l 1
 499 511 437 73 437 61 c 0
 437 43 447 36 460 36 c 0
 475 36 496 43 513 52 c 1
 507 9 l 1
 488 -3 467 -10 444 -10 c 0
 400 -10 386 21 386 55 c 0
224 36 m 0
 368 36 418 187 418 321 c 0
 418 428 361 475 285 475 c 0
 142 475 93 316 93 193 c 0xd6
 93 77 149 36 224 36 c 0
EndSplineSet
EndChar

StartChar: ae
Encoding: 230 230 112
Width: 895
GlyphClass: 2
Flags: MW
HStem: -10 46<159 220.5 550 629.5> 250 46<311 406 464 775 305.5 457> 475 46<263 345.5 620.5 686.5>
VStem: 39 51<90.5 181 90.5 196> 92 51 403.5 48.5 780 50<345 389.5>
LayerCount: 2
Fore
SplineSet
760 189 m 1
 810 189 l 1
 792 61 693 -10 583 -10 c 0
 496 -10 434 34 411 115 c 1
 355 22 259 -10 182 -10 c 0
 101 -10 39 16 39 111 c 0xf6
 39 281 199 296 412 296 c 1
 422 371 423 381 423 390 c 0
 423 454 387 475 304 475 c 0
 222 475 154 446 144 371 c 2
 142 355 l 1
 92 355 l 1
 92 355 93 372 94 381 c 0xee
 107 471 201 521 311 521 c 0
 407 521 461 492 473 430 c 1
 519 489 584 521 657 521 c 0
 758 521 830 461 830 351 c 0
 830 339 830 327 819 250 c 1
 457 250 l 1
 456 242 l 2
 453 224 452 208 452 192 c 0
 452 87 510 36 590 36 c 0
 669 36 745 84 760 189 c 1
650 475 m 0
 564 475 489 416 464 296 c 1
 775 296 l 1
 779 325 780 336 780 346 c 0
 780 433 723 475 650 475 c 0
401 216 m 2
 406 250 l 1
 216 250 90 243 90 119 c 0
 90 62 119 36 199 36 c 0
 286 36 383 92 401 216 c 2
EndSplineSet
EndChar

StartChar: b
Encoding: 98 98 113
Width: 582
GlyphClass: 2
Flags: MW
HStem: -10 46<219 306 219 345.5> 0 21G<42 63 42 42> 475 46<293 354.5>
VStem: 449 52<257 375>
LayerCount: 2
Fore
SplineSet
194 720 m 1xb0
 154 440 l 1
 194 490 257 521 329 521 c 0
 428 521 501 452 501 324 c 0
 501 190 437 -10 254 -10 c 0
 176 -10 123 21 94 85 c 1xb0
 63 0 l 1
 42 0 l 1x70
 143 720 l 1
 194 720 l 1xb0
317 475 m 0
 176 475 123 327 123 192 c 0
 123 74 182 36 256 36 c 0
 356 36 449 130 449 322 c 0
 449 428 392 475 317 475 c 0
EndSplineSet
EndChar

StartChar: c
Encoding: 99 99 114
Width: 546
GlyphClass: 2
Flags: MW
HStem: -10 46<191 271.5 191 280> 475 46<218.5 327.5>
VStem: 42 51<139.5 257.5 139.5 270.5> 421 50<345 389.5>
AnchorPoint: "Bottom" 237 0 basechar 0
LayerCount: 2
Fore
SplineSet
402 197 m 1
 452 197 l 1
 434 64 336 -10 224 -10 c 0
 113 -10 42 62 42 191 c 0
 42 350 121 521 298 521 c 0
 399 521 471 461 471 351 c 0
 471 339 471 327 469 314 c 1
 419 314 l 1
 420 325 421 336 421 346 c 0
 421 433 364 475 291 475 c 0
 146 475 93 323 93 192 c 0
 93 87 151 36 231 36 c 0
 312 36 387 86 402 197 c 1
EndSplineSet
EndChar

StartChar: cacute
Encoding: 263 263 115
Width: 546
GlyphClass: 2
Flags: MW
HStem: -10 46<191 271.5 191 280> 475 46<218.5 327.5> 575 145<257 439 257 439>
VStem: 42 51<139.5 257.5 139.5 270.5> 421 50<345 389.5>
AnchorPoint: "Bottom" 237 0 basechar 0
LayerCount: 2
Fore
SplineSet
374 720 m 1
 439 720 l 1
 438 717 l 1
 307 575 l 1
 257 575 l 1
 374 720 l 1
402 197 m 1
 452 197 l 1
 434 64 336 -10 224 -10 c 0
 113 -10 42 62 42 191 c 0
 42 350 121 521 298 521 c 0
 399 521 471 461 471 351 c 0
 471 339 471 327 469 314 c 1
 419 314 l 1
 420 325 421 336 421 346 c 0
 421 433 364 475 291 475 c 0
 146 475 93 323 93 192 c 0
 93 87 151 36 231 36 c 0
 312 36 387 86 402 197 c 1
EndSplineSet
EndChar

StartChar: ccaron
Encoding: 269 269 116
Width: 546
GlyphClass: 2
Flags: MW
HStem: -10 46<191 271.5 191 280> 475 46<218.5 327.5> 575 145<145 316 145 258>
VStem: 42 51<139.5 257.5 139.5 270.5> 421 50<345 389.5>
AnchorPoint: "Bottom" 237 0 basechar 0
LayerCount: 2
Fore
SplineSet
205 720 m 1
 294 623 l 1
 411 720 l 1
 471 720 l 1
 316 575 l 1
 258 575 l 1
 145 720 l 1
 205 720 l 1
402 197 m 1
 452 197 l 1
 434 64 336 -10 224 -10 c 0
 113 -10 42 62 42 191 c 0
 42 350 121 521 298 521 c 0
 399 521 471 461 471 351 c 0
 471 339 471 327 469 314 c 1
 419 314 l 1
 420 325 421 336 421 346 c 0
 421 433 364 475 291 475 c 0
 146 475 93 323 93 192 c 0
 93 87 151 36 231 36 c 0
 312 36 387 86 402 197 c 1
EndSplineSet
EndChar

StartChar: ccedilla
Encoding: 231 231 117
Width: 546
GlyphClass: 2
Flags: MW
HStem: -197 46<171.5 199 164.5 208> -184 21G<108 108> -51 34<196 213 191 225.5> -10 46<191 271.5 191 280> 475 46<218.5 327.5>
VStem: 42 51<139.5 257.5 139.5 270.5> 265 51<-115 -77.5> 421 50<345 389.5>
LayerCount: 2
Fore
SplineSet
402 197 m 1x9f
 452 197 l 1
 434 64 336 -10 224 -10 c 0
 113 -10 42 62 42 191 c 0
 42 350 121 521 298 521 c 0
 399 521 471 461 471 351 c 0
 471 339 471 327 469 314 c 1
 419 314 l 1
 420 325 421 336 421 346 c 0
 421 433 364 475 291 475 c 0
 146 475 93 323 93 192 c 0
 93 87 151 36 231 36 c 0
 312 36 387 86 402 197 c 1x9f
108 -184 m 1x5f
 114 -138 l 1
 126 -145 148 -151 181 -151 c 0
 217 -151 265 -139 265 -91 c 0
 265 -64 238 -51 213 -51 c 2
 191 -51 l 1
 196 -17 l 1
 255 -17 316 -22 316 -90 c 0
 316 -177 232 -197 184 -197 c 0xaf
 159 -197 130 -193 108 -184 c 1x5f
EndSplineSet
EndChar

StartChar: d
Encoding: 100 100 118
Width: 612
GlyphClass: 2
Flags: MW
HStem: -10 46<186.5 248 453.5 455.5> 475 46<213.5 323>
VStem: 42 51<135 254.5 135 267> 386 51<52 57.5>
LayerCount: 2
Fore
SplineSet
386 55 m 0
 386 60 386 64 387 69 c 1
 342 15 284 -10 212 -10 c 0
 115 -10 42 50 42 190 c 0
 42 344 112 521 287 521 c 0
 359 521 412 490 438 440 c 1
 478 720 l 1
 529 720 l 1
 529 720 437 73 437 61 c 0
 437 43 447 36 460 36 c 0
 475 36 496 43 513 52 c 1
 507 9 l 1
 488 -3 467 -10 444 -10 c 0
 400 -10 386 21 386 55 c 0
224 36 m 0
 368 36 418 187 418 321 c 0
 418 428 361 475 285 475 c 0
 142 475 93 316 93 193 c 0
 93 77 149 36 224 36 c 0
EndSplineSet
EndChar

StartChar: eth
Encoding: 240 240 119
Width: 576
GlyphClass: 2
Flags: MW
HStem: -10 46<208.5 320.5 208.5 338> 475 46<235 331.5 224 351> 668 20G<443 443>
VStem: 59 50<141.5 257.5 141.5 264.5> 451 50<254 370.5>
LayerCount: 2
Fore
SplineSet
187 707 m 1
 226 724 l 1
 253 706 283 684 312 661 c 1
 423 711 l 1
 443 688 l 1
 337 640 l 1
 429 560 501 452 501 318 c 0
 501 175 433 -10 243 -10 c 0
 132 -10 59 62 59 192 c 0
 59 337 130 521 318 521 c 0
 345 521 369 516 391 508 c 1
 362 549 328 587 293 620 c 1
 184 570 l 1
 162 593 l 1
 270 642 l 1
 238 669 208 691 187 707 c 1
249 36 m 0
 392 36 451 191 451 317 c 0
 451 424 391 475 311 475 c 0
 159 475 109 320 109 195 c 0
 109 88 168 36 249 36 c 0
EndSplineSet
EndChar

StartChar: dcaron
Encoding: 271 271 120
Width: 612
GlyphClass: 2
Flags: MW
HStem: -10 46<186.5 248 453.5 455.5> 475 46<213.5 323> 496 20G<586 620 586 586.5> 516 170<608 620 586 673> 617 69<608 623 599 673>
VStem: 42 51<135 254.5 135 267> 386 51<52 57.5> 603.5 65.5
LayerCount: 2
Fore
SplineSet
386 55 m 0xcf
 386 60 386 64 387 69 c 1
 342 15 284 -10 212 -10 c 0
 115 -10 42 50 42 190 c 0
 42 344 112 521 287 521 c 0
 359 521 412 490 438 440 c 1
 478 720 l 1
 529 720 l 1
 529 720 437 73 437 61 c 0
 437 43 447 36 460 36 c 0
 475 36 496 43 513 52 c 1
 507 9 l 1
 488 -3 467 -10 444 -10 c 0
 400 -10 386 21 386 55 c 0xcf
620 516 m 1x97
 586 516 l 2
 587 516 623 617 623 617 c 1
 599 617 l 1
 608 686 l 1
 673 686 l 1
 665 628 l 1xaf
 620 516 l 1x97
224 36 m 0
 368 36 418 187 418 321 c 0
 418 428 361 475 285 475 c 0xcf
 142 475 93 316 93 193 c 0
 93 77 149 36 224 36 c 0
EndSplineSet
EndChar

StartChar: dcroat
Encoding: 273 273 121
Width: 612
GlyphClass: 2
Flags: MW
HStem: -10 46<186.5 248 453.5 455.5> 475 46<213.5 323> 623 43<251 464 245 470 521 627>
VStem: 42 51<135 254.5 135 267> 386 51<52 57.5> 474 51
LayerCount: 2
Fore
SplineSet
627 623 m 1
 515 623 l 1
 490 442 437 70 437 61 c 0
 437 43 447 36 460 36 c 0
 475 36 496 43 513 52 c 1
 507 9 l 1
 488 -3 467 -10 444 -10 c 0
 400 -10 386 21 386 55 c 0
 386 60 386 64 387 69 c 1
 342 15 284 -10 212 -10 c 0
 115 -10 42 50 42 190 c 0
 42 344 112 521 287 521 c 0
 359 521 412 490 438 440 c 1
 464 623 l 1
 245 623 l 1
 251 666 l 1
 470 666 l 1
 478 720 l 1
 529 720 l 1
 521 666 l 1
 633 666 l 1
 627 623 l 1
224 36 m 0
 368 36 418 187 418 321 c 0
 418 428 361 475 285 475 c 0
 142 475 93 316 93 193 c 0
 93 77 149 36 224 36 c 0
EndSplineSet
EndChar

StartChar: e
Encoding: 101 101 122
Width: 556
GlyphClass: 2
Flags: MW
HStem: -10 46<190 273 190 282.5> 250 46<104 415 104 459 97 415> 475 46<247 326.5>
VStem: 41 51<139.5 200 139.5 269.5> 420 50<345 389.5>
AnchorPoint: "Bottom" 242 0 basechar 0
LayerCount: 2
Fore
SplineSet
400 189 m 1
 450 189 l 1
 432 61 342 -10 223 -10 c 0
 112 -10 41 62 41 191 c 0
 41 348 118 521 297 521 c 0
 398 521 470 461 470 351 c 0
 470 339 466 280 459 250 c 1
 97 250 l 1
 93 224 92 208 92 192 c 0
 92 87 150 36 230 36 c 0
 316 36 385 84 400 189 c 1
290 475 m 0
 204 475 129 416 104 296 c 1
 415 296 l 1
 420 325 420 336 420 346 c 0
 420 433 363 475 290 475 c 0
EndSplineSet
EndChar

StartChar: eacute
Encoding: 233 233 123
Width: 556
GlyphClass: 2
Flags: MW
HStem: -10 46<190 273 190 282.5> 250 46<104 415 104 459 97 415> 475 46<247 326.5> 575 145<279 461 279 461>
VStem: 41 51<139.5 200 139.5 269.5> 420 50<345 389.5>
LayerCount: 2
Fore
SplineSet
396 720 m 1
 461 720 l 1
 460 717 l 1
 329 575 l 1
 279 575 l 1
 396 720 l 1
400 189 m 1
 450 189 l 1
 432 61 342 -10 223 -10 c 0
 112 -10 41 62 41 191 c 0
 41 348 118 521 297 521 c 0
 398 521 470 461 470 351 c 0
 470 339 466 280 459 250 c 1
 97 250 l 1
 93 224 92 208 92 192 c 0
 92 87 150 36 230 36 c 0
 316 36 385 84 400 189 c 1
290 475 m 0
 204 475 129 416 104 296 c 1
 415 296 l 1
 420 325 420 336 420 346 c 0
 420 433 363 475 290 475 c 0
EndSplineSet
EndChar

StartChar: ecaron
Encoding: 283 283 124
Width: 556
GlyphClass: 2
Flags: MW
HStem: -10 46<190 273 190 282.5> 250 46<104 415 104 459 97 415> 475 46<247 326.5> 575 145<140 311 140 253>
VStem: 41 51<139.5 200 139.5 269.5> 420 50<345 389.5>
AnchorPoint: "Bottom" 242 0 basechar 0
LayerCount: 2
Fore
SplineSet
200 720 m 1
 289 623 l 1
 406 720 l 1
 466 720 l 1
 311 575 l 1
 253 575 l 1
 140 720 l 1
 200 720 l 1
400 189 m 1
 450 189 l 1
 432 61 342 -10 223 -10 c 0
 112 -10 41 62 41 191 c 0
 41 348 118 521 297 521 c 0
 398 521 470 461 470 351 c 0
 470 339 466 280 459 250 c 1
 97 250 l 1
 93 224 92 208 92 192 c 0
 92 87 150 36 230 36 c 0
 316 36 385 84 400 189 c 1
290 475 m 0
 204 475 129 416 104 296 c 1
 415 296 l 1
 420 325 420 336 420 346 c 0
 420 433 363 475 290 475 c 0
EndSplineSet
EndChar

StartChar: ecircumflex
Encoding: 234 234 125
Width: 556
GlyphClass: 2
Flags: MW
HStem: -10 46<190 273 190 282.5> 250 46<104 415 104 459 97 415> 475 46<247 326.5> 575 145<152 365 307 478 307 418>
VStem: 41 51<139.5 200 139.5 269.5> 420 50<345 389.5>
LayerCount: 2
Fore
SplineSet
365 720 m 1
 478 575 l 1
 418 575 l 1
 329 672 l 1
 212 575 l 1
 152 575 l 1
 307 720 l 1
 365 720 l 1
400 189 m 1
 450 189 l 1
 432 61 342 -10 223 -10 c 0
 112 -10 41 62 41 191 c 0
 41 348 118 521 297 521 c 0
 398 521 470 461 470 351 c 0
 470 339 466 280 459 250 c 1
 97 250 l 1
 93 224 92 208 92 192 c 0
 92 87 150 36 230 36 c 0
 316 36 385 84 400 189 c 1
290 475 m 0
 204 475 129 416 104 296 c 1
 415 296 l 1
 420 325 420 336 420 346 c 0
 420 433 363 475 290 475 c 0
EndSplineSet
EndChar

StartChar: edieresis
Encoding: 235 235 126
Width: 556
GlyphClass: 2
Flags: MW
HStem: -10 46<190 273 190 282.5> 250 46<104 415 104 459 97 415> 475 46<247 326.5> 651 69<211 267 202 276 387 443>
VStem: 41 51<139.5 200 139.5 269.5> 206.5 65 382.5 65 420 50<345 389.5>
LayerCount: 2
Fore
SplineSet
276 720 m 1xfd
 267 651 l 1
 202 651 l 1
 211 720 l 1
 276 720 l 1xfd
452 720 m 1xfe
 443 651 l 1
 378 651 l 1
 387 720 l 1
 452 720 l 1xfe
400 189 m 1
 450 189 l 1
 432 61 342 -10 223 -10 c 0
 112 -10 41 62 41 191 c 0
 41 348 118 521 297 521 c 0
 398 521 470 461 470 351 c 0
 470 339 466 280 459 250 c 1xfd
 97 250 l 1
 93 224 92 208 92 192 c 0
 92 87 150 36 230 36 c 0
 316 36 385 84 400 189 c 1
290 475 m 0
 204 475 129 416 104 296 c 1
 415 296 l 1
 420 325 420 336 420 346 c 0
 420 433 363 475 290 475 c 0
EndSplineSet
EndChar

StartChar: edotaccent
Encoding: 279 279 127
Width: 556
GlyphClass: 2
Flags: MW
HStem: -10 46<190 273 190 282.5> 250 46<104 415 104 459 97 415> 475 46<247 326.5> 604 132<293 319>
VStem: 41 51<139.5 200 139.5 269.5> 239 134<659.5 680.5> 420 50<345 389.5>
AnchorPoint: "Bottom" 242 0 basechar 0
LayerCount: 2
Fore
SplineSet
373 679 m 0
 373 640 341 604 297 604 c 0
 265 604 239 628 239 660 c 0
 239 701 271 736 315 736 c 0
 349 736 373 711 373 679 c 0
400 189 m 1
 450 189 l 1
 432 61 342 -10 223 -10 c 0
 112 -10 41 62 41 191 c 0
 41 348 118 521 297 521 c 0
 398 521 470 461 470 351 c 0
 470 339 466 280 459 250 c 1
 97 250 l 1
 93 224 92 208 92 192 c 0
 92 87 150 36 230 36 c 0
 316 36 385 84 400 189 c 1
290 475 m 0
 204 475 129 416 104 296 c 1
 415 296 l 1
 420 325 420 336 420 346 c 0
 420 433 363 475 290 475 c 0
EndSplineSet
EndChar

StartChar: egrave
Encoding: 232 232 128
Width: 556
GlyphClass: 2
Flags: MW
HStem: -10 46<190 273 190 282.5> 250 46<104 415 104 459 97 415> 475 46<247 326.5> 575 145<202 342 202 292>
VStem: 41 51<139.5 200 139.5 269.5> 420 50<345 389.5>
LayerCount: 2
Fore
SplineSet
201 717 m 1
 202 720 l 1
 267 720 l 1
 342 575 l 1
 292 575 l 1
 201 717 l 1
400 189 m 1
 450 189 l 1
 432 61 342 -10 223 -10 c 0
 112 -10 41 62 41 191 c 0
 41 348 118 521 297 521 c 0
 398 521 470 461 470 351 c 0
 470 339 466 280 459 250 c 1
 97 250 l 1
 93 224 92 208 92 192 c 0
 92 87 150 36 230 36 c 0
 316 36 385 84 400 189 c 1
290 475 m 0
 204 475 129 416 104 296 c 1
 415 296 l 1
 420 325 420 336 420 346 c 0
 420 433 363 475 290 475 c 0
EndSplineSet
EndChar

StartChar: emacron
Encoding: 275 275 129
Width: 556
GlyphClass: 2
Flags: MW
HStem: -10 46<190 273 190 282.5> 250 46<104 415 104 459 97 415> 475 46<247 326.5> 691 45<157 467 149 475>
VStem: 41 51<139.5 200 139.5 269.5> 420 50<345 389.5>
AnchorPoint: "Bottom" 242 0 basechar 0
LayerCount: 2
Fore
SplineSet
157 736 m 1
 475 736 l 1
 467 691 l 1
 149 691 l 1
 157 736 l 1
400 189 m 1
 450 189 l 1
 432 61 342 -10 223 -10 c 0
 112 -10 41 62 41 191 c 0
 41 348 118 521 297 521 c 0
 398 521 470 461 470 351 c 0
 470 339 466 280 459 250 c 1
 97 250 l 1
 93 224 92 208 92 192 c 0
 92 87 150 36 230 36 c 0
 316 36 385 84 400 189 c 1
290 475 m 0
 204 475 129 416 104 296 c 1
 415 296 l 1
 420 325 420 336 420 346 c 0
 420 433 363 475 290 475 c 0
EndSplineSet
EndChar

StartChar: eogonek
Encoding: 281 281 130
Width: 556
GlyphClass: 2
Flags: MW
HStem: -143 43<273.5 287.5> -10 46<190 223 223 236> 0 21G<296 301 301 301> 250 46<104 415 104 459 97 415> 475 46<247 326.5>
VStem: 41 51<139.5 200 139.5 269.5> 186 58<-80 -66.5> 420 50<345 389.5>
AnchorPoint: "Bottom" 242 0 basechar 0
LayerCount: 2
Fore
SplineSet
459 250 m 1xdf
 97 250 l 1
 93 224 92 208 92 192 c 0
 92 87 150 36 230 36 c 0xdf
 316 36 385 84 400 189 c 1
 450 189 l 1
 436 89 378 24 296 0 c 1
 301 0 l 1
 297 -2 l 2xbf
 273 -17 244 -36 244 -67 c 0
 244 -93 264 -100 283 -100 c 0
 307 -100 330 -93 352 -86 c 1
 361 -119 l 1
 333 -135 302 -143 273 -143 c 0
 230 -143 186 -129 186 -83 c 0
 186 -50 209 -27 236 -10 c 1
 223 -10 l 2
 112 -10 41 62 41 191 c 0
 41 348 118 521 297 521 c 0
 398 521 470 461 470 351 c 0
 470 339 466 280 459 250 c 1xdf
290 475 m 0
 204 475 129 416 104 296 c 1
 415 296 l 1
 420 325 420 336 420 346 c 0
 420 433 363 475 290 475 c 0
EndSplineSet
EndChar

StartChar: f
Encoding: 102 102 131
Width: 340
GlyphClass: 2
Flags: MW
HStem: -186 46<-21.5 0 -21.5 18> 465 46<72 134 78 128 78 179 185 298> 682 46<252 273.5>
VStem: -80 412
LayerCount: 2
Fore
SplineSet
72 465 m 1
 78 511 l 1
 134 511 l 1
 149 617 l 2
 160 694 208 728 267 728 c 0
 292 728 317 721 332 711 c 1
 326 666 l 1
 311 673 281 682 266 682 c 0
 238 682 208 674 200 615 c 2
 185 511 l 1
 304 511 l 1
 298 465 l 1
 179 465 l 1
 103 -75 l 2
 92 -152 51 -186 -15 -186 c 0
 -40 -186 -65 -179 -80 -169 c 1
 -74 -124 l 1
 -59 -131 -29 -140 -14 -140 c 0
 14 -140 44 -132 52 -73 c 2
 128 465 l 1
 72 465 l 1
EndSplineSet
EndChar

StartChar: g
Encoding: 103 103 132
Width: 583
GlyphClass: 2
Flags: MW
HStem: -186 47<180.5 256 180.5 278.5> 10 46<192 254> 475 46<220.5 328> 491 20G<484 505 505 505>
VStem: 21 52<-59 -22> 46 52<150 263.5 150 272.5>
LayerCount: 2
Fore
SplineSet
21 -22 m 1xd8
 73 -22 l 1xe8
 73 -106 146 -139 215 -139 c 0
 297 -139 370 -91 384 8 c 2
 396 91 l 1
 355 41 290 10 218 10 c 0
 119 10 46 77 46 196 c 0
 46 349 119 521 293 521 c 0
 371 521 424 490 453 426 c 1xe4
 484 511 l 1
 505 511 l 1
 435 17 l 2
 418 -103 349 -186 208 -186 c 0
 72 -186 21 -96 21 -22 c 1xd8
230 56 m 0
 374 56 424 195 424 319 c 0
 424 437 365 475 291 475 c 0
 150 475 98 328 98 199 c 0xe4
 98 101 154 56 230 56 c 0
EndSplineSet
EndChar

StartChar: gbreve
Encoding: 287 287 133
Width: 583
GlyphClass: 2
Flags: MW
HStem: -186 47<180.5 256 180.5 278.5> 10 46<192 254> 475 46<220.5 328> 491 20G<484 505 505 505> 613 49<278.5 343.5 278.5 357.5>
VStem: 21 52<-59 -22> 46 52<150 263.5 150 272.5>
LayerCount: 2
Fore
SplineSet
304 613 m 0xea
 203 613 128 674 128 729 c 0
 128 731 128 734 129 737 c 2
 185 737 l 1
 194 687 246 662 311 662 c 0
 376 662 434 687 458 737 c 1
 514 737 l 1
 506 680 411 613 304 613 c 0xea
21 -22 m 1xdc
 73 -22 l 1xec
 73 -106 146 -139 215 -139 c 0
 297 -139 370 -91 384 8 c 2
 396 91 l 1
 355 41 290 10 218 10 c 0
 119 10 46 77 46 196 c 0
 46 349 119 521 293 521 c 0
 371 521 424 490 453 426 c 1xea
 484 511 l 1
 505 511 l 1
 435 17 l 2
 418 -103 349 -186 208 -186 c 0
 72 -186 21 -96 21 -22 c 1xdc
230 56 m 0
 374 56 424 195 424 319 c 0
 424 437 365 475 291 475 c 0
 150 475 98 328 98 199 c 0xea
 98 101 154 56 230 56 c 0
EndSplineSet
EndChar

StartChar: gcommaaccent
Encoding: 291 291 134
Width: 583
GlyphClass: 2
Flags: MW
HStem: -186 47<180.5 256 180.5 278.5> 10 46<192 254> 475 46<220.5 328> 491 20G<484 505 505 505> 591 69<329 344 279 353>
VStem: 21 52<-59 -22> 46 52<150 263.5 150 272.5> 283 65.5
LayerCount: 2
Fore
SplineSet
333 761 m 1xeb
 367 761 l 2
 366 761 329 660 329 660 c 1
 353 660 l 1
 344 591 l 1
 279 591 l 1
 287 649 l 1
 333 761 l 1xeb
21 -22 m 1xdd
 73 -22 l 1xed
 73 -106 146 -139 215 -139 c 0
 297 -139 370 -91 384 8 c 2
 396 91 l 1
 355 41 290 10 218 10 c 0
 119 10 46 77 46 196 c 0
 46 349 119 521 293 521 c 0
 371 521 424 490 453 426 c 1xeb
 484 511 l 1
 505 511 l 1
 435 17 l 2
 418 -103 349 -186 208 -186 c 0
 72 -186 21 -96 21 -22 c 1xdd
230 56 m 0
 374 56 424 195 424 319 c 0
 424 437 365 475 291 475 c 0
 150 475 98 328 98 199 c 0xeb
 98 101 154 56 230 56 c 0
EndSplineSet
EndChar

StartChar: h
Encoding: 104 104 135
Width: 593
GlyphClass: 2
Flags: MW
HStem: 0 21G<42 93 42 42 394 445 394 394> 475 46<298.5 356>
VStem: 441 53<351.5 395.5>
LayerCount: 2
Fore
SplineSet
445 0 m 1
 394 0 l 1
 440 328 441 329 441 354 c 0
 441 437 395 475 317 475 c 0
 227 475 150 406 137 314 c 2
 93 0 l 1
 42 0 l 1
 143 720 l 1
 194 720 l 1
 155 439 l 1
 197 493 269 521 328 521 c 0
 423 521 494 473 494 368 c 0
 494 335 493 343 445 0 c 1
EndSplineSet
EndChar

StartChar: i
Encoding: 105 105 136
Width: 260
GlyphClass: 2
Flags: MW
HStem: 0 21G<42 93 42 42> 491 20G<114 165 165 165> 666 54<139 191 132 198>
VStem: 135.5 59
LayerCount: 2
Fore
SplineSet
198 720 m 1
 191 666 l 1
 132 666 l 1
 139 720 l 1
 198 720 l 1
114 511 m 1
 165 511 l 1
 93 0 l 1
 42 0 l 1
 114 511 l 1
EndSplineSet
EndChar

StartChar: dotlessi
Encoding: 305 305 137
Width: 261
GlyphClass: 2
Flags: MW
HStem: 0 21G<43 94 43 43> 491 20G<114 165 165 165>
VStem: 43 122
LayerCount: 2
Fore
SplineSet
114 511 m 1
 165 511 l 1
 94 0 l 1
 43 0 l 1
 114 511 l 1
EndSplineSet
EndChar

StartChar: iacute
Encoding: 237 237 138
Width: 261
GlyphClass: 2
Flags: MW
HStem: 0 21G<43 94 43 43> 491 20G<114 165 165 165> 575 145<117 299 117 299>
VStem: 43 256
LayerCount: 2
Fore
SplineSet
234 720 m 1
 299 720 l 1
 298 717 l 1
 167 575 l 1
 117 575 l 1
 234 720 l 1
114 511 m 1
 165 511 l 1
 94 0 l 1
 43 0 l 1
 114 511 l 1
EndSplineSet
EndChar

StartChar: icircumflex
Encoding: 238 238 139
Width: 261
GlyphClass: 2
Flags: MW
HStem: 0 21G<114 165 114 114> 491 20G<185 236 236 236> 575 145<53 266 208 379 208 319>
VStem: 53 326<575 575>
LayerCount: 2
Fore
SplineSet
266 720 m 1
 379 575 l 1
 319 575 l 1
 230 672 l 1
 113 575 l 1
 53 575 l 1
 208 720 l 1
 266 720 l 1
185 511 m 1
 236 511 l 1
 165 0 l 1
 114 0 l 1
 185 511 l 1
EndSplineSet
EndChar

StartChar: idieresis
Encoding: 239 239 140
Width: 261
GlyphClass: 2
Flags: MW
HStem: 0 21G<116 167 116 116> 491 20G<187 238 238 238> 651 69<112 168 103 177 288 344>
VStem: 107.5 65 283.5 65
LayerCount: 2
Fore
SplineSet
177 720 m 1
 168 651 l 1
 103 651 l 1
 112 720 l 1
 177 720 l 1
353 720 m 1
 344 651 l 1
 279 651 l 1
 288 720 l 1
 353 720 l 1
187 511 m 1
 238 511 l 1
 167 0 l 1
 116 0 l 1
 187 511 l 1
EndSplineSet
EndChar

StartChar: igrave
Encoding: 236 236 141
Width: 261
GlyphClass: 2
Flags: MW
HStem: 0 21G<110 161 110 110> 491 20G<181 232 232 232> 575 145<95 235 95 185>
VStem: 94 141
LayerCount: 2
Fore
SplineSet
94 717 m 1
 95 720 l 1
 160 720 l 1
 235 575 l 1
 185 575 l 1
 94 717 l 1
181 511 m 1
 232 511 l 1
 161 0 l 1
 110 0 l 1
 181 511 l 1
EndSplineSet
EndChar

StartChar: imacron
Encoding: 299 299 142
Width: 261
GlyphClass: 2
Flags: MW
HStem: 0 21G<43 94 43 43> 491 20G<114 165 165 165> 691 45<13 323 5 331>
VStem: 5 326<691 736>
LayerCount: 2
Fore
SplineSet
13 736 m 1
 331 736 l 1
 323 691 l 1
 5 691 l 1
 13 736 l 1
114 511 m 1
 165 511 l 1
 94 0 l 1
 43 0 l 1
 114 511 l 1
EndSplineSet
EndChar

StartChar: iogonek
Encoding: 303 303 143
Width: 261
GlyphClass: 2
Flags: MW
HStem: -143 43<61.5 75.5> 0 21G<39 43 43 43 89 94 89 89> 491 20G<114 165 165 165> 666 54<139 191 132 198>
VStem: -26 58<-80 -63.5> 135.5 59
LayerCount: 2
Fore
SplineSet
198 720 m 1
 191 666 l 1
 132 666 l 1
 139 720 l 1
 198 720 l 1
89 0 m 1
 85 -2 l 2
 61 -17 32 -36 32 -67 c 0
 32 -93 52 -100 71 -100 c 0
 95 -100 118 -93 140 -86 c 1
 149 -119 l 1
 121 -135 90 -143 61 -143 c 0
 18 -143 -26 -129 -26 -83 c 0
 -26 -44 7 -19 39 0 c 1
 43 0 l 1
 114 511 l 1
 165 511 l 1
 94 0 l 1
 89 0 l 1
EndSplineSet
EndChar

StartChar: j
Encoding: 106 106 144
Width: 260
GlyphClass: 2
Flags: MW
HStem: -186 46<-37.5 -17 -37.5 -0.5> 491 20G<118 169 169 169> 666 54<143 195 136 202>
VStem: 139.5 59
LayerCount: 2
Fore
SplineSet
202 720 m 1
 195 666 l 1
 136 666 l 1
 143 720 l 1
 202 720 l 1
169 511 m 1
 86 -75 l 2
 75 -152 29 -186 -30 -186 c 0
 -55 -186 -80 -179 -96 -169 c 1
 -89 -124 l 1
 -74 -131 -45 -140 -30 -140 c 0
 -4 -140 28 -132 36 -73 c 2
 118 511 l 1
 169 511 l 1
EndSplineSet
EndChar

StartChar: k
Encoding: 107 107 145
Width: 534
GlyphClass: 2
Flags: MW
HStem: 0 21G<42 93 42 42 397 397 397 463> 491 20G<455 518 518 518>
VStem: 42 476
AnchorPoint: "Bottom" 231 0 basechar 0
LayerCount: 2
Fore
SplineSet
111 127 m 1
 93 0 l 1
 42 0 l 1
 143 720 l 1
 194 720 l 1
 119 186 l 1
 455 511 l 1
 518 511 l 1
 269 270 l 1
 463 0 l 1
 397 0 l 1
 230 232 l 1
 111 127 l 1
EndSplineSet
EndChar

StartChar: kcommaaccent
Encoding: 311 311 146
Width: 534
GlyphClass: 2
Flags: MW
HStem: -149 69<185 200 176 250> 0 21G<42 93 42 42 397 397 397 463> 491 20G<455 518 518 518>
VStem: 180.5 65.5
AnchorPoint: "Bottom" 231 0 basechar 0
LayerCount: 2
Fore
SplineSet
111 127 m 1
 93 0 l 1
 42 0 l 1
 143 720 l 1
 194 720 l 1
 119 186 l 1
 455 511 l 1
 518 511 l 1
 269 270 l 1
 463 0 l 1
 397 0 l 1
 230 232 l 1
 111 127 l 1
196 -250 m 1
 162 -250 l 2
 163 -250 200 -149 200 -149 c 1
 176 -149 l 1
 185 -80 l 1
 250 -80 l 1
 242 -138 l 1
 196 -250 l 1
EndSplineSet
EndChar

StartChar: l
Encoding: 108 108 147
Width: 268
GlyphClass: 2
Flags: MW
HStem: 0 21G<46 97 46 46>
VStem: 46 152
AnchorPoint: "Bottom" 72 0 basechar 0
LayerCount: 2
Fore
SplineSet
147 720 m 1
 198 720 l 1
 97 0 l 1
 46 0 l 1
 147 720 l 1
EndSplineSet
EndChar

StartChar: lacute
Encoding: 314 314 148
Width: 268
GlyphClass: 2
Flags: MW
HStem: 0 21G<46 97 46 46> 750 145<138 320 138 320>
VStem: 46 274
AnchorPoint: "Bottom" 72 0 basechar 0
LayerCount: 2
Fore
SplineSet
255 895 m 1
 320 895 l 1
 319 892 l 1
 188 750 l 1
 138 750 l 1
 255 895 l 1
147 720 m 1
 198 720 l 1
 97 0 l 1
 46 0 l 1
 147 720 l 1
EndSplineSet
EndChar

StartChar: lcaron
Encoding: 318 318 149
Width: 268
GlyphClass: 2
Flags: MW
HStem: 0 21G<46 97 46 46> 496 20G<240 274 240 240.5> 516 170<262 274 240 327> 617 69<262 277 253 327>
VStem: 257.5 65.5
AnchorPoint: "Bottom" 72 0 basechar 0
LayerCount: 2
Fore
SplineSet
147 720 m 1xd8
 198 720 l 1
 97 0 l 1
 46 0 l 1
 147 720 l 1xd8
274 516 m 1xa8
 240 516 l 2
 241 516 277 617 277 617 c 1
 253 617 l 1
 262 686 l 1
 327 686 l 1
 319 628 l 1xd8
 274 516 l 1xa8
EndSplineSet
EndChar

StartChar: lcommaaccent
Encoding: 316 316 150
Width: 268
GlyphClass: 2
Flags: MW
HStem: -149 69<26 41 17 91> 0 21G<46 97 46 46>
VStem: 21.5 65.5
AnchorPoint: "Bottom" 72 0 basechar 0
LayerCount: 2
Fore
SplineSet
147 720 m 1
 198 720 l 1
 97 0 l 1
 46 0 l 1
 147 720 l 1
37 -250 m 1
 3 -250 l 2
 4 -250 41 -149 41 -149 c 1
 17 -149 l 1
 26 -80 l 1
 91 -80 l 1
 83 -138 l 1
 37 -250 l 1
EndSplineSet
EndChar

StartChar: lslash
Encoding: 322 322 151
Width: 297
GlyphClass: 2
Flags: MW
HStem: 0 21G<70 121 70 70>
VStem: 18 261<291 455>
LayerCount: 2
Fore
SplineSet
117 338 m 1
 18 291 l 1
 23 335 l 1
 124 382 l 1
 171 720 l 1
 222 720 l 1
 178 407 l 1
 279 455 l 1
 273 411 l 1
 172 363 l 1
 121 0 l 1
 70 0 l 1
 117 338 l 1
EndSplineSet
EndChar

StartChar: m
Encoding: 109 109 152
Width: 867
GlyphClass: 2
Flags: MW
HStem: 0 21G<42 93 42 42 354 405 354 354 666 717 666 666> 475 46<276 330 580 642> 491 20G<114 149 149 149>
VStem: 114 35<435 511> 714 52<352.5 400>
LayerCount: 2
Fore
SplineSet
618 521 m 0xd8
 702 521 766 474 766 371 c 0
 766 334 765 344 717 0 c 1
 666 0 l 1
 712 331 714 325 714 361 c 0
 714 439 676 475 608 475 c 0
 528 475 462 406 449 314 c 2
 405 0 l 1
 354 0 l 1
 400 331 402 329 402 361 c 0
 402 439 364 475 296 475 c 0xd8
 216 475 150 406 137 314 c 2
 93 0 l 1
 42 0 l 1
 114 511 l 1
 149 511 l 1xb8
 149 435 l 1
 187 489 246 521 306 521 c 0
 372 521 426 493 448 434 c 1
 481 479 542 521 618 521 c 0xd8
EndSplineSet
EndChar

StartChar: n
Encoding: 110 110 153
Width: 593
GlyphClass: 2
Flags: MW
HStem: 0 21G<42 93 42 42 394 444 394 394> 475 46<294.5 356> 491 20G<114 148 148 148>
VStem: 114 34<435 511> 441 52<356.5 395.5>
AnchorPoint: "Bottom" 244 0 basechar 0
LayerCount: 2
Fore
SplineSet
444 0 m 1xd8
 394 0 l 1
 440 328 441 342 441 354 c 0
 441 437 395 475 317 475 c 0xd8
 227 475 150 406 137 314 c 2
 93 0 l 1
 42 0 l 1
 114 511 l 1
 148 511 l 1xb8
 148 435 l 1
 191 489 261 521 328 521 c 0
 423 521 493 473 493 368 c 0
 493 345 492 343 444 0 c 1xd8
EndSplineSet
EndChar

StartChar: nacute
Encoding: 324 324 154
Width: 593
GlyphClass: 2
Flags: MW
HStem: 0 21G<42 93 42 42 394 444 394 394> 475 46<294.5 356> 491 20G<114 148 148 148> 575 145<291 473 291 473>
VStem: 114 34<435 511> 441 52<356.5 395.5>
AnchorPoint: "Bottom" 244 0 basechar 0
LayerCount: 2
Fore
SplineSet
408 720 m 1xdc
 473 720 l 1
 472 717 l 1
 341 575 l 1
 291 575 l 1
 408 720 l 1xdc
444 0 m 1
 394 0 l 1
 440 328 441 342 441 354 c 0
 441 437 395 475 317 475 c 0xdc
 227 475 150 406 137 314 c 2
 93 0 l 1
 42 0 l 1
 114 511 l 1
 148 511 l 1xbc
 148 435 l 1
 191 489 261 521 328 521 c 0
 423 521 493 473 493 368 c 0
 493 345 492 343 444 0 c 1
EndSplineSet
EndChar

StartChar: ncaron
Encoding: 328 328 155
Width: 593
GlyphClass: 2
Flags: MW
HStem: 0 21G<42 93 42 42 394 444 394 394> 475 46<294.5 356> 491 20G<114 148 148 148> 575 145<179 350 179 292>
VStem: 114 34<435 511> 441 52<356.5 395.5>
AnchorPoint: "Bottom" 244 0 basechar 0
LayerCount: 2
Fore
SplineSet
239 720 m 1xdc
 328 623 l 1
 445 720 l 1
 505 720 l 1
 350 575 l 1
 292 575 l 1
 179 720 l 1
 239 720 l 1xdc
444 0 m 1
 394 0 l 1
 440 328 441 342 441 354 c 0
 441 437 395 475 317 475 c 0xdc
 227 475 150 406 137 314 c 2
 93 0 l 1
 42 0 l 1
 114 511 l 1
 148 511 l 1xbc
 148 435 l 1
 191 489 261 521 328 521 c 0
 423 521 493 473 493 368 c 0
 493 345 492 343 444 0 c 1
EndSplineSet
EndChar

StartChar: ncommaaccent
Encoding: 326 326 156
Width: 593
GlyphClass: 2
Flags: MW
HStem: -149 69<198 213 189 263> 0 21G<42 93 42 42 394 444 394 394> 475 46<294.5 356> 491 20G<114 148 148 148>
VStem: 114 34<435 511> 193.5 65.5 441 52<356.5 395.5>
AnchorPoint: "Bottom" 244 0 basechar 0
LayerCount: 2
Fore
SplineSet
444 0 m 1xee
 394 0 l 1
 440 328 441 342 441 354 c 0
 441 437 395 475 317 475 c 0xee
 227 475 150 406 137 314 c 2
 93 0 l 1
 42 0 l 1
 114 511 l 1
 148 511 l 1xde
 148 435 l 1
 191 489 261 521 328 521 c 0
 423 521 493 473 493 368 c 0
 493 345 492 343 444 0 c 1xee
209 -250 m 1
 175 -250 l 2
 176 -250 213 -149 213 -149 c 1
 189 -149 l 1
 198 -80 l 1
 263 -80 l 1
 255 -138 l 1
 209 -250 l 1
EndSplineSet
EndChar

StartChar: ntilde
Encoding: 241 241 157
Width: 593
GlyphClass: 2
Flags: MW
HStem: 0 21G<42 93 42 42 394 444 394 394> 475 46<294.5 356> 491 20G<114 148 148 148> 637 50<400 443.5 400 452.5> 669 50<233.5 277>
VStem: 114 34<435 511> 441 52<356.5 395.5>
LayerCount: 2
Fore
SplineSet
488 719 m 1xd6
 525 719 l 1
 521 687 492 637 413 637 c 0xd6
 349 637 304 669 250 669 c 0xce
 217 669 199 660 189 637 c 1
 152 637 l 1
 156 669 186 719 264 719 c 0
 328 719 373 687 427 687 c 0
 460 687 478 696 488 719 c 1xd6
444 0 m 1
 394 0 l 1
 440 328 441 342 441 354 c 0
 441 437 395 475 317 475 c 0xd6
 227 475 150 406 137 314 c 2
 93 0 l 1
 42 0 l 1
 114 511 l 1
 148 511 l 1xb6
 148 435 l 1
 191 489 261 521 328 521 c 0
 423 521 493 473 493 368 c 0
 493 345 492 343 444 0 c 1
EndSplineSet
EndChar

StartChar: o
Encoding: 111 111 158
Width: 576
GlyphClass: 2
Flags: MW
HStem: -10 46<191.5 304 191.5 314.5> 475 46<220.5 333>
VStem: 41 51<140 258.5 140 272> 433 51<250 370.5>
LayerCount: 2
Fore
SplineSet
225 -10 m 0
 114 -10 41 62 41 192 c 0
 41 352 121 521 300 521 c 0
 411 521 484 449 484 319 c 0
 484 159 404 -10 225 -10 c 0
232 36 m 0
 376 36 433 183 433 317 c 0
 433 424 373 475 293 475 c 0
 148 475 92 324 92 193 c 0
 92 87 151 36 232 36 c 0
EndSplineSet
Substitution2: "Single Substitution lookup 5 subtable" ordmasculine
Substitution2: "'aalt' Access All Alternates lookup 0 subtable" ordmasculine
EndChar

StartChar: oacute
Encoding: 243 243 159
Width: 576
GlyphClass: 2
Flags: MW
HStem: -10 46<191.5 304 191.5 314.5> 475 46<220.5 333> 575 145<303 485 303 485>
VStem: 41 51<140 258.5 140 272> 433 51<250 370.5>
LayerCount: 2
Fore
SplineSet
420 720 m 1
 485 720 l 1
 484 717 l 1
 353 575 l 1
 303 575 l 1
 420 720 l 1
225 -10 m 0
 114 -10 41 62 41 192 c 0
 41 352 121 521 300 521 c 0
 411 521 484 449 484 319 c 0
 484 159 404 -10 225 -10 c 0
232 36 m 0
 376 36 433 183 433 317 c 0
 433 424 373 475 293 475 c 0
 148 475 92 324 92 193 c 0
 92 87 151 36 232 36 c 0
EndSplineSet
EndChar

StartChar: ocircumflex
Encoding: 244 244 160
Width: 576
GlyphClass: 2
Flags: MW
HStem: -10 46<191.5 304 191.5 314.5> 475 46<220.5 333> 575 145<162 375 317 488 317 428>
VStem: 41 51<140 258.5 140 272> 433 51<250 370.5>
LayerCount: 2
Fore
SplineSet
375 720 m 1
 488 575 l 1
 428 575 l 1
 339 672 l 1
 222 575 l 1
 162 575 l 1
 317 720 l 1
 375 720 l 1
225 -10 m 0
 114 -10 41 62 41 192 c 0
 41 352 121 521 300 521 c 0
 411 521 484 449 484 319 c 0
 484 159 404 -10 225 -10 c 0
232 36 m 0
 376 36 433 183 433 317 c 0
 433 424 373 475 293 475 c 0
 148 475 92 324 92 193 c 0
 92 87 151 36 232 36 c 0
EndSplineSet
EndChar

StartChar: odieresis
Encoding: 246 246 161
Width: 576
GlyphClass: 2
Flags: MW
HStem: -10 46<191.5 304 191.5 314.5> 475 46<220.5 333> 651 69<221 277 212 286 397 453>
VStem: 41 51<140 258.5 140 272> 216.5 65 392.5 65 433 51<250 370.5>
LayerCount: 2
Fore
SplineSet
286 720 m 1xfa
 277 651 l 1
 212 651 l 1
 221 720 l 1
 286 720 l 1xfa
462 720 m 1xfc
 453 651 l 1
 388 651 l 1
 397 720 l 1
 462 720 l 1xfc
225 -10 m 0
 114 -10 41 62 41 192 c 0
 41 352 121 521 300 521 c 0
 411 521 484 449 484 319 c 0xfa
 484 159 404 -10 225 -10 c 0
232 36 m 0xfa
 376 36 433 183 433 317 c 0
 433 424 373 475 293 475 c 0
 148 475 92 324 92 193 c 0
 92 87 151 36 232 36 c 0xfa
EndSplineSet
EndChar

StartChar: ograve
Encoding: 242 242 162
Width: 576
GlyphClass: 2
Flags: MW
HStem: -10 46<191.5 304 191.5 314.5> 475 46<220.5 333> 575 145<200 340 200 290>
VStem: 41 51<140 258.5 140 272> 433 51<250 370.5>
LayerCount: 2
Fore
SplineSet
199 717 m 1
 200 720 l 1
 265 720 l 1
 340 575 l 1
 290 575 l 1
 199 717 l 1
225 -10 m 0
 114 -10 41 62 41 192 c 0
 41 352 121 521 300 521 c 0
 411 521 484 449 484 319 c 0
 484 159 404 -10 225 -10 c 0
232 36 m 0
 376 36 433 183 433 317 c 0
 433 424 373 475 293 475 c 0
 148 475 92 324 92 193 c 0
 92 87 151 36 232 36 c 0
EndSplineSet
EndChar

StartChar: ohungarumlaut
Encoding: 337 337 163
Width: 576
GlyphClass: 2
Flags: MW
HStem: -10 46<191.5 304 191.5 314.5> 475 46<220.5 333> 575 145<217 398 217 398 342 342 342 392>
VStem: 41 51<140 258.5 140 272> 433 51<250 370.5>
LayerCount: 2
Fore
SplineSet
334 720 m 1
 398 720 l 1
 398 716 l 1
 267 575 l 1
 217 575 l 1
 334 720 l 1
459 720 m 1
 523 720 l 1
 523 716 l 1
 392 575 l 1
 342 575 l 1
 459 720 l 1
225 -10 m 0
 114 -10 41 62 41 192 c 0
 41 352 121 521 300 521 c 0
 411 521 484 449 484 319 c 0
 484 159 404 -10 225 -10 c 0
232 36 m 0
 376 36 433 183 433 317 c 0
 433 424 373 475 293 475 c 0
 148 475 92 324 92 193 c 0
 92 87 151 36 232 36 c 0
EndSplineSet
EndChar

StartChar: omacron
Encoding: 333 333 164
Width: 576
GlyphClass: 2
Flags: MW
HStem: -10 46<191.5 304 191.5 314.5> 475 46<220.5 333> 691 45<177 487 169 495>
VStem: 41 51<140 258.5 140 272> 433 51<250 370.5>
LayerCount: 2
Fore
SplineSet
177 736 m 1
 495 736 l 1
 487 691 l 1
 169 691 l 1
 177 736 l 1
225 -10 m 0
 114 -10 41 62 41 192 c 0
 41 352 121 521 300 521 c 0
 411 521 484 449 484 319 c 0
 484 159 404 -10 225 -10 c 0
232 36 m 0
 376 36 433 183 433 317 c 0
 433 424 373 475 293 475 c 0
 148 475 92 324 92 193 c 0
 92 87 151 36 232 36 c 0
EndSplineSet
EndChar

StartChar: oslash
Encoding: 248 248 165
Width: 576
GlyphClass: 2
Flags: MW
HStem: -10 46<226 316 226 326.5> 475 46<232.5 322.5>
VStem: 53 51<172.5 258.5 172.5 272> 445 51<250 338>
LayerCount: 2
Fore
SplineSet
237 -10 m 0
 191 -10 152 2 121 26 c 1
 60 -55 l 1
 15 -55 l 1
 95 51 l 1
 68 85 53 132 53 192 c 0
 53 352 133 521 312 521 c 0
 357 521 396 509 426 486 c 1
 489 569 l 1
 534 569 l 1
 452 461 l 1
 480 427 496 379 496 319 c 0
 496 159 416 -10 237 -10 c 0
104 193 m 0
 104 152 113 119 128 94 c 1
 395 445 l 1
 371 465 340 475 305 475 c 0
 160 475 104 324 104 193 c 0
244 36 m 0
 388 36 445 183 445 317 c 0
 445 359 436 393 419 418 c 1
 152 66 l 1
 176 46 208 36 244 36 c 0
EndSplineSet
EndChar

StartChar: otilde
Encoding: 245 245 166
Width: 576
GlyphClass: 2
Flags: MW
HStem: -10 46<191.5 304 191.5 314.5> 475 46<220.5 333> 638 50<392 435.5 392 444.5> 670 50<225.5 269>
VStem: 41 51<140 258.5 140 272> 433 51<250 370.5>
LayerCount: 2
Fore
SplineSet
480 720 m 1xec
 517 720 l 1
 513 688 484 638 405 638 c 0xec
 341 638 296 670 242 670 c 0xdc
 209 670 191 661 181 638 c 1
 144 638 l 1
 148 670 178 720 256 720 c 0
 320 720 365 688 419 688 c 0
 452 688 470 697 480 720 c 1xec
225 -10 m 0
 114 -10 41 62 41 192 c 0
 41 352 121 521 300 521 c 0
 411 521 484 449 484 319 c 0
 484 159 404 -10 225 -10 c 0
232 36 m 0
 376 36 433 183 433 317 c 0
 433 424 373 475 293 475 c 0
 148 475 92 324 92 193 c 0
 92 87 151 36 232 36 c 0
EndSplineSet
EndChar

StartChar: oe
Encoding: 339 339 167
Width: 933
GlyphClass: 2
Flags: MW
HStem: -10 46<210.5 293 590 673> 250 46<504 815 504 859 497 815> 475 46<239.5 352 648.5 726.5>
VStem: 60 51<140 258.5 140 272> 452 40 820 50<345 389.5>
LayerCount: 2
Fore
SplineSet
319 521 m 0
 404 521 467 478 492 399 c 1
 533 470 600 521 697 521 c 0
 798 521 870 461 870 351 c 0
 870 339 866 280 859 250 c 1
 497 250 l 1
 493 224 492 208 492 192 c 0
 492 87 550 36 630 36 c 0
 716 36 785 84 800 189 c 1
 850 189 l 1
 832 61 742 -10 623 -10 c 0
 537 -10 475 33 452 112 c 1
 410 40 342 -10 244 -10 c 0
 133 -10 60 62 60 192 c 0
 60 352 140 521 319 521 c 0
251 36 m 0
 395 36 452 183 452 317 c 0
 452 424 392 475 312 475 c 0
 167 475 111 324 111 193 c 0
 111 87 170 36 251 36 c 0
690 475 m 0
 604 475 529 416 504 296 c 1
 815 296 l 1
 820 325 820 336 820 346 c 0
 820 433 763 475 690 475 c 0
EndSplineSet
EndChar

StartChar: p
Encoding: 112 112 168
Width: 583
GlyphClass: 2
Flags: MW
HStem: -181 21G<17 68 17 17> -10 46<219 327.5 219 343.5> 475 46<292.5 355> 491 20G<114 148 148 148>
VStem: 114 34.5 449 51<251.5 375.5>
LayerCount: 2
Fore
SplineSet
148 511 m 1xdc
 149 434 l 1
 195 493 255 521 330 521 c 0xec
 427 521 500 461 500 321 c 0
 500 166 432 -10 255 -10 c 0
 183 -10 130 21 104 71 c 1
 68 -181 l 1
 17 -181 l 1
 114 511 l 1
 148 511 l 1xdc
318 475 m 0
 172 475 123 316 123 190 c 0
 123 83 181 36 257 36 c 0
 398 36 449 186 449 317 c 0
 449 434 392 475 318 475 c 0
EndSplineSet
EndChar

StartChar: thorn
Encoding: 254 254 169
Width: 582
GlyphClass: 2
Flags: MW
HStem: -181 21G<17 68 17 17> -10 46<219 328 219 342.5> 475 46<294 355>
VStem: 449 51<253.5 376.5>
LayerCount: 2
Fore
SplineSet
194 720 m 1
 155 441 l 1
 200 495 258 521 330 521 c 0
 427 521 500 461 500 321 c 0
 500 167 430 -10 255 -10 c 0
 183 -10 130 21 104 71 c 1
 68 -181 l 1
 17 -181 l 1
 144 720 l 1
 194 720 l 1
318 475 m 0
 174 475 123 316 123 190 c 0
 123 83 181 36 257 36 c 0
 399 36 449 188 449 319 c 0
 449 434 392 475 318 475 c 0
EndSplineSet
EndChar

StartChar: q
Encoding: 113 113 170
Width: 582
GlyphClass: 2
Flags: MW
HStem: -180 21G<351 351 351 402> -10 46<186 248> 475 46<214.5 322> 491 20G<478 499 499 499>
VStem: 40 52<136 255.5 136 260.5>
LayerCount: 2
Fore
SplineSet
351 -180 m 1xe8
 387 71 l 1
 346 21 284 -10 212 -10 c 0
 113 -10 40 58 40 186 c 0
 40 335 113 521 287 521 c 0
 365 521 418 490 447 426 c 1xe8
 478 511 l 1
 499 511 l 1xd8
 402 -180 l 1
 351 -180 l 1xe8
224 36 m 0
 368 36 418 185 418 319 c 0
 418 437 359 475 285 475 c 0
 144 475 92 322 92 189 c 0
 92 83 148 36 224 36 c 0
EndSplineSet
EndChar

StartChar: r
Encoding: 114 114 171
Width: 489
GlyphClass: 2
Flags: MW
HStem: 0 21G<42 93 42 42> 475 46<249.5 331> 491 20G<114 148 148 148>
VStem: 114 34<435 511> 397 50<372 393>
AnchorPoint: "Bottom" 68 0 basechar 0
LayerCount: 2
Fore
SplineSet
440 328 m 2xd8
 393 328 l 1
 397 352 397 360 397 368 c 0
 397 418 373 475 289 475 c 0xd8
 190 475 146 379 138 324 c 2
 93 0 l 1
 42 0 l 1
 114 511 l 1
 148 511 l 1xb8
 148 435 l 1
 148 435 194 521 305 521 c 0
 403 521 447 459 447 383 c 0
 447 361 441 327 440 328 c 2xd8
EndSplineSet
EndChar

StartChar: racute
Encoding: 341 341 172
Width: 489
GlyphClass: 2
Flags: MW
HStem: 0 21G<42 93 42 42> 475 46<249.5 331> 491 20G<114 148 148 148> 575 145<116 298 116 298>
VStem: 114 34<435 511> 397 50<372 393>
AnchorPoint: "Bottom" 68 0 basechar 0
LayerCount: 2
Fore
SplineSet
233 720 m 1xdc
 298 720 l 1
 297 717 l 1
 166 575 l 1
 116 575 l 1
 233 720 l 1xdc
440 328 m 2
 393 328 l 1
 397 352 397 360 397 368 c 0
 397 418 373 475 289 475 c 0xdc
 190 475 146 379 138 324 c 2
 93 0 l 1
 42 0 l 1
 114 511 l 1
 148 511 l 1xbc
 148 435 l 1
 148 435 194 521 305 521 c 0
 403 521 447 459 447 383 c 0
 447 361 441 327 440 328 c 2
EndSplineSet
EndChar

StartChar: rcaron
Encoding: 345 345 173
Width: 489
GlyphClass: 2
Flags: MW
HStem: 0 21G<42 93 42 42> 475 46<249.5 331> 491 20G<114 148 148 148> 575 145<4 175 4 117>
VStem: 114 34<435 511> 397 50<372 393>
AnchorPoint: "Bottom" 68 0 basechar 0
LayerCount: 2
Fore
SplineSet
64 720 m 1xdc
 153 623 l 1
 270 720 l 1
 330 720 l 1
 175 575 l 1
 117 575 l 1
 4 720 l 1
 64 720 l 1xdc
440 328 m 2
 393 328 l 1
 397 352 397 360 397 368 c 0
 397 418 373 475 289 475 c 0xdc
 190 475 146 379 138 324 c 2
 93 0 l 1
 42 0 l 1
 114 511 l 1
 148 511 l 1xbc
 148 435 l 1
 148 435 194 521 305 521 c 0
 403 521 447 459 447 383 c 0
 447 361 441 327 440 328 c 2
EndSplineSet
EndChar

StartChar: rcommaaccent
Encoding: 343 343 174
Width: 489
GlyphClass: 2
Flags: MW
HStem: -149 69<22 37 13 87> 0 21G<42 93 42 42> 475 46<249.5 331> 491 20G<114 148 148 148>
VStem: 17.5 65.5 114 34<435 511> 397 50<372 393>
AnchorPoint: "Bottom" 68 0 basechar 0
LayerCount: 2
Fore
SplineSet
440 328 m 2xee
 393 328 l 1
 397 352 397 360 397 368 c 0
 397 418 373 475 289 475 c 0xee
 190 475 146 379 138 324 c 2
 93 0 l 1
 42 0 l 1
 114 511 l 1
 148 511 l 1xde
 148 435 l 1
 148 435 194 521 305 521 c 0
 403 521 447 459 447 383 c 0
 447 361 441 327 440 328 c 2xee
33 -250 m 1
 -1 -250 l 2
 0 -250 37 -149 37 -149 c 1
 13 -149 l 1
 22 -80 l 1
 87 -80 l 1
 79 -138 l 1
 33 -250 l 1
EndSplineSet
EndChar

StartChar: s
Encoding: 115 115 175
Width: 536
GlyphClass: 2
Flags: MW
HStem: -10 46<179.5 274.5> 242.55 44.23 475 46<211.5 334>
VStem: 23 52<98 124.5> 72 52<312 384.5 312 411.5> 387 52<116.5 218.5> 409 51<393.5 409.5>
AnchorPoint: "Bottom" 232 0 basechar 0
LayerCount: 2
Fore
SplineSet
29 157 m 1xf4
 79 157 l 1
 76 148 75 137 75 128 c 0xf2
 75 68 132 36 227 36 c 0
 327 36 387 84 387 149 c 0xec
 387 288 72 193 72 371 c 0
 72 452 141 521 282 521 c 0
 413 521 460 456 460 399 c 0
 460 388 458 371 456 369 c 2
 406 369 l 2
 406 371 409 382 409 395 c 0xea
 409 424 392 475 276 475 c 0
 132 475 124 393 124 376 c 0xec
 124 248 439 332 439 155 c 0
 439 31 332 -10 217 -10 c 0
 64 -10 23 66 23 118 c 0
 23 131 25 144 29 157 c 1xf4
EndSplineSet
EndChar

StartChar: sacute
Encoding: 347 347 176
Width: 536
GlyphClass: 2
Flags: MW
HStem: -10 46<179.5 274.5> 242.55 44.23 475 46<211.5 334> 575 145<242 424 242 424>
VStem: 23 52<98 124.5> 72 52<312 384.5 312 411.5> 387 52<116.5 218.5> 409 51<393.5 409.5>
AnchorPoint: "Bottom" 232 0 basechar 0
LayerCount: 2
Fore
SplineSet
359 720 m 1xf5
 424 720 l 1
 423 717 l 1
 292 575 l 1
 242 575 l 1
 359 720 l 1xf5
29 157 m 1xfa
 79 157 l 1
 76 148 75 137 75 128 c 0xf9
 75 68 132 36 227 36 c 0
 327 36 387 84 387 149 c 0xf6
 387 288 72 193 72 371 c 0
 72 452 141 521 282 521 c 0
 413 521 460 456 460 399 c 0
 460 388 458 371 456 369 c 2
 406 369 l 2
 406 371 409 382 409 395 c 0xf5
 409 424 392 475 276 475 c 0
 132 475 124 393 124 376 c 0xf6
 124 248 439 332 439 155 c 0
 439 31 332 -10 217 -10 c 0
 64 -10 23 66 23 118 c 0
 23 131 25 144 29 157 c 1xfa
EndSplineSet
EndChar

StartChar: scaron
Encoding: 353 353 177
Width: 536
GlyphClass: 2
Flags: MW
HStem: -10 46<179.5 274.5> 242.55 44.23 475 46<211.5 334> 575 145<144 315 144 257>
VStem: 23 52<98 124.5> 72 52<312 384.5 312 411.5> 387 52<116.5 218.5> 409 51<393.5 409.5>
LayerCount: 2
Fore
SplineSet
204 720 m 1xf5
 293 623 l 1
 410 720 l 1
 470 720 l 1
 315 575 l 1
 257 575 l 1
 144 720 l 1
 204 720 l 1xf5
29 157 m 1xfa
 79 157 l 1
 76 148 75 137 75 128 c 0xf9
 75 68 132 36 227 36 c 0
 327 36 387 84 387 149 c 0xf6
 387 288 72 193 72 371 c 0
 72 452 141 521 282 521 c 0
 413 521 460 456 460 399 c 0
 460 388 458 371 456 369 c 2
 406 369 l 2
 406 371 409 382 409 395 c 0xf5
 409 424 392 475 276 475 c 0
 132 475 124 393 124 376 c 0xf6
 124 248 439 332 439 155 c 0
 439 31 332 -10 217 -10 c 0
 64 -10 23 66 23 118 c 0
 23 131 25 144 29 157 c 1xfa
EndSplineSet
EndChar

StartChar: scedilla
Encoding: 351 351 178
Width: 536
GlyphClass: 2
Flags: MW
HStem: -197 46<186.5 214 179.5 223> -184 21G<123 123> -51 34<211 228 206 240.5> -10 46<179.5 274.5> 242.55 44.23 475 46<211.5 334>
VStem: 23 52<98 124.5> 72 52<312 384.5 312 411.5> 280 51<-115 -77.5> 387 52<116.5 218.5> 409 51<393.5 409.5>
AnchorPoint: "Bottom" 232 0 basechar 0
LayerCount: 2
Fore
SplineSet
29 157 m 1x9ec0
 79 157 l 1
 76 148 75 137 75 128 c 0x5ea0
 75 68 132 36 227 36 c 0
 327 36 387 84 387 149 c 0x9dc0
 387 288 72 193 72 371 c 0
 72 452 141 521 282 521 c 0
 413 521 460 456 460 399 c 0
 460 388 458 371 456 369 c 2
 406 369 l 2
 406 371 409 382 409 395 c 0x9da0
 409 424 392 475 276 475 c 0
 132 475 124 393 124 376 c 0x9dc0
 124 248 439 332 439 155 c 0
 439 31 332 -10 217 -10 c 0
 64 -10 23 66 23 118 c 0
 23 131 25 144 29 157 c 1x9ec0
123 -184 m 1
 129 -138 l 1
 141 -145 163 -151 196 -151 c 0
 232 -151 280 -139 280 -91 c 0
 280 -64 253 -51 228 -51 c 2
 206 -51 l 1
 211 -17 l 1
 270 -17 331 -22 331 -90 c 0
 331 -177 247 -197 199 -197 c 0xada0
 174 -197 145 -193 123 -184 c 1
EndSplineSet
EndChar

StartChar: scommaaccent
Encoding: 537 537 179
Width: 536
GlyphClass: 2
Flags: MW
HStem: -149 69<186 201 177 251> -10 46<179.5 274.5> 242.55 44.23 475 46<211.5 334>
VStem: 23 52<98 124.5> 72 52<312 384.5 312 411.5> 181.5 65.5 387 52<116.5 218.5> 409 51<393.5 409.5>
AnchorPoint: "Bottom" 232 0 basechar 0
LayerCount: 2
Fore
SplineSet
29 157 m 1xf9
 79 157 l 1
 76 148 75 137 75 128 c 0xfa80
 75 68 132 36 227 36 c 0
 327 36 387 84 387 149 c 0xf5
 387 288 72 193 72 371 c 0
 72 452 141 521 282 521 c 0
 413 521 460 456 460 399 c 0
 460 388 458 371 456 369 c 2
 406 369 l 2
 406 371 409 382 409 395 c 0xf480
 409 424 392 475 276 475 c 0
 132 475 124 393 124 376 c 0xf5
 124 248 439 332 439 155 c 0
 439 31 332 -10 217 -10 c 0
 64 -10 23 66 23 118 c 0
 23 131 25 144 29 157 c 1xf9
197 -250 m 1
 163 -250 l 2
 164 -250 201 -149 201 -149 c 1
 177 -149 l 1
 186 -80 l 1
 251 -80 l 1
 243 -138 l 1
 197 -250 l 1
EndSplineSet
EndChar

StartChar: germandbls
Encoding: 223 223 180
Width: 614
GlyphClass: 2
Flags: MW
HStem: 0 46<191 277 185 283> 361 46<242 323 323 328 236 323> 465 46<79 128 72 135> 682 46<322 411>
VStem: 471 52<175.5 262.5> 496 52<533 598>
LayerCount: 2
Fore
SplineSet
423 388 m 1xf8
 424 385 l 1
 484 361 523 299 523 229 c 0
 523 104 404 0 277 0 c 2
 185 0 l 1
 191 46 l 1
 283 46 l 2
 380 46 471 127 471 224 c 0xf8
 471 301 411 361 328 361 c 2
 236 361 l 1
 242 407 l 1
 323 407 l 2
 417 407 496 479 496 565 c 0
 496 631 450 682 372 682 c 0
 272 682 200 614 186 514 c 2
 105 -66 l 1
 54 -66 l 1
 128 465 l 1
 72 465 l 1
 79 511 l 1
 135 511 l 1
 153 643 252 728 378 728 c 0
 481 728 548 660 548 571 c 0xf4
 548 495 493 414 423 388 c 1xf8
EndSplineSet
EndChar

StartChar: t
Encoding: 116 116 181
Width: 344
GlyphClass: 2
Flags: MW
HStem: -10 46<153.5 165.5> 465 46<69 118 62 125 69 169 176 288>
VStem: 65 51<63 80>
AnchorPoint: "Bottom" 136 0 basechar 0
LayerCount: 2
Fore
SplineSet
230 52 m 1
 224 7 l 1
 205 -3 178 -10 153 -10 c 0
 101 -10 65 17 65 76 c 0
 65 84 66 92 67 101 c 2
 118 465 l 1
 62 465 l 1
 69 511 l 1
 125 511 l 1
 166 674 l 1
 199 674 l 1
 176 511 l 1
 295 511 l 1
 288 465 l 1
 169 465 l 1
 118 103 l 2
 117 96 116 90 116 84 c 0
 116 42 141 36 166 36 c 0
 181 36 213 45 230 52 c 1
EndSplineSet
EndChar

StartChar: tcaron
Encoding: 357 357 182
Width: 344
GlyphClass: 2
Flags: MW
HStem: -10 46<153.5 165.5> 465 46<69 118 62 125 69 169 176 288> 496 20G<348 382 348 348.5> 516 170<370 382 348 435> 617 69<370 385 361 435>
VStem: 65 51<63 80> 365.5 65.5
AnchorPoint: "Bottom" 136 0 basechar 0
LayerCount: 2
Fore
SplineSet
382 516 m 1x96
 348 516 l 2
 349 516 385 617 385 617 c 1
 361 617 l 1
 370 686 l 1
 435 686 l 1
 427 628 l 1xae
 382 516 l 1x96
230 52 m 1
 224 7 l 1
 205 -3 178 -10 153 -10 c 0
 101 -10 65 17 65 76 c 0
 65 84 66 92 67 101 c 2
 118 465 l 1
 62 465 l 1
 69 511 l 1
 125 511 l 1
 166 674 l 1
 199 674 l 1
 176 511 l 1
 295 511 l 1
 288 465 l 1
 169 465 l 1xce
 118 103 l 2
 117 96 116 90 116 84 c 0
 116 42 141 36 166 36 c 0
 181 36 213 45 230 52 c 1
EndSplineSet
EndChar

StartChar: tcedilla
Encoding: 355 355 183
Width: 344
GlyphClass: 2
Flags: MW
HStem: -197 46<90.5 118 83.5 127> -184 21G<27 27> -51 34<115 132 110 144.5> -10 46<153.5 165.5> 465 46<69 118 62 125 69 169 176 288>
VStem: 65 51<63 80> 184 51<-115 -77.5>
AnchorPoint: "Bottom" 136 0 basechar 0
LayerCount: 2
Fore
SplineSet
230 52 m 1x9e
 224 7 l 1
 205 -3 178 -10 153 -10 c 0
 101 -10 65 17 65 76 c 0
 65 84 66 92 67 101 c 2
 118 465 l 1
 62 465 l 1
 69 511 l 1
 125 511 l 1
 166 674 l 1
 199 674 l 1
 176 511 l 1
 295 511 l 1
 288 465 l 1
 169 465 l 1
 118 103 l 2
 117 96 116 90 116 84 c 0
 116 42 141 36 166 36 c 0
 181 36 213 45 230 52 c 1x9e
27 -184 m 1x5e
 33 -138 l 1
 45 -145 67 -151 100 -151 c 0
 136 -151 184 -139 184 -91 c 0
 184 -64 157 -51 132 -51 c 2
 110 -51 l 1
 115 -17 l 1
 174 -17 235 -22 235 -90 c 0
 235 -177 151 -197 103 -197 c 0xae
 78 -197 49 -193 27 -184 c 1x5e
EndSplineSet
EndChar

StartChar: tcommaaccent
Encoding: 539 539 184
Width: 344
GlyphClass: 2
Flags: MW
HStem: -149 69<90 105 81 155> -10 46<153.5 165.5> 465 46<69 118 62 125 69 169 176 288>
VStem: 65 51<63 80> 85.5 65.5
AnchorPoint: "Bottom" 136 0 basechar 0
LayerCount: 2
Fore
SplineSet
230 52 m 1xf0
 224 7 l 1
 205 -3 178 -10 153 -10 c 0
 101 -10 65 17 65 76 c 0
 65 84 66 92 67 101 c 2
 118 465 l 1
 62 465 l 1
 69 511 l 1
 125 511 l 1
 166 674 l 1
 199 674 l 1
 176 511 l 1
 295 511 l 1
 288 465 l 1
 169 465 l 1
 118 103 l 2
 117 96 116 90 116 84 c 0
 116 42 141 36 166 36 c 0
 181 36 213 45 230 52 c 1xf0
101 -250 m 1xe8
 67 -250 l 2
 68 -250 105 -149 105 -149 c 1
 81 -149 l 1
 90 -80 l 1
 155 -80 l 1
 147 -138 l 1
 101 -250 l 1xe8
EndSplineSet
EndChar

StartChar: u
Encoding: 117 117 185
Width: 617
GlyphClass: 2
Flags: MW
HStem: -10 46<196 254.5 463.5 465.5> 491 20G<107 158 158 158 459 510 510 510>
VStem: 58 53<112.5 165> 396 51<52 58.5>
LayerCount: 2
Fore
SplineSet
398 76 m 1
 355 22 288 -10 221 -10 c 0
 126 -10 58 37 58 142 c 0
 58 188 107 511 107 511 c 1
 158 511 l 1
 150 457 111 197 111 157 c 0
 111 68 157 36 235 36 c 0
 325 36 402 105 415 197 c 2
 459 511 l 1
 510 511 l 1
 510 511 447 73 447 61 c 0
 447 43 457 36 470 36 c 0
 485 36 506 43 523 52 c 1
 517 9 l 1
 498 -3 477 -10 454 -10 c 0
 410 -10 396 21 396 55 c 0
 396 62 397 69 398 76 c 1
EndSplineSet
EndChar

StartChar: uacute
Encoding: 250 250 186
Width: 617
GlyphClass: 2
Flags: MW
HStem: -10 46<196 254.5 463.5 465.5> 491 20G<107 158 158 158 459 510 510 510> 575 145<289 471 289 471>
VStem: 58 53<112.5 165> 396 51<52 58.5>
LayerCount: 2
Fore
SplineSet
406 720 m 1
 471 720 l 1
 470 717 l 1
 339 575 l 1
 289 575 l 1
 406 720 l 1
398 76 m 1
 355 22 288 -10 221 -10 c 0
 126 -10 58 37 58 142 c 0
 58 188 107 511 107 511 c 1
 158 511 l 1
 158 511 111 197 111 157 c 0
 111 68 157 36 235 36 c 0
 325 36 402 105 415 197 c 2
 459 511 l 1
 510 511 l 1
 510 511 447 73 447 61 c 0
 447 43 457 36 470 36 c 0
 485 36 506 43 523 52 c 1
 517 9 l 1
 498 -3 477 -10 454 -10 c 0
 410 -10 396 21 396 55 c 0
 396 62 397 69 398 76 c 1
EndSplineSet
EndChar

StartChar: ucircumflex
Encoding: 251 251 187
Width: 617
GlyphClass: 2
Flags: MW
HStem: -10 46<196 254.5 463.5 465.5> 491 20G<107 158 158 158 459 510 510 510> 575 145<148 361 303 474 303 414>
VStem: 58 53<112.5 165> 396 51<52 58.5>
LayerCount: 2
Fore
SplineSet
361 720 m 1
 474 575 l 1
 414 575 l 1
 325 672 l 1
 208 575 l 1
 148 575 l 1
 303 720 l 1
 361 720 l 1
398 76 m 1
 355 22 288 -10 221 -10 c 0
 126 -10 58 37 58 142 c 0
 58 188 107 511 107 511 c 1
 158 511 l 1
 158 511 111 197 111 157 c 0
 111 68 157 36 235 36 c 0
 325 36 402 105 415 197 c 2
 459 511 l 1
 510 511 l 1
 510 511 447 73 447 61 c 0
 447 43 457 36 470 36 c 0
 485 36 506 43 523 52 c 1
 517 9 l 1
 498 -3 477 -10 454 -10 c 0
 410 -10 396 21 396 55 c 0
 396 62 397 69 398 76 c 1
EndSplineSet
EndChar

StartChar: udieresis
Encoding: 252 252 188
Width: 617
GlyphClass: 2
Flags: MW
HStem: -10 46<196 254.5 463.5 465.5> 491 20G<107 158 158 158 459 510 510 510> 651 69<209 265 200 274 385 441>
VStem: 58 53<112.5 165> 204.5 65 380.5 65 396 51<52 58.5>
LayerCount: 2
Fore
SplineSet
274 720 m 1xfa
 265 651 l 1
 200 651 l 1
 209 720 l 1
 274 720 l 1xfa
450 720 m 1xfc
 441 651 l 1
 376 651 l 1
 385 720 l 1
 450 720 l 1xfc
398 76 m 1xfa
 355 22 288 -10 221 -10 c 0
 126 -10 58 37 58 142 c 0
 58 188 107 511 107 511 c 1
 158 511 l 1
 158 511 111 197 111 157 c 0
 111 68 157 36 235 36 c 0
 325 36 402 105 415 197 c 2
 459 511 l 1
 510 511 l 1
 510 511 447 73 447 61 c 0
 447 43 457 36 470 36 c 0
 485 36 506 43 523 52 c 1
 517 9 l 1
 498 -3 477 -10 454 -10 c 0
 410 -10 396 21 396 55 c 0
 396 62 397 69 398 76 c 1xfa
EndSplineSet
EndChar

StartChar: ugrave
Encoding: 249 249 189
Width: 617
GlyphClass: 2
Flags: MW
HStem: -10 46<196 254.5 463.5 465.5> 491 20G<107 158 158 158 459 510 510 510> 575 145<211 351 211 301>
VStem: 58 53<112.5 165> 396 51<52 58.5>
LayerCount: 2
Fore
SplineSet
210 717 m 1
 211 720 l 1
 276 720 l 1
 351 575 l 1
 301 575 l 1
 210 717 l 1
398 76 m 1
 355 22 288 -10 221 -10 c 0
 126 -10 58 37 58 142 c 0
 58 188 107 511 107 511 c 1
 158 511 l 1
 158 511 111 197 111 157 c 0
 111 68 157 36 235 36 c 0
 325 36 402 105 415 197 c 2
 459 511 l 1
 510 511 l 1
 510 511 447 73 447 61 c 0
 447 43 457 36 470 36 c 0
 485 36 506 43 523 52 c 1
 517 9 l 1
 498 -3 477 -10 454 -10 c 0
 410 -10 396 21 396 55 c 0
 396 62 397 69 398 76 c 1
EndSplineSet
EndChar

StartChar: uhungarumlaut
Encoding: 369 369 190
Width: 617
GlyphClass: 2
Flags: MW
HStem: -10 46<196 254.5 463.5 465.5> 491 20G<107 158 158 158 459 510 510 510> 575 145<222 403 222 403 347 347 347 397>
VStem: 58 53<112.5 165> 396 51<52 58.5>
LayerCount: 2
Fore
SplineSet
339 720 m 1
 403 720 l 1
 403 716 l 1
 272 575 l 1
 222 575 l 1
 339 720 l 1
464 720 m 1
 528 720 l 1
 528 716 l 1
 397 575 l 1
 347 575 l 1
 464 720 l 1
398 76 m 1
 355 22 288 -10 221 -10 c 0
 126 -10 58 37 58 142 c 0
 58 188 107 511 107 511 c 1
 158 511 l 1
 150 457 111 197 111 157 c 0
 111 68 157 36 235 36 c 0
 325 36 402 105 415 197 c 2
 459 511 l 1
 510 511 l 1
 510 511 447 73 447 61 c 0
 447 43 457 36 470 36 c 0
 485 36 506 43 523 52 c 1
 517 9 l 1
 498 -3 477 -10 454 -10 c 0
 410 -10 396 21 396 55 c 0
 396 62 397 69 398 76 c 1
EndSplineSet
EndChar

StartChar: umacron
Encoding: 363 363 191
Width: 617
GlyphClass: 2
Flags: MW
HStem: -10 46<196 254.5 463.5 465.5> 491 20G<107 158 158 158 459 510 510 510> 691 45<182 492 174 500>
VStem: 58 53<112.5 165> 396 51<52 58.5>
LayerCount: 2
Fore
SplineSet
182 736 m 1
 500 736 l 1
 492 691 l 1
 174 691 l 1
 182 736 l 1
398 76 m 1
 355 22 288 -10 221 -10 c 0
 126 -10 58 37 58 142 c 0
 58 188 107 511 107 511 c 1
 158 511 l 1
 150 457 111 197 111 157 c 0
 111 68 157 36 235 36 c 0
 325 36 402 105 415 197 c 2
 459 511 l 1
 510 511 l 1
 510 511 447 73 447 61 c 0
 447 43 457 36 470 36 c 0
 485 36 506 43 523 52 c 1
 517 9 l 1
 498 -3 477 -10 454 -10 c 0
 410 -10 396 21 396 55 c 0
 396 62 397 69 398 76 c 1
EndSplineSet
EndChar

StartChar: uogonek
Encoding: 371 371 192
Width: 617
GlyphClass: 2
Flags: MW
HStem: -143 43<488.5 502.5> -10 46<196 254.5> 0 21G<500 516 516 516> 491 20G<107 158 158 158 459 510 510 510>
VStem: 58 53<112.5 165> 396 51<52 58.5> 401 58<-80 -66.5>
LayerCount: 2
Fore
SplineSet
567 -86 m 1xdc
 576 -119 l 1
 548 -135 517 -143 488 -143 c 0
 445 -143 401 -129 401 -83 c 0xda
 401 -50 424 -28 450 -10 c 1
 409 -8 396 22 396 55 c 0
 396 62 397 69 398 76 c 1
 355 22 288 -10 221 -10 c 0
 126 -10 58 37 58 142 c 0
 58 188 107 511 107 511 c 1
 158 511 l 1
 150 457 111 197 111 157 c 0
 111 68 157 36 235 36 c 0
 325 36 402 105 415 197 c 2
 459 511 l 1
 510 511 l 1
 510 511 447 73 447 61 c 0
 447 43 457 36 470 36 c 0
 485 36 506 43 523 52 c 1xdc
 517 9 l 1
 512 6 506 3 500 0 c 2xbc
 516 0 l 1
 512 -2 l 2
 488 -17 459 -36 459 -67 c 0
 459 -93 479 -100 498 -100 c 0xba
 522 -100 545 -93 567 -86 c 1xdc
EndSplineSet
EndChar

StartChar: uring
Encoding: 367 367 193
Width: 617
GlyphClass: 2
Flags: MW
HStem: -10 46<196 254.5 463.5 465.5> 491 20G<107 158 158 158 459 510 510 510> 545 36<303 338.5 303 346> 710 36<318.5 353.5>
VStem: 58 53<112.5 165> 226 36<620 656 620 665> 394 36<634.5 671> 396 51<52 58.5>
LayerCount: 2
Fore
SplineSet
430 660 m 0xfe
 430 597 378 545 314 545 c 0
 263 545 226 582 226 632 c 0
 226 698 283 746 343 746 c 0
 393 746 430 709 430 660 c 0xfe
319 581 m 0
 358 581 394 614 394 655 c 0
 394 687 369 710 338 710 c 0
 299 710 262 676 262 636 c 0
 262 604 287 581 319 581 c 0
398 76 m 1xfd
 355 22 288 -10 221 -10 c 0
 126 -10 58 37 58 142 c 0
 58 188 107 511 107 511 c 1
 158 511 l 1
 150 457 111 197 111 157 c 0
 111 68 157 36 235 36 c 0
 325 36 402 105 415 197 c 2
 459 511 l 1
 510 511 l 1
 510 511 447 73 447 61 c 0
 447 43 457 36 470 36 c 0
 485 36 506 43 523 52 c 1
 517 9 l 1
 498 -3 477 -10 454 -10 c 0
 410 -10 396 21 396 55 c 0
 396 62 397 69 398 76 c 1xfd
EndSplineSet
EndChar

StartChar: v
Encoding: 118 118 194
Width: 512
GlyphClass: 2
Flags: MW
HStem: 0 21G<178 178 178 223> 0 74<178 215 211 215 211 223> 491 20G<43 98 98 98 451 501 501 501>
VStem: 43 458<511 511>
LayerCount: 2
Fore
SplineSet
178 0 m 1xb0
 43 511 l 1
 98 511 l 1
 211 74 l 1
 215 74 l 1x70
 451 511 l 1
 501 511 l 1
 223 0 l 1
 178 0 l 1xb0
EndSplineSet
EndChar

StartChar: w
Encoding: 119 119 195
Width: 809
GlyphClass: 2
Flags: MW
HStem: 0 21G<156 156 156 196 508 508 508 548> 0 93<156 193 189 193 189 196 541 545> 446 65<412 416 412 412>
VStem: 50 747<511 511>
LayerCount: 2
Fore
SplineSet
156 0 m 1xb0
 50 511 l 1
 103 511 l 1
 189 93 l 1
 193 93 l 1
 396 511 l 1
 455 511 l 1
 541 93 l 1
 545 93 l 1x70
 748 511 l 1
 797 511 l 1
 548 0 l 1
 508 0 l 1
 416 446 l 1
 412 446 l 1
 196 0 l 1
 156 0 l 1xb0
EndSplineSet
EndChar

StartChar: x
Encoding: 120 120 196
Width: 517
GlyphClass: 2
Flags: MW
HStem: 0 21G<-23 34 -23 -23 351 351 351 414> 491 20G<55 119 119 119 418 476 476 476>
VStem: -23 499
LayerCount: 2
Fore
SplineSet
227 221 m 1
 223 221 l 1
 34 0 l 1
 -23 0 l 1
 202 262 l 1
 55 511 l 1
 119 511 l 1
 238 303 l 1
 242 303 l 1
 418 511 l 1
 476 511 l 1
 260 262 l 1
 414 0 l 1
 351 0 l 1
 227 221 l 1
EndSplineSet
EndChar

StartChar: y
Encoding: 121 121 197
Width: 510
GlyphClass: 2
Flags: MW
HStem: -186 46<32 67 31 88.5> 491 20G<42 97 97 97 450 500 500 500>
VStem: -19 519
LayerCount: 2
Fore
SplineSet
500 511 m 1
 228 13 l 2
 170 -94 134 -186 43 -186 c 0
 21 -186 2 -182 -19 -172 c 1
 -12 -126 l 1
 1 -132 22 -140 40 -140 c 0
 94 -140 122 -88 144 -48 c 2
 175 8 l 1
 42 511 l 1
 97 511 l 1
 210 76 l 1
 214 76 l 1
 450 511 l 1
 500 511 l 1
EndSplineSet
EndChar

StartChar: yacute
Encoding: 253 253 198
Width: 510
GlyphClass: 2
Flags: MW
HStem: -186 46<32 67 31 88.5> 491 20G<42 97 97 97 450 500 500 500> 575 145<249 431 249 431>
VStem: -19 519
LayerCount: 2
Fore
SplineSet
366 720 m 1
 431 720 l 1
 430 717 l 1
 299 575 l 1
 249 575 l 1
 366 720 l 1
500 511 m 1
 228 13 l 2
 170 -94 134 -186 43 -186 c 0
 21 -186 2 -182 -19 -172 c 1
 -12 -126 l 1
 1 -132 22 -140 40 -140 c 0
 94 -140 122 -88 144 -48 c 2
 175 8 l 1
 42 511 l 1
 97 511 l 1
 210 76 l 1
 214 76 l 1
 450 511 l 1
 500 511 l 1
EndSplineSet
EndChar

StartChar: ydieresis
Encoding: 255 255 199
Width: 510
GlyphClass: 2
Flags: MW
HStem: -186 46<32 67 31 88.5> 491 20G<42 97 97 97 450 500 500 500> 651 69<172 228 163 237 348 404>
VStem: 167.5 65 343.5 65
LayerCount: 2
Fore
SplineSet
237 720 m 1
 228 651 l 1
 163 651 l 1
 172 720 l 1
 237 720 l 1
413 720 m 1
 404 651 l 1
 339 651 l 1
 348 720 l 1
 413 720 l 1
500 511 m 1
 228 13 l 2
 170 -94 134 -186 43 -186 c 0
 21 -186 2 -182 -19 -172 c 1
 -12 -126 l 1
 1 -132 22 -140 40 -140 c 0
 94 -140 122 -88 144 -48 c 2
 175 8 l 1
 42 511 l 1
 97 511 l 1
 210 76 l 1
 214 76 l 1
 450 511 l 1
 500 511 l 1
EndSplineSet
EndChar

StartChar: z
Encoding: 122 122 200
Width: 463
GlyphClass: 2
Flags: MW
HStem: 0 46<76 356> 465 46<84 338 78 419>
VStem: -4 423
LayerCount: 2
Fore
SplineSet
-1 24 m 1
 338 465 l 1
 78 465 l 1
 84 511 l 1
 419 511 l 1
 416 487 l 1
 76 46 l 1
 362 46 l 1
 356 0 l 1
 -4 0 l 1
 -1 24 l 1
EndSplineSet
EndChar

StartChar: zacute
Encoding: 378 378 201
Width: 463
GlyphClass: 2
Flags: MW
HStem: 0 46<76 356> 465 46<84 338 78 419> 575 145<226 408 226 408>
VStem: -4 423
LayerCount: 2
Fore
SplineSet
343 720 m 1
 408 720 l 1
 407 717 l 1
 276 575 l 1
 226 575 l 1
 343 720 l 1
-1 24 m 1
 338 465 l 1
 78 465 l 1
 84 511 l 1
 419 511 l 1
 416 487 l 1
 76 46 l 1
 362 46 l 1
 356 0 l 1
 -4 0 l 1
 -1 24 l 1
EndSplineSet
EndChar

StartChar: zcaron
Encoding: 382 382 202
Width: 463
GlyphClass: 2
Flags: MW
HStem: 0 46<76 356> 465 46<84 338 78 419> 575 145<112 283 112 225>
VStem: -4 442
LayerCount: 2
Fore
SplineSet
172 720 m 1
 261 623 l 1
 378 720 l 1
 438 720 l 1
 283 575 l 1
 225 575 l 1
 112 720 l 1
 172 720 l 1
-1 24 m 1
 338 465 l 1
 78 465 l 1
 84 511 l 1
 419 511 l 1
 416 487 l 1
 76 46 l 1
 362 46 l 1
 356 0 l 1
 -4 0 l 1
 -1 24 l 1
EndSplineSet
EndChar

StartChar: zdotaccent
Encoding: 380 380 203
Width: 463
GlyphClass: 2
Flags: MW
HStem: 0 46<76 356> 465 46<84 338 78 419> 604 132<267 293>
VStem: 213 134<659.5 680.5>
LayerCount: 2
Fore
SplineSet
347 679 m 0
 347 640 315 604 271 604 c 0
 239 604 213 628 213 660 c 0
 213 701 245 736 289 736 c 0
 323 736 347 711 347 679 c 0
-1 24 m 1
 338 465 l 1
 78 465 l 1
 84 511 l 1
 419 511 l 1
 416 487 l 1
 76 46 l 1
 362 46 l 1
 356 0 l 1
 -4 0 l 1
 -1 24 l 1
EndSplineSet
EndChar

StartChar: fi
Encoding: 64257 64257 204
Width: 564
GlyphClass: 3
Flags: MW
HStem: -186 46<-21.5 0 -21.5 18> 0 21G<353 404 353 353> 465 46<72 134 78 128 78 179 185 298> 666 54<443 509 450 502> 682 46<252 273.5>
VStem: 446.5 59
LayerCount: 2
Fore
SplineSet
72 465 m 1xec
 78 511 l 1
 134 511 l 1
 149 617 l 2
 160 694 208 728 267 728 c 0
 292 728 317 721 332 711 c 1
 326 666 l 1
 311 673 281 682 266 682 c 0
 238 682 208 674 200 615 c 2
 185 511 l 1
 304 511 l 1
 298 465 l 1
 179 465 l 1
 103 -75 l 2
 92 -152 51 -186 -15 -186 c 0
 -40 -186 -65 -179 -80 -169 c 1
 -74 -124 l 1
 -59 -131 -29 -140 -14 -140 c 0
 14 -140 44 -132 52 -73 c 2
 128 465 l 1
 72 465 l 1xec
509 720 m 1xf4
 502 666 l 1
 443 666 l 1
 450 720 l 1
 509 720 l 1xf4
425 511 m 1
 476 511 l 1
 404 0 l 1
 353 0 l 1
 425 511 l 1
EndSplineSet
Ligature2: "'liga' Standard Ligatures lookup 4 subtable" f i
EndChar

StartChar: fl
Encoding: 64258 64258 205
Width: 562
GlyphClass: 3
Flags: MW
HStem: -186 46<-21.5 0 -21.5 18> 0 21G<357 408 357 357> 465 46<72 134 78 128 78 179 185 298> 682 46<252 273.5>
VStem: -80 589
LayerCount: 2
Fore
SplineSet
72 465 m 1
 78 511 l 1
 134 511 l 1
 149 617 l 2
 160 694 208 728 267 728 c 0
 292 728 317 721 332 711 c 1
 326 666 l 1
 311 673 281 682 266 682 c 0
 238 682 208 674 200 615 c 2
 185 511 l 1
 304 511 l 1
 298 465 l 1
 179 465 l 1
 103 -75 l 2
 92 -152 51 -186 -15 -186 c 0
 -40 -186 -65 -179 -80 -169 c 1
 -74 -124 l 1
 -59 -131 -29 -140 -14 -140 c 0
 14 -140 44 -132 52 -73 c 2
 128 465 l 1
 72 465 l 1
458 720 m 1
 509 720 l 1
 408 0 l 1
 357 0 l 1
 458 720 l 1
EndSplineSet
Ligature2: "'liga' Standard Ligatures lookup 4 subtable" f l
EndChar

StartChar: ordfeminine
Encoding: 170 170 206
Width: 419
GlyphClass: 2
Flags: MW
HStem: 370 32<162.5 199.5 326.5 327.5> 667 32<179.5 245.5> 673 20G<331 355 355 355>
VStem: 72 35<461.5 533.5 461.5 542.5> 282 36<411 412>
LayerCount: 2
Fore
SplineSet
282 412 m 1xb8
 281 415 l 1xb8
 254 384 221 370 178 370 c 0
 118 370 72 408 72 495 c 0
 72 590 116 699 224 699 c 0
 269 699 300 680 316 648 c 1
 318 651 l 1xd8
 322 665 327 680 331 693 c 1
 355 693 l 1
 355 693 318 425 318 416 c 0
 318 406 323 402 330 402 c 0
 337 402 352 408 364 414 c 1
 360 383 l 1
 348 375 335 370 320 370 c 0
 291 370 282 390 282 412 c 1xb8
185 402 m 0
 272 402 302 494 302 575 c 0
 302 639 268 667 223 667 c 0xd8
 136 667 107 571 107 496 c 0
 107 427 140 402 185 402 c 0
EndSplineSet
EndChar

StartChar: ordmasculine
Encoding: 186 186 207
Width: 392
GlyphClass: 2
Flags: MW
HStem: 374 32<185 252.5 185 260> 669 32<202.5 270>
VStem: 91 35<467.5 538.5 467.5 548> 329 35<534.5 607>
LayerCount: 2
Fore
SplineSet
205 374 m 0
 136 374 91 419 91 499 c 0
 91 597 140 701 250 701 c 0
 319 701 364 656 364 576 c 0
 364 478 315 374 205 374 c 0
209 406 m 0
 296 406 329 494 329 575 c 0
 329 639 294 669 246 669 c 0
 159 669 126 578 126 499 c 0
 126 436 161 406 209 406 c 0
EndSplineSet
EndChar

StartChar: Delta
Encoding: 916 916 208
Width: 675
GlyphClass: 2
Flags: MW
HStem: 0 55<90 528 90 585> 639 47<391 391>
VStem: 18 574<0 48>
LayerCount: 2
Fore
SplineSet
354 686 m 1
 442 686 l 1
 592 48 l 1
 585 0 l 1
 18 0 l 1
 25 48 l 1
 354 686 l 1
528 55 m 1
 391 639 l 1
 90 55 l 1
 528 55 l 1
EndSplineSet
Position2: "'cpsp' Capital Spacing lookup 0 subtable" dx=5 dy=0 dh=10 dv=0
EndChar

StartChar: Omega
Encoding: 937 937 209
Width: 736
GlyphClass: 2
Flags: MW
HStem: 0 48<37 82 37 278 31 82 568 607> 648 48<352.5 461>
VStem: 92 52<187.5 238 157 247.5> 590 53<441.5 531.5>
LayerCount: 2
Fore
SplineSet
643 456 m 0
 643 332 611 127 497 44 c 1
 568 48 l 1
 613 48 l 1
 607 0 l 1
 360 0 l 1
 364 29 l 1
 463 41 548 106 575 306 c 0
 588 400 590 429 590 454 c 0
 590 609 511 648 411 648 c 0
 294 648 190 595 159 368 c 0
 147 276 144 250 144 226 c 0
 144 88 199 40 282 29 c 1
 278 0 l 1
 31 0 l 1
 37 48 l 1
 82 48 l 1
 155 44 l 1
 116 82 92 142 92 233 c 0
 92 262 95 294 104 356 c 0
 145 631 270 696 417 696 c 0
 544 696 643 647 643 456 c 0
EndSplineSet
Position2: "'cpsp' Capital Spacing lookup 0 subtable" dx=5 dy=0 dh=10 dv=0
EndChar

StartChar: mu
Encoding: 956 956 210
Width: 598
GlyphClass: 2
Flags: MW
HStem: -10 46<231 291.5> 491 20G<142 193 193 193 494 545 545 545>
VStem: 431 51<51.5 57.5>
LayerCount: 2
Fore
SplineSet
270 36 m 0
 360 36 437 105 450 197 c 2
 494 511 l 1
 545 511 l 1
 482 66 482 62 482 60 c 0
 482 43 492 36 505 36 c 0
 520 36 541 43 557 52 c 1
 551 9 l 1
 531 -3 508 -10 484 -10 c 0
 444 -10 431 21 431 54 c 0
 431 61 432 69 433 76 c 1
 390 22 325 -10 258 -10 c 0
 203 -10 148 9 122 51 c 1
 122 51 123 41 123 29 c 0
 123 20 122 10 121 1 c 2
 98 -161 l 1
 47 -161 l 1
 142 511 l 1
 193 511 l 1
 145 177 145 166 145 156 c 0
 145 76 192 36 270 36 c 0
EndSplineSet
EndChar

StartChar: pi
Encoding: 960 960 211
Width: 627
GlyphClass: 2
Flags: MW
HStem: 0 21G<39 88 39 39 384 432 384 384> 465 45<142.5 585 227 432 227 227 482 572 482 482>
VStem: 378 50<38.5 70>
LayerCount: 2
Fore
SplineSet
572 465 m 1
 482 465 l 1
 434 129 428 99 428 49 c 0
 428 28 429 12 432 0 c 1
 384 0 l 1
 382 6 378 22 378 45 c 0
 378 95 380 97 432 465 c 1
 227 465 l 1
 203 336 137 90 88 0 c 1
 39 0 l 1
 91 103 153 331 177 465 c 1
 108 465 76 460 53 452 c 1
 47 484 l 1
 74 499 115 510 190 510 c 2
 585 510 l 1
 572 465 l 1
EndSplineSet
EndChar

StartChar: zero
Encoding: 48 48 212
Width: 615
Flags: MW
HStem: -10 48<230.5 322 230.5 337> 648 48<310.5 402.5>
VStem: 74 54<138.5 179> 505 54<506 547.5>
LayerCount: 2
Fore
SplineSet
556 475 m 2
 519 211 l 2
 500 77 407 -10 267 -10 c 0
 152 -10 74 61 74 173 c 0
 74 185 75 198 77 211 c 2
 114 475 l 2
 133 609 229 696 366 696 c 0
 481 696 559 625 559 512 c 0
 559 500 558 488 556 475 c 2
464 205 m 2
 503 481 l 2
 504 490 505 498 505 506 c 0
 505 589 446 648 359 648 c 0
 262 648 182 577 169 481 c 2
 130 205 l 2
 129 196 128 188 128 180 c 0
 128 97 187 38 274 38 c 0
 370 38 450 109 464 205 c 2
EndSplineSet
EndChar

StartChar: one
Encoding: 49 49 213
Width: 615
Flags: MW
HStem: 0 48<64 259 313 502 58 259> 619 34<149 149 149 340 145 149> 619 77<145 404>
VStem: 58 450<0 48>
LayerCount: 2
Fore
SplineSet
64 48 m 1xb0
 259 48 l 1
 340 619 l 1
 145 619 l 1xb0
 149 653 l 1xd0
 205 660 284 667 381 696 c 1
 404 696 l 1
 313 48 l 1
 508 48 l 1
 502 0 l 1
 58 0 l 1
 64 48 l 1xb0
EndSplineSet
Substitution2: "'sups' Superscript lookup 1 subtable" onesuperior
Substitution2: "'aalt' Access All Alternates lookup 0 subtable" onesuperior
EndChar

StartChar: two
Encoding: 50 50 214
Width: 615
Flags: MW
HStem: 0 48<96 485> 648 48<298 400>
VStem: 32.5 63.5 496 55<465.5 552>
LayerCount: 2
Fore
SplineSet
31 0 m 1
 34 23 l 2
 46 110 87 152 161 196 c 2
 382 327 l 2
 438 360 496 419 496 512 c 0
 496 592 446 648 354 648 c 0
 242 648 170 561 157 454 c 1
 103 454 l 1
 117 598 225 696 360 696 c 0
 481 696 551 619 551 516 c 0
 551 391 470 323 400 281 c 2
 169 144 l 2
 134 123 104 91 96 48 c 1
 491 48 l 1
 485 0 l 1
 31 0 l 1
EndSplineSet
Substitution2: "'sups' Superscript lookup 1 subtable" twosuperior
Substitution2: "'aalt' Access All Alternates lookup 0 subtable" twosuperior
EndChar

StartChar: three
Encoding: 51 51 215
Width: 615
Flags: MW
HStem: -10 46<219.5 321 219.5 333.5> 327 48<238 308 231 310> 648 48<307.5 393.5>
VStem: 57 53<119.5 158> 118 53 467 53<150.5 246> 497 55<485.5 572.5>
LayerCount: 2
Fore
SplineSet
114 199 m 1xf4
 112 181 l 2
 111 173 110 165 110 158 c 0
 110 81 172 36 267 36 c 0
 375 36 467 97 467 204 c 0xf4
 467 288 396 327 308 327 c 2
 231 327 l 1
 238 375 l 1
 310 375 l 2
 405 375 497 426 497 533 c 0
 497 612 434 648 353 648 c 0
 262 648 184 599 172 511 c 2
 170 497 l 1
 117 497 l 1
 119 511 l 2
 136 629 241 696 360 696 c 0
 469 696 552 641 552 540 c 0xfa
 552 431 489 389 415 355 c 1
 415 351 l 1
 476 332 520 288 520 212 c 0
 520 73 406 -10 261 -10 c 0
 140 -10 57 53 57 153 c 0
 57 163 57 172 59 182 c 2
 61 199 l 1
 114 199 l 1xf4
EndSplineSet
Substitution2: "'sups' Superscript lookup 1 subtable" threesuperior
Substitution2: "'aalt' Access All Alternates lookup 0 subtable" threesuperior
EndChar

StartChar: four
Encoding: 52 52 216
Width: 615
Flags: MW
HStem: 0 235<353 386 353 353> 187 48<40 40 97 379 33 40 442 517> 676 20G<340 396 396 396>
VStem: 33 491<187 235>
LayerCount: 2
Fore
SplineSet
386 235 m 1x70
 422 492 l 1
 435 512 458 550 470 573 c 1
 489 573 l 1
 442 235 l 1
 524 235 l 1
 517 187 l 1
 435 187 l 1x70
 409 0 l 1
 353 0 l 1xb0
 379 187 l 1
 33 187 l 1
 40 235 l 1
 87 284 257 532 340 696 c 1
 396 696 l 1
 315 521 166 301 97 235 c 1
 386 235 l 1x70
EndSplineSet
EndChar

StartChar: five
Encoding: 53 53 217
Width: 615
Flags: MW
HStem: -10 48<229.5 332 229.5 348.5> 392 49<307.5 361.5> 632 54<232 545 232 232>
VStem: 71 55<140.5 181> 464 55<189 285.5>
LayerCount: 2
Fore
SplineSet
74 211 m 1
 128 211 l 1
 126 201 126 191 126 181 c 0
 126 100 181 38 278 38 c 0
 386 38 464 136 464 242 c 0
 464 329 403 392 320 392 c 0
 257 392 192 356 156 303 c 1
 109 310 l 1
 189 686 l 1
 552 686 l 1
 545 632 l 1
 232 632 l 1
 178 382 l 1
 225 421 281 441 334 441 c 0
 447 441 519 367 519 255 c 0
 519 117 425 -10 272 -10 c 0
 143 -10 71 70 71 175 c 0
 71 187 72 199 74 211 c 1
EndSplineSet
EndChar

StartChar: six
Encoding: 54 54 218
Width: 615
Flags: MW
HStem: -10 48<238.5 335.5 238.5 345> 381 48<310 373.5> 648 48<314.5 406.5>
VStem: 82 54<138.5 179> 475 54<183 282> 503 52<508.5 549>
LayerCount: 2
Fore
SplineSet
177 481 m 2xf8
 157 341 l 1
 203 396 275 429 345 429 c 0
 454 429 529 354 529 246 c 0xf8
 529 92 415 -10 275 -10 c 0
 160 -10 82 61 82 173 c 0
 82 185 83 198 85 211 c 2
 122 475 l 2
 141 609 243 696 370 696 c 0
 484 696 555 626 555 515 c 0
 555 502 554 489 552 475 c 1
 500 475 l 1
 502 490 503 499 503 508 c 0xf4
 503 590 450 648 363 648 c 0
 266 648 191 577 177 481 c 2xf8
330 381 m 0
 225 381 136 295 136 180 c 0
 136 97 195 38 282 38 c 0
 389 38 475 125 475 241 c 0
 475 323 417 381 330 381 c 0
EndSplineSet
EndChar

StartChar: seven
Encoding: 55 55 219
Width: 615
Flags: MW
HStem: 0 21G<157 219 157 157> 632 54<123 504 115 594>
VStem: 157 62<0 0>
LayerCount: 2
Fore
SplineSet
594 686 m 1
 589 656 l 1
 419 489 235 247 219 0 c 1
 157 0 l 1
 194 263 368 491 504 632 c 1
 115 632 l 1
 123 686 l 1
 594 686 l 1
EndSplineSet
EndChar

StartChar: eight
Encoding: 56 56 220
Width: 615
Flags: MW
HStem: -10 48<222 330 222 349.5> 328 48<284 365.5> 648 48<315 401.5>
VStem: 65 55<120.5 206> 135 54<453.5 541 453.5 547> 472 54<150 244.5> 494 55<489 573>
LayerCount: 2
Fore
SplineSet
425 356 m 1xf4
 425 352 l 1
 486 326 526 288 526 215 c 0
 526 81 430 -10 269 -10 c 0
 146 -10 65 44 65 150 c 0xf4
 65 262 131 326 214 352 c 1
 214 356 l 1
 167 381 135 414 135 480 c 0
 135 614 235 696 368 696 c 0
 479 696 549 639 549 543 c 0xfa
 549 435 491 387 425 356 c 1xf4
360 648 m 0xfa
 270 648 189 592 189 490 c 0
 189 417 246 376 322 376 c 0
 412 376 494 432 494 537 c 0
 494 609 443 648 360 648 c 0xfa
276 38 m 0xf4
 384 38 472 93 472 207 c 0
 472 282 415 328 316 328 c 0
 197 328 120 259 120 157 c 0
 120 84 168 38 276 38 c 0xf4
EndSplineSet
EndChar

StartChar: nine
Encoding: 57 57 221
Width: 615
Flags: MW
HStem: -10 48<225.5 317 225.5 329.5> 257 48<260.5 324> 648 48<297.5 395.5>
VStem: 75 52<137 177.5> 104 55<404 502.5 404 516.5> 498 54<506 547.5>
LayerCount: 2
Fore
SplineSet
457 205 m 2xec
 477 346 l 1
 431 291 359 257 289 257 c 0
 180 257 104 331 104 440 c 0xec
 104 593 224 696 359 696 c 0
 474 696 552 625 552 512 c 0
 552 500 551 488 512 211 c 0
 493 77 397 -10 262 -10 c 0
 148 -10 75 60 75 171 c 0
 75 184 76 197 78 211 c 1
 130 211 l 1
 128 196 127 187 127 178 c 0xf4
 127 96 182 38 269 38 c 0
 365 38 443 109 457 205 c 2xec
304 305 m 0
 411 305 498 397 498 506 c 0
 498 589 439 648 352 648 c 0
 243 648 159 560 159 445 c 0
 159 363 217 305 304 305 c 0
EndSplineSet
EndChar

StartChar: fraction
Encoding: 8260 8260 222
Width: 479
Flags: MW
HStem: 0 21G<-36 -36 -36 11> 666 20G<480 524 524 524>
VStem: -36 560
LayerCount: 2
Fore
SplineSet
-36 0 m 1
 480 686 l 1
 524 686 l 1
 11 0 l 1
 -36 0 l 1
EndSplineSet
EndChar

StartChar: onehalf
Encoding: 189 189 223
Width: 727
Flags: MW
HStem: 0 38<450 652> 311 38<41 143 185 257 36 143> 345 38<549 600> 634 29<85 85 85 183 81 85> 634 52<81 233>
VStem: 437 41<242 270.5 242 284> 647 42<255 298.5>
LayerCount: 2
Fore
SplineSet
41 349 m 1xce
 143 349 l 1
 183 634 l 1
 81 634 l 1xce
 85 663 l 1xd6
 128 665 155 669 211 686 c 1
 233 686 l 1
 185 349 l 1
 262 349 l 1
 257 311 l 1
 36 311 l 1
 41 349 l 1xce
83 0 m 1
 600 686 l 1
 644 686 l 1
 130 0 l 1
 83 0 l 1
398 0 m 1
 401 19 l 2
 408 63 433 91 473 115 c 2
 590 186 l 2
 618 203 647 231 647 279 c 0
 647 318 623 345 577 345 c 0
 521 345 478 299 478 242 c 1
 437 242 l 1
 437 326 510 383 582 383 c 0
 651 383 689 340 689 283 c 0xae
 689 214 643 174 605 151 c 2
 482 76 l 2
 459 62 451 48 450 38 c 1
 658 38 l 1
 652 0 l 1
 398 0 l 1
EndSplineSet
Ligature2: "'frac' Diagonal Fractions lookup 2 subtable" one slash two
EndChar

StartChar: onequarter
Encoding: 188 188 224
Width: 701
Flags: MW
HStem: 0 135<566 566 566 585 453 607> 98 37<453 580 626 664 453 621> 311 38<43 145 187 259 38 145> 634 29<87 87 87 185 83 87> 634 52<83 235>
VStem: 38 631<135 311>
LayerCount: 2
Fore
SplineSet
43 349 m 1x6c
 145 349 l 1
 185 634 l 1
 83 634 l 1xac
 87 663 l 1x74
 130 665 157 669 213 686 c 1
 235 686 l 1
 187 349 l 1
 264 349 l 1
 259 311 l 1
 38 311 l 1
 43 349 l 1x6c
85 0 m 1
 602 686 l 1
 646 686 l 1
 132 0 l 1
 85 0 l 1
585 135 m 1x6c
 604 265 l 1
 613 279 623 295 631 311 c 1
 651 311 l 1
 626 135 l 1
 669 135 l 1
 664 98 l 1
 621 98 l 1x6c
 607 0 l 1
 566 0 l 1xac
 580 98 l 1
 399 98 l 1
 404 132 l 1
 428 157 519 287 563 375 c 1
 606 375 l 1
 565 290 494 181 453 135 c 1
 585 135 l 1x6c
EndSplineSet
Ligature2: "'frac' Diagonal Fractions lookup 2 subtable" one slash four
EndChar

StartChar: threequarters
Encoding: 190 190 225
Width: 698
Flags: MW
HStem: 0 135<594 594 594 613 481 635> 98 37<481 608 654 692 481 649> 304 36<149 205.5 149 215> 484 37<151 193 146 195> 655 37<193.5 237> 666 20G<644 688 688 688>
VStem: 53 40<382 398.5> 86 40 271 40<396 444> 288 41<575 617>
LayerCount: 2
Fore
SplineSet
57 427 m 1x7a80
 97 427 l 1
 94 414 93 406 93 401 c 0
 93 363 118 340 180 340 c 0
 231 340 271 369 271 423 c 0
 271 465 237 484 193 484 c 2xb680
 146 484 l 1
 151 521 l 1
 195 521 l 2
 243 521 288 545 288 598 c 0
 288 636 257 655 217 655 c 0
 170 655 133 630 127 587 c 2
 125 574 l 1
 85 574 l 1
 87 587 l 2
 97 654 154 692 222 692 c 0
 282 692 329 662 329 604 c 0x7940
 329 546 301 524 264 505 c 1
 292 492 311 467 311 429 c 0
 311 351 255 304 175 304 c 0
 102 304 53 339 53 396 c 0
 53 401 53 410 57 427 c 1x7a80
128 0 m 1
 644 686 l 1
 688 686 l 1
 175 0 l 1
 128 0 l 1
613 135 m 1x7a80
 631 265 l 1
 640 279 650 295 659 311 c 1
 679 311 l 1
 654 135 l 1
 697 135 l 1
 692 98 l 1
 649 98 l 1x7a80
 635 0 l 1
 594 0 l 1xba80
 608 98 l 1
 427 98 l 1
 431 132 l 1
 456 157 546 287 591 375 c 1
 634 375 l 1
 593 290 521 181 481 135 c 1
 613 135 l 1x7a80
EndSplineSet
Ligature2: "'frac' Diagonal Fractions lookup 2 subtable" three slash four
EndChar

StartChar: onesuperior
Encoding: 185 185 226
Width: 301
Flags: MW
HStem: 422 38<18 120 162 234 13 120> 745 29<63 63 63 161 59 63>
VStem: 13 226<422 460>
LayerCount: 2
Fore
SplineSet
18 460 m 1
 120 460 l 1
 161 745 l 1
 59 745 l 1
 63 774 l 1
 105 776 132 780 188 797 c 1
 210 797 l 1
 162 460 l 1
 239 460 l 1
 234 422 l 1
 13 422 l 1
 18 460 l 1
EndSplineSet
EndChar

StartChar: twosuperior
Encoding: 178 178 227
Width: 334
Flags: MW
HStem: 422 38<64 267> 767 38<162.5 214.5>
VStem: 14 50 52 41<664 692.5 664 701> 262 41<676 719>
LayerCount: 2
Fore
SplineSet
13 422 m 1xe8
 15 441 l 2
 20 486 49 513 88 537 c 2xe8
 205 608 l 2
 231 624 262 653 262 699 c 0
 262 739 238 767 191 767 c 0
 134 767 93 721 93 664 c 1
 52 664 l 1xd8
 52 738 114 805 196 805 c 0
 265 805 303 762 303 705 c 0
 303 635 257 596 219 573 c 2
 96 498 l 2
 73 484 65 470 64 460 c 1
 272 460 l 1
 267 422 l 1
 13 422 l 1xe8
EndSplineSet
EndChar

StartChar: threesuperior
Encoding: 179 179 228
Width: 336
Flags: MW
HStem: 413 36<122 178.5 122 188> 593 37<124 166 119 168> 764 37<166.5 210>
VStem: 26 40<491 507.5> 59 40 244 40<505 553> 261 41<684 726>
LayerCount: 2
Fore
SplineSet
30 536 m 1xf4
 70 536 l 1
 67 523 66 515 66 510 c 0
 66 472 91 449 153 449 c 0
 204 449 244 478 244 532 c 0
 244 574 210 593 166 593 c 2xf4
 119 593 l 1
 124 630 l 1
 168 630 l 2
 216 630 261 654 261 707 c 0
 261 745 230 764 190 764 c 0
 143 764 106 739 100 696 c 2
 98 683 l 1
 58 683 l 1
 60 696 l 2
 70 763 127 801 195 801 c 0
 255 801 302 771 302 713 c 0xea
 302 655 274 633 237 614 c 1
 265 601 284 576 284 538 c 0
 284 460 228 413 148 413 c 0
 75 413 26 448 26 505 c 0
 26 510 26 519 30 536 c 1xf4
EndSplineSet
EndChar

StartChar: asterisk
Encoding: 42 42 229
Width: 469
Flags: MW
HStem: 490 20G<270 270> 492 20G<238 238> 666 20G<250 312 312 312>
VStem: 59 393<519 524>
LayerCount: 2
Fore
SplineSet
369 347 m 1x70
 315 311 l 1
 244 462 l 1
 134 315 l 1
 89 350 l 1
 223 482 l 1
 59 524 l 1
 87 582 l 1
 238 512 l 1x70
 250 686 l 1
 312 686 l 1
 270 510 l 1
 443 578 l 1
 452 519 l 1
 275 480 l 1xb0
 369 347 l 1x70
EndSplineSet
EndChar

StartChar: backslash
Encoding: 92 92 230
Width: 593
Flags: MW
HStem: 0 21G<363 423 363 363> 666 20G<68 128 128 128>
VStem: 68 355
LayerCount: 2
Fore
SplineSet
68 686 m 1
 128 686 l 1
 423 0 l 1
 363 0 l 1
 68 686 l 1
EndSplineSet
EndChar

StartChar: periodcentered
Encoding: 183 183 231
Width: 235
Flags: MW
HStem: 254 69<89 145 80 154>
VStem: 84.5 65
LayerCount: 2
Fore
SplineSet
154 323 m 1
 145 254 l 1
 80 254 l 1
 89 323 l 1
 154 323 l 1
EndSplineSet
EndChar

StartChar: bullet
Encoding: 8226 8226 232
Width: 600
Flags: MW
HStem: 203 282<276 337>
VStem: 164 285<322 367.5>
LayerCount: 2
Fore
SplineSet
449 362 m 0
 449 282 388 203 286 203 c 0
 216 203 164 256 164 324 c 0
 164 411 227 485 325 485 c 0
 397 485 449 432 449 362 c 0
EndSplineSet
EndChar

StartChar: colon
Encoding: 58 58 233
Width: 238
Flags: MW
HStem: 0 69<37 93 28 102> 442 69<99 155 90 164>
VStem: 32.5 65 94.5 65
LayerCount: 2
Fore
SplineSet
164 511 m 1xd0
 155 442 l 1
 90 442 l 1
 99 511 l 1
 164 511 l 1xd0
102 69 m 1xe0
 93 0 l 1
 28 0 l 1
 37 69 l 1
 102 69 l 1xe0
EndSplineSet
EndChar

StartChar: comma
Encoding: 44 44 234
Width: 237
Flags: MW
HStem: -101 170<46 58 24 111> 0 69<46 61 37 111>
VStem: 41.5 65.5
LayerCount: 2
Fore
SplineSet
58 -101 m 1xa0
 24 -101 l 2
 25 -101 61 0 61 0 c 1
 37 0 l 1
 46 69 l 1
 111 69 l 1
 103 11 l 1x60
 58 -101 l 1xa0
EndSplineSet
EndChar

StartChar: ellipsis
Encoding: 8230 8230 235
Width: 734
Flags: MW
HStem: 0 69<38 94 29 103 251 307 463 519>
VStem: 33.5 65 246.5 65 458.5 65
LayerCount: 2
Fore
SplineSet
103 69 m 1
 94 0 l 1
 29 0 l 1
 38 69 l 1
 103 69 l 1
316 69 m 1
 307 0 l 1
 242 0 l 1
 251 69 l 1
 316 69 l 1
528 69 m 1
 519 0 l 1
 454 0 l 1
 463 69 l 1
 528 69 l 1
EndSplineSet
EndChar

StartChar: exclam
Encoding: 33 33 236
Width: 269
Flags: MW
HStem: 0 69<53 108 43 118> 666 20G<141 205 205 205>
VStem: 48 65
LayerCount: 2
Fore
SplineSet
141 686 m 1
 205 686 l 1
 205 686 148 339 116 141 c 1
 75 141 l 1
 141 686 l 1
118 69 m 1
 108 0 l 1
 43 0 l 1
 53 69 l 1
 118 69 l 1
EndSplineSet
EndChar

StartChar: exclamdown
Encoding: 161 161 237
Width: 254
Flags: MW
HStem: 441 69<101 156 91 166>
VStem: 96 65
LayerCount: 2
Fore
SplineSet
166 510 m 1
 156 441 l 1
 91 441 l 1
 101 510 l 1
 166 510 l 1
135 369 m 1
 69 -176 l 1
 3 -176 l 1
 93 369 l 1
 135 369 l 1
EndSplineSet
EndChar

StartChar: numbersign
Encoding: 35 35 238
Width: 644
Flags: MW
HStem: 0 246<62 120 62 62 286 344 286 286> 188 58<22 130 14 151 209 354 22 188 433 551> 420 58<93 215 85 236 93 273 294 439 518 623> 676 20G<315 374 374 374 539 598 598 598>
VStem: 14 617<188 478>
LayerCount: 2
Fore
SplineSet
433 246 m 1x78
 559 246 l 1
 551 188 l 1
 412 188 l 1x78
 344 0 l 1
 286 0 l 1xb8
 354 188 l 1
 188 188 l 1x78
 120 0 l 1
 62 0 l 1xb8
 130 188 l 1
 14 188 l 1
 22 246 l 1
 151 246 l 1
 215 420 l 1
 85 420 l 1
 93 478 l 1
 236 478 l 1
 315 696 l 1
 374 696 l 1
 294 478 l 1
 460 478 l 1
 539 696 l 1
 598 696 l 1
 518 478 l 1
 631 478 l 1
 623 420 l 1
 497 420 l 1
 433 246 l 1x78
375 246 m 1
 439 420 l 1
 273 420 l 1
 209 246 l 1
 375 246 l 1
EndSplineSet
EndChar

StartChar: period
Encoding: 46 46 239
Width: 238
Flags: MW
HStem: 0 69<38 94 29 103>
VStem: 33.5 65
LayerCount: 2
Fore
SplineSet
103 69 m 1
 94 0 l 1
 29 0 l 1
 38 69 l 1
 103 69 l 1
EndSplineSet
EndChar

StartChar: question
Encoding: 63 63 240
Width: 502
Flags: MW
HStem: 0 69<176 232 167 241> 648 49<214.5 335>
VStem: 55 55 171.5 65 404 54<453.5 557>
LayerCount: 2
Fore
SplineSet
196 166 m 1
 207 244 l 2
 224 369 404 373 404 534 c 0
 404 580 386 648 284 648 c 0
 145 648 115 529 110 494 c 0
 109 484 109 465 109 465 c 1
 55 465 l 1
 55 476 56 492 57 498 c 0
 61 529 94 697 289 697 c 0
 441 697 458 590 458 539 c 0
 458 351 275 346 259 231 c 2
 250 166 l 1
 196 166 l 1
241 69 m 1
 232 0 l 1
 167 0 l 1
 176 69 l 1
 241 69 l 1
EndSplineSet
EndChar

StartChar: questiondown
Encoding: 191 191 241
Width: 494
Flags: MW
HStem: -186 49<136 256.5 136 279.5> 442 69<230 304 239 295>
VStem: 13 54<-46 57.5 -46 66> 234.5 65 361 55
LayerCount: 2
Fore
SplineSet
230 442 m 1
 239 511 l 1
 304 511 l 1
 295 442 l 1
 230 442 l 1
275 345 m 1
 264 267 l 2
 247 142 67 138 67 -23 c 0
 67 -69 85 -137 187 -137 c 0
 326 -137 356 -18 361 17 c 0
 362 27 362 46 362 46 c 1
 416 46 l 1
 416 35 415 19 414 13 c 0
 410 -18 377 -186 182 -186 c 0
 30 -186 13 -79 13 -28 c 0
 13 160 196 165 212 280 c 2
 221 345 l 1
 275 345 l 1
EndSplineSet
EndChar

StartChar: quotedbl
Encoding: 34 34 242
Width: 363
Flags: MW
HStem: 666 20G<126 178 178 178 259 311 311 311>
VStem: 101.5 26.5 234.5 26.5
LayerCount: 2
Fore
SplineSet
126 686 m 1
 178 686 l 1
 157 539 l 1
 128 414 l 1
 98 414 l 1
 105 539 l 1
 126 686 l 1
259 686 m 1
 311 686 l 1
 290 539 l 1
 261 414 l 1
 231 414 l 1
 238 539 l 1
 259 686 l 1
EndSplineSet
EndChar

StartChar: quotesingle
Encoding: 39 39 243
Width: 209
Flags: MW
HStem: 666 20G<126 178 178 178>
VStem: 101.5 26.5
LayerCount: 2
Fore
SplineSet
126 686 m 1
 178 686 l 1
 157 539 l 1
 128 414 l 1
 98 414 l 1
 105 539 l 1
 126 686 l 1
EndSplineSet
EndChar

StartChar: semicolon
Encoding: 59 59 244
Width: 238
Flags: MW
HStem: -101 170<47 58 24 112> 0 69<47 62 38 112> 442 69<110 165 100 175>
VStem: 42.5 65.5 105 65
LayerCount: 2
Fore
SplineSet
175 511 m 1x68
 165 442 l 1
 100 442 l 1
 110 511 l 1
 175 511 l 1x68
58 -101 m 1xb0
 24 -101 l 2
 25 -101 62 0 62 0 c 1
 38 0 l 1
 47 69 l 1
 112 69 l 1
 104 11 l 1x70
 58 -101 l 1xb0
EndSplineSet
EndChar

StartChar: slash
Encoding: 47 47 245
Width: 489
Flags: MW
HStem: 666 20G<565 624 624 624>
VStem: -45 669
LayerCount: 2
Fore
SplineSet
-45 -171 m 1
 565 686 l 1
 624 686 l 1
 15 -171 l 1
 -45 -171 l 1
EndSplineSet
EndChar

StartChar: underscore
Encoding: 95 95 246
Width: 687
Flags: MW
HStem: -122 58<43 534 35 543>
VStem: 35 508<-122 -64>
LayerCount: 2
Fore
SplineSet
43 -64 m 1
 543 -64 l 1
 534 -122 l 1
 35 -122 l 1
 43 -64 l 1
EndSplineSet
EndChar

StartChar: braceleft
Encoding: 123 123 247
Width: 314
Flags: MW
HStem: -159 38<176.5 185> 224 35<30 102> 268 35<41 109> 648 38<285 299>
VStem: 68 51<-90 -48.5 -90 -40> 99 46<160.5 193>
LayerCount: 2
Fore
SplineSet
76 268 m 1xb8
 75 259 l 1
 129 259 145 234 145 190 c 0xf4
 145 131 119 -27 119 -70 c 0
 119 -110 163 -121 190 -121 c 1
 185 -159 l 1xb8
 131 -159 68 -136 68 -66 c 0
 68 -14 99 137 99 175 c 0
 99 211 64 224 30 224 c 1xf4
 41 303 l 1
 77 303 120 318 126 360 c 2
 156 574 l 2xb4
 169 669 246 686 304 686 c 1
 299 648 l 1
 271 648 219 635 211 589 c 2
 174 371 l 2
 163 306 142 268 76 268 c 1xb8
EndSplineSet
EndChar

StartChar: braceright
Encoding: 125 125 248
Width: 314
Flags: MW
HStem: -159 38<-19 -5 -19 5> 224 35<171 239> 268 35<178 250> 648 38<95 103.5>
VStem: 135 46<334 366.5> 161 51<575.5 617>
LayerCount: 2
Fore
SplineSet
204 259 m 1xd4
 205 268 l 1
 151 268 135 293 135 337 c 0xf8
 135 396 161 554 161 597 c 0
 161 637 117 648 90 648 c 1
 95 686 l 1xd4
 149 686 212 663 212 593 c 0
 212 541 181 390 181 352 c 0
 181 316 216 303 250 303 c 1xf8
 239 224 l 1
 203 224 160 209 154 167 c 2
 124 -47 l 2xd8
 111 -142 34 -159 -24 -159 c 1
 -19 -121 l 1
 9 -121 61 -108 69 -62 c 2
 106 156 l 2
 117 221 138 259 204 259 c 1xd4
EndSplineSet
EndChar

StartChar: bracketleft
Encoding: 91 91 249
Width: 294
Flags: MW
HStem: -161 38<80 163> 648 38<189 277 189 189>
VStem: 22 260
LayerCount: 2
Fore
SplineSet
141 686 m 1
 282 686 l 1
 277 648 l 1
 189 648 l 1
 80 -123 l 1
 168 -123 l 1
 163 -161 l 1
 22 -161 l 1
 141 686 l 1
EndSplineSet
EndChar

StartChar: bracketright
Encoding: 93 93 250
Width: 294
Flags: MW
HStem: -161 38<-19 69 -19 117 -24 69> 648 38<95 178 90 236>
VStem: -24 260
LayerCount: 2
Fore
SplineSet
-19 -123 m 1
 69 -123 l 1
 178 648 l 1
 90 648 l 1
 95 686 l 1
 236 686 l 1
 117 -161 l 1
 -24 -161 l 1
 -19 -123 l 1
EndSplineSet
EndChar

StartChar: parenleft
Encoding: 40 40 251
Width: 289
Flags: MW
HStem: 666 20G<278 307 307 307>
VStem: 54 51<115.5 269 111 276.5>
LayerCount: 2
Fore
SplineSet
54 177 m 0
 54 376 139 544 278 686 c 1
 307 686 l 1
 197 548 105 365 105 173 c 0
 105 49 140 -65 188 -157 c 1
 159 -157 l 1
 90 -63 54 54 54 177 c 0
EndSplineSet
EndChar

StartChar: parenright
Encoding: 41 41 252
Width: 289
Flags: MW
HStem: 666 20G<85 114 114 114>
VStem: 168 52<258 412.5 251.5 415.5>
LayerCount: 2
Fore
SplineSet
220 351 m 0
 220 152 134 -15 -4 -157 c 1
 -33 -157 l 1
 74 -21 168 163 168 353 c 0
 168 478 133 594 85 686 c 1
 114 686 l 1
 183 592 220 474 220 351 c 0
EndSplineSet
EndChar

StartChar: emdash
Encoding: 8212 8212 253
Width: 1056
Flags: MW
HStem: 239 57<71 972 63 981>
VStem: 63 918<239 296>
LayerCount: 2
Fore
SplineSet
71 296 m 1
 981 296 l 1
 972 239 l 1
 63 239 l 1
 71 296 l 1
EndSplineSet
EndChar

StartChar: endash
Encoding: 8211 8211 254
Width: 637
Flags: MW
HStem: 239 58<68 559 60 568>
VStem: 60 508<239 297>
LayerCount: 2
Fore
SplineSet
68 297 m 1
 568 297 l 1
 559 239 l 1
 60 239 l 1
 68 297 l 1
EndSplineSet
EndChar

StartChar: hyphen
Encoding: 45 45 255
Width: 390
Flags: MW
HStem: 237 62<68 312 60 321>
VStem: 60 261<237 299>
LayerCount: 2
Fore
SplineSet
321 299 m 1
 312 237 l 1
 60 237 l 1
 68 299 l 1
 321 299 l 1
EndSplineSet
EndChar

StartChar: softhyphen
Encoding: 173 173 256
Width: 390
Flags: MW
HStem: 237 62<68 312 60 321>
VStem: 60 261<237 299>
LayerCount: 2
Fore
SplineSet
321 299 m 1
 312 237 l 1
 60 237 l 1
 68 299 l 1
 321 299 l 1
EndSplineSet
EndChar

StartChar: guillemetleft
Encoding: 171 171 257
Width: 458
Flags: MW
HStem: 337 174<55 243 122 243 237 237 202 305>
VStem: 55 371<337 511>
LayerCount: 2
Fore
SplineSet
55 337 m 1
 202 511 l 1
 243 511 l 1
 122 337 l 1
 194 163 l 1
 153 163 l 1
 55 337 l 1
237 337 m 1
 385 511 l 1
 426 511 l 1
 305 337 l 1
 377 163 l 1
 336 163 l 1
 237 337 l 1
EndSplineSet
EndChar

StartChar: guillemetright
Encoding: 187 187 258
Width: 460
Flags: MW
HStem: 337 174<86 159 86 227>
VStem: 37 372<163 337>
LayerCount: 2
Fore
SplineSet
159 337 m 1
 86 511 l 1
 127 511 l 1
 227 337 l 1
 78 163 l 1
 37 163 l 1
 159 337 l 1
342 337 m 1
 269 511 l 1
 310 511 l 1
 409 337 l 1
 261 163 l 1
 220 163 l 1
 342 337 l 1
EndSplineSet
EndChar

StartChar: guilsinglleft
Encoding: 8249 8249 259
Width: 276
Flags: MW
HStem: 491 20G<202 243 243 243>
VStem: 55 188<337 511>
LayerCount: 2
Fore
SplineSet
55 337 m 1
 202 511 l 1
 243 511 l 1
 122 337 l 1
 194 163 l 1
 153 163 l 1
 55 337 l 1
EndSplineSet
EndChar

StartChar: guilsinglright
Encoding: 8250 8250 260
Width: 278
Flags: MW
HStem: 491 20G<86 127 127 127>
VStem: 37 189<163 337>
LayerCount: 2
Fore
SplineSet
159 337 m 1
 86 511 l 1
 127 511 l 1
 226 337 l 1
 78 163 l 1
 37 163 l 1
 159 337 l 1
EndSplineSet
EndChar

StartChar: quotedblbase
Encoding: 8222 8222 261
Width: 379
Flags: MW
HStem: -101 170<46 58 24 111 46 123.5 145 157> 0 69<46 61 37 111 46 136 145 160>
VStem: 41.5 65.5 140.5 65.5
LayerCount: 2
Fore
SplineSet
58 -101 m 1xb0
 24 -101 l 2
 25 -101 61 0 61 0 c 1
 37 0 l 1
 46 69 l 1
 111 69 l 1
 103 11 l 1x70
 58 -101 l 1xb0
157 -101 m 1xb0
 123 -101 l 2
 124 -101 160 0 160 0 c 1
 136 0 l 1
 145 69 l 1
 210 69 l 1
 202 11 l 1x70
 157 -101 l 1xb0
EndSplineSet
EndChar

StartChar: quotedblleft
Encoding: 8220 8220 262
Width: 366
Flags: MW
HStem: 516 69<133 148 83 157 133 182 232 247> 516 170<136 148 83 170 136 182 235 247>
VStem: 87 65.5 186 65.5
LayerCount: 2
Fore
SplineSet
136 686 m 1x70
 170 686 l 2x70
 169 686 133 585 133 585 c 1
 157 585 l 1xb0
 148 516 l 1
 83 516 l 1
 91 574 l 1
 136 686 l 1x70
235 686 m 1
 269 686 l 2x70
 268 686 232 585 232 585 c 1
 256 585 l 1xb0
 247 516 l 1
 182 516 l 1
 190 574 l 1
 235 686 l 1
EndSplineSet
EndChar

StartChar: quotedblright
Encoding: 8221 8221 263
Width: 360
Flags: MW
HStem: 496 20G<96 130 96 96.5 195 195.5 195 229> 516 170<118 130 96 183 118 195.5 217 229> 617 69<118 133 109 183 118 208 217 232>
VStem: 113.5 65.5 212.5 65.5
LayerCount: 2
Fore
SplineSet
130 516 m 1x58
 96 516 l 2
 97 516 133 617 133 617 c 1
 109 617 l 1
 118 686 l 1
 183 686 l 1
 175 628 l 1xb8
 130 516 l 1x58
229 516 m 1x58
 195 516 l 2
 196 516 232 617 232 617 c 1
 208 617 l 1
 217 686 l 1
 282 686 l 1
 274 628 l 1xb8
 229 516 l 1x58
EndSplineSet
EndChar

StartChar: quoteleft
Encoding: 8216 8216 264
Width: 224
Flags: MW
HStem: 516 69<133 148 83 157> 516 170<136 148 83 170>
VStem: 87 65.5
LayerCount: 2
Fore
SplineSet
136 686 m 1x60
 170 686 l 2x60
 169 686 133 585 133 585 c 1
 157 585 l 1xa0
 148 516 l 1
 83 516 l 1
 91 574 l 1
 136 686 l 1x60
EndSplineSet
EndChar

StartChar: quoteright
Encoding: 8217 8217 265
Width: 218
Flags: MW
HStem: 496 20G<96 130 96 96.5> 516 170<118 130 96 183> 617 69<118 133 109 183>
VStem: 113.5 65.5
LayerCount: 2
Fore
SplineSet
130 516 m 1x50
 96 516 l 2
 97 516 133 617 133 617 c 1
 109 617 l 1
 118 686 l 1
 183 686 l 1
 175 628 l 1xb0
 130 516 l 1x50
EndSplineSet
EndChar

StartChar: quotesinglbase
Encoding: 8218 8218 266
Width: 237
Flags: MW
HStem: -101 170<46 58 24 111> 0 69<46 61 37 111>
VStem: 41.5 65.5
LayerCount: 2
Fore
SplineSet
58 -101 m 1xa0
 24 -101 l 2
 25 -101 61 0 61 0 c 1
 37 0 l 1
 46 69 l 1
 111 69 l 1
 103 11 l 1x60
 58 -101 l 1xa0
EndSplineSet
EndChar

StartChar: cent
Encoding: 162 162 269
Width: 527
Flags: MW
HStem: -6 130<217 266 214 297.5> 78 46<235 235 266 266> 563 45<341 341 341 353.5> 563 130<310 353.5>
VStem: 68 51<227.5 345.5 227.5 357.5> 235 31<-6 78> 310 31<608 693> 447 50<433 477.5>
LayerCount: 2
Fore
SplineSet
428 285 m 1x5f
 478 285 l 1
 461 158 371 85 266 78 c 1x5f
 266 -6 l 1
 214 -6 l 1x9f
 235 78 l 1
 132 84 68 156 68 279 c 0
 68 436 149 606 310 609 c 1
 310 693 l 1
 363 693 l 1x5f
 341 608 l 1x6f
 433 602 497 542 497 439 c 0
 497 427 497 415 495 402 c 1
 445 402 l 1
 446 413 447 424 447 434 c 0
 447 521 390 563 317 563 c 0
 172 563 119 411 119 280 c 0
 119 175 177 124 257 124 c 0
 338 124 413 174 428 285 c 1x5f
EndSplineSet
EndChar

StartChar: currency
Encoding: 164 164 270
Width: 624
Flags: MW
HStem: 88 48<256 312> 535 49<325 381 325 395.5>
VStem: 68 49<275 330> 520 49<339 394.5 339 411.5>
LayerCount: 2
Fore
SplineSet
598 544 m 1
 535 490 l 1
 559 457 569 416 569 373 c 0
 569 305 544 233 492 182 c 1
 539 128 l 1
 491 86 l 1
 443 142 l 1
 396 106 340 88 284 88 c 0
 228 88 176 106 139 142 c 1
 75 86 l 1
 40 128 l 1
 102 182 l 1
 78 214 68 254 68 296 c 0
 68 364 92 438 145 490 c 1
 98 544 l 1
 146 586 l 1
 194 530 l 1
 241 566 297 584 353 584 c 0
 409 584 461 566 498 530 c 1
 562 586 l 1
 598 544 l 1
346 535 m 0
 228 535 117 430 117 308 c 0
 117 211 191 136 290 136 c 0
 406 136 520 241 520 363 c 0
 520 460 445 535 346 535 c 0
EndSplineSet
EndChar

StartChar: dollar
Encoding: 36 36 271
Width: 546
Flags: MW
HStem: 19 50<235 235 266 266> 625 47<328 328 328 358 328 383>
VStem: 33 50<132.5 178.5 132.5 178.5> 94 54<424.5 548 424.5 552.5> 235 31<-66 19> 328 30<672 762> 472 54<157.5 299> 499 50<528 563>
LayerCount: 2
Fore
SplineSet
214 -66 m 1xda
 235 19 l 1
 121 23 33 63 33 171 c 0
 33 186 35 210 38 218 c 1
 89 218 l 1
 87 212 83 185 83 172 c 0xfa
 83 93 160 69 259 69 c 0
 366 69 472 98 472 217 c 0xda
 472 381 94 291 94 491 c 0
 94 614 205 668 328 672 c 1
 328 762 l 1
 381 762 l 1
 358 672 l 1
 466 669 549 629 549 532 c 0
 549 524 548 515 545 494 c 1
 495 494 l 1
 499 520 499 525 499 530 c 0xdd
 499 596 428 625 338 625 c 0
 239 625 148 595 148 501 c 0
 148 348 526 434 526 230 c 0
 526 77 397 21 266 19 c 1
 266 -66 l 1
 214 -66 l 1xda
EndSplineSet
EndChar

StartChar: euro
Encoding: 8364 8364 272
Width: 562
Flags: MW
HStem: -10 46<347.5 422> 247 48<30 125 30 127 23 125 181 404 181 181> 385 48<49 137 42 151 206 423 49 191> 648 48<432 514> 672 20G<568 568>
VStem: 125 54<295 309>
LayerCount: 2
Fore
SplineSet
49 433 m 1xf4
 151 433 l 1
 205 584 339 696 511 696 c 0xf4
 531 696 550 695 568 692 c 1xec
 561 642 l 1
 543 646 524 648 504 648 c 0
 360 648 254 557 206 433 c 1
 430 433 l 1
 423 385 l 1
 191 385 l 1
 183 356 179 323 179 295 c 1
 411 295 l 1
 404 247 l 1
 181 247 l 1
 196 124 277 36 418 36 c 0
 438 36 458 38 476 41 c 1
 470 -5 l 1
 450 -8 432 -10 412 -10 c 0
 241 -10 140 98 127 247 c 1
 23 247 l 1
 30 295 l 1
 125 295 l 1
 127 322 128 356 137 385 c 1
 42 385 l 1
 49 433 l 1xf4
EndSplineSet
EndChar

StartChar: florin
Encoding: 402 402 273
Width: 340
Flags: MW
HStem: -184 46<-21.5 0.5 -21.5 14.5> 465 46<78 128 72 134 185 298 78 179> 682 46<251.5 273.5>
VStem: -80 412
LayerCount: 2
Fore
SplineSet
332 711 m 1
 326 666 l 1
 311 673 281 682 266 682 c 0
 237 682 208 674 200 615 c 2
 185 511 l 1
 304 511 l 1
 298 465 l 1
 179 465 l 1
 103 -73 l 2
 92 -150 44 -184 -15 -184 c 0
 -40 -184 -65 -177 -80 -167 c 1
 -74 -122 l 1
 -59 -129 -29 -138 -14 -138 c 0
 15 -138 44 -130 52 -71 c 2
 128 465 l 1
 72 465 l 1
 78 511 l 1
 134 511 l 1
 149 617 l 2
 160 694 208 728 267 728 c 0
 292 728 317 721 332 711 c 1
EndSplineSet
EndChar

StartChar: sterling
Encoding: 163 163 274
Width: 597
Flags: MW
HStem: 0 48<33 134 175 492 26 134> 314 48<39 171 32 178 232 453 39 225> 652 48<373.5 446.5>
VStem: 534 51<550 582>
LayerCount: 2
Fore
SplineSet
178 362 m 1
 201 524 l 2
 217 640 312 700 419 700 c 0
 516 700 585 650 585 555 c 0
 585 545 585 535 580 505 c 1
 530 505 l 1
 534 527 534 536 534 544 c 0
 534 620 481 652 412 652 c 0
 335 652 267 612 254 518 c 2
 232 362 l 1
 460 362 l 1
 453 314 l 1
 225 314 l 1
 220 277 l 1
 175 48 l 1
 499 48 l 1
 492 0 l 1
 26 0 l 1
 33 48 l 1
 134 48 l 1
 171 314 l 1
 32 314 l 1
 39 362 l 1
 178 362 l 1
EndSplineSet
EndChar

StartChar: yen
Encoding: 165 165 275
Width: 635
Flags: MW
HStem: 0 21G<235 289 235 235> 248 47<57 260 57 270 50 260 348 544> 384 49<76 198 76 220 69 198 447 563> 666 20G<86 149 149 149 577 632 632 632>
VStem: 50 582<248 686>
LayerCount: 2
Fore
SplineSet
198 433 m 1
 86 686 l 1
 149 686 l 1
 307 321 l 1
 312 321 l 1
 577 686 l 1
 632 686 l 1
 447 433 l 1
 570 433 l 1
 563 384 l 1
 412 384 l 1
 348 295 l 1
 551 295 l 1
 544 248 l 1
 324 248 l 1
 289 0 l 1
 235 0 l 1
 270 248 l 1
 50 248 l 1
 57 295 l 1
 260 295 l 1
 220 384 l 1
 69 384 l 1
 76 433 l 1
 198 433 l 1
EndSplineSet
EndChar

StartChar: Ohm
Encoding: 8486 8486 276
Width: 736
Flags: MW
HStem: 0 48<37 82 37 278 31 82 568 607> 648 48<352.5 461>
VStem: 92 52<187.5 238 157 247.5> 590 53<441.5 531.5>
LayerCount: 2
Fore
SplineSet
643 456 m 0
 643 332 611 127 497 44 c 1
 568 48 l 1
 613 48 l 1
 607 0 l 1
 360 0 l 1
 364 29 l 1
 463 41 548 106 575 306 c 0
 588 400 590 429 590 454 c 0
 590 609 511 648 411 648 c 0
 294 648 190 595 159 368 c 0
 147 276 144 250 144 226 c 0
 144 88 199 40 282 29 c 1
 278 0 l 1
 31 0 l 1
 37 48 l 1
 82 48 l 1
 155 44 l 1
 116 82 92 142 92 233 c 0
 92 262 95 294 104 356 c 0
 145 631 270 696 417 696 c 0
 544 696 643 647 643 456 c 0
EndSplineSet
EndChar

StartChar: approxequal
Encoding: 8776 8776 277
Width: 615
Flags: MW
HStem: 83 60<360 442.5> 149 60<127.5 211> 285 60<388 471.5> 351 60<156.5 239>
VStem: -7 613<71 423>
LayerCount: 2
Fore
SplineSet
606 423 m 1
 598 363 l 1
 598 363 519 285 424 285 c 0xa8
 339 285 283 351 195 351 c 0
 100 351 21 273 21 273 c 1
 30 333 l 1
 30 333 109 411 204 411 c 0x58
 289 411 344 345 432 345 c 0
 527 345 606 423 606 423 c 1
578 221 m 1
 569 161 l 1
 569 161 490 83 395 83 c 0xa8
 310 83 255 149 167 149 c 0
 72 149 -7 71 -7 71 c 1
 1 131 l 1
 1 131 80 209 175 209 c 0x68
 260 209 316 143 404 143 c 0
 499 143 578 221 578 221 c 1
EndSplineSet
EndChar

StartChar: asciitilde
Encoding: 126 126 278
Width: 691
Flags: MW
HStem: 236 60<420 503.5> 302 60<187.5 271>
VStem: 53 585<224 374>
LayerCount: 2
Fore
SplineSet
638 374 m 1
 630 314 l 1
 630 314 551 236 456 236 c 0xa0
 371 236 315 302 227 302 c 0
 132 302 53 224 53 224 c 1
 61 284 l 1
 61 284 140 362 235 362 c 0x60
 320 362 376 296 464 296 c 0
 559 296 638 374 638 374 c 1
EndSplineSet
EndChar

StartChar: bulletoperator
Encoding: 8729 8729 279
Width: 235
Flags: MW
HStem: 254 69<89 145 80 154>
VStem: 84.5 65
LayerCount: 2
Fore
SplineSet
154 323 m 1
 145 254 l 1
 80 254 l 1
 89 323 l 1
 154 323 l 1
EndSplineSet
EndChar

StartChar: divide
Encoding: 247 247 280
Width: 615
Flags: MW
HStem: 71 69<252 308 243 317> 226 58<50 553 41 562> 370 69<294 350 285 359>
VStem: 247.5 65 289.5 65
LayerCount: 2
Fore
SplineSet
359 439 m 1xe8
 350 370 l 1
 285 370 l 1
 294 439 l 1
 359 439 l 1xe8
50 284 m 1
 562 284 l 1
 553 226 l 1
 41 226 l 1
 50 284 l 1
317 140 m 1xf0
 308 71 l 1
 243 71 l 1
 252 140 l 1
 317 140 l 1xf0
EndSplineSet
EndChar

StartChar: divisionslash
Encoding: 8725 8725 281
Width: 479
Flags: MW
HStem: 0 21G<-36 -36 -36 11> 666 20G<480 524 524 524>
VStem: -36 560
LayerCount: 2
Fore
SplineSet
-36 0 m 1
 480 686 l 1
 524 686 l 1
 11 0 l 1
 -36 0 l 1
EndSplineSet
EndChar

StartChar: equal
Encoding: 61 61 282
Width: 615
Flags: MW
HStem: 120 58<38 530 30 538> 328 58<67 559 59 567>
VStem: 30 537<120 386>
LayerCount: 2
Fore
SplineSet
67 386 m 1
 567 386 l 1
 559 328 l 1
 59 328 l 1
 67 386 l 1
38 178 m 1
 538 178 l 1
 530 120 l 1
 30 120 l 1
 38 178 l 1
EndSplineSet
EndChar

StartChar: greater
Encoding: 62 62 283
Width: 615
Flags: MW
HStem: 13 482<21 88>
VStem: 21 549<13 298>
LayerCount: 2
Fore
SplineSet
21 13 m 1
 29 75 l 1
 517 254 l 1
 80 433 l 1
 88 495 l 1
 570 298 l 1
 557 210 l 1
 21 13 l 1
EndSplineSet
EndChar

StartChar: greaterequal
Encoding: 8805 8805 284
Width: 615
Flags: MW
HStem: 0 57<16 534 24 526> 501 20G<89 89>
VStem: 16 557<0 344>
LayerCount: 2
Fore
SplineSet
27 79 m 1
 36 141 l 1
 520 300 l 1
 80 459 l 1
 89 521 l 1
 573 344 l 1
 561 256 l 1
 27 79 l 1
16 0 m 1
 24 57 l 1
 534 57 l 1
 526 0 l 1
 16 0 l 1
EndSplineSet
EndChar

StartChar: increment
Encoding: 8710 8710 285
Width: 675
Flags: MW
HStem: 0 55<90 528 90 585> 639 47<391 391>
VStem: 18 574<0 48>
LayerCount: 2
Fore
SplineSet
354 686 m 1
 442 686 l 1
 592 48 l 1
 585 0 l 1
 18 0 l 1
 25 48 l 1
 354 686 l 1
528 55 m 1
 391 639 l 1
 90 55 l 1
 528 55 l 1
EndSplineSet
EndChar

StartChar: infinity
Encoding: 8734 8734 286
Width: 766
Flags: MW
HStem: 126 43<155.5 212.5 525 589.5> 391 41<175.5 243.5 553 607>
VStem: 45 47<234.5 293 234.5 310.5> 668 48<270.5 329>
LayerCount: 2
Fore
SplineSet
716 308 m 0
 716 207 643 126 542 126 c 0
 479 126 436 167 377 245 c 1
 316 185 253 126 172 126 c 0
 100 126 45 182 45 256 c 0
 45 365 129 432 222 432 c 0
 297 432 346 374 389 313 c 1
 399 322 l 2
 456 377 514 432 592 432 c 0
 669 432 716 382 716 308 c 0
185 169 m 0
 250 169 309 233 357 276 c 1
 352 284 l 2
 317 336 278 391 209 391 c 0
 142 391 92 326 92 260 c 0
 92 209 126 169 185 169 c 0
581 391 m 0
 513 391 449 316 408 281 c 1
 465 208 498 169 552 169 c 0
 627 169 668 241 668 300 c 0
 668 358 633 391 581 391 c 0
EndSplineSet
EndChar

StartChar: integral
Encoding: 8747 8747 287
Width: 266
Flags: MW
HStem: -250 38<-44 -30.5 -44 -21.5> 712 38<259 273>
VStem: -50 329
LayerCount: 2
Fore
SplineSet
131 638 m 0
 142 719 221 750 279 750 c 1
 273 712 l 1
 245 712 182 691 176 646 c 2
 176 646 116 14 95 -138 c 0
 83 -222 7 -250 -50 -250 c 1
 -44 -212 l 1
 -17 -212 43 -191 49 -144 c 2
 49 -144 110 486 131 638 c 0
EndSplineSet
EndChar

StartChar: less
Encoding: 60 60 288
Width: 615
Flags: MW
HStem: 13 482<513 580>
VStem: 31 549<210 495>
LayerCount: 2
Fore
SplineSet
580 495 m 1
 572 433 l 1
 85 254 l 1
 521 75 l 1
 513 13 l 1
 31 210 l 1
 44 298 l 1
 580 495 l 1
EndSplineSet
EndChar

StartChar: lessequal
Encoding: 8804 8804 289
Width: 615
Flags: MW
HStem: 0 57<18 520 10 528> 501 20G<593 593>
VStem: 10 583<0 521>
LayerCount: 2
Fore
SplineSet
593 521 m 1
 584 459 l 1
 100 300 l 1
 540 141 l 1
 531 79 l 1
 47 256 l 1
 59 344 l 1
 593 521 l 1
528 57 m 1
 520 0 l 1
 10 0 l 1
 18 57 l 1
 528 57 l 1
EndSplineSet
EndChar

StartChar: logicalnot
Encoding: 172 172 290
Width: 615
Flags: MW
HStem: 376 59<52 498 44 564>
VStem: 44 520<376 435>
LayerCount: 2
Fore
SplineSet
471 184 m 1
 498 376 l 1
 44 376 l 1
 52 435 l 1
 564 435 l 1
 529 184 l 1
 471 184 l 1
EndSplineSet
EndChar

StartChar: micro
Encoding: 181 181 291
Width: 598
Flags: MW
HStem: -10 46<231 291.5> 491 20G<142 193 193 193 494 545 545 545>
VStem: 431 51<51.5 57.5>
LayerCount: 2
Fore
SplineSet
270 36 m 0
 360 36 437 105 450 197 c 2
 494 511 l 1
 545 511 l 1
 482 66 482 62 482 60 c 0
 482 43 492 36 505 36 c 0
 520 36 541 43 557 52 c 1
 551 9 l 1
 531 -3 508 -10 484 -10 c 0
 444 -10 431 21 431 54 c 0
 431 61 432 69 433 76 c 1
 390 22 325 -10 258 -10 c 0
 203 -10 148 9 122 51 c 1
 122 51 123 41 123 29 c 0
 123 20 122 10 121 1 c 2
 98 -161 l 1
 47 -161 l 1
 142 511 l 1
 193 511 l 1
 145 177 145 166 145 156 c 0
 145 76 192 36 270 36 c 0
EndSplineSet
EndChar

StartChar: minus
Encoding: 8722 8722 292
Width: 615
Flags: MW
HStem: 226 57<50 552 41 561>
VStem: 41 520<226 283>
LayerCount: 2
Fore
SplineSet
561 283 m 1
 552 226 l 1
 41 226 l 1
 50 283 l 1
 561 283 l 1
EndSplineSet
EndChar

StartChar: multiply
Encoding: 215 215 293
Width: 615
Flags: MW
HStem: 54 403<107 164 164 427>
VStem: 72 448<95 416>
LayerCount: 2
Fore
SplineSet
485 457 m 1
 520 416 l 1
 336 255 l 1
 474 95 l 1
 427 54 l 1
 290 214 l 1
 107 54 l 1
 72 95 l 1
 254 255 l 1
 117 416 l 1
 164 457 l 1
 301 296 l 1
 485 457 l 1
EndSplineSet
EndChar

StartChar: notequal
Encoding: 8800 8800 294
Width: 615
Flags: MW
HStem: 0 178<55 126 55 55> 120 58<38 153 29 201 271 529 38 223> 328 58<67 325 59 372 441 559 67 394> 328 183<59 543 475 543 475 559 394 543>
VStem: 29 538<120 386>
LayerCount: 2
Fore
SplineSet
567 386 m 1x68
 559 328 l 1
 394 328 l 1
 271 178 l 1
 538 178 l 1
 529 120 l 1
 223 120 l 1x68
 126 0 l 1
 55 0 l 1xa8
 153 120 l 1
 29 120 l 1
 38 178 l 1
 201 178 l 1
 325 328 l 1
 59 328 l 1
 67 386 l 1
 372 386 l 1x68
 475 511 l 1
 543 511 l 1x58
 441 386 l 1
 567 386 l 1x68
EndSplineSet
EndChar

StartChar: partialdiff
Encoding: 8706 8706 295
Width: 568
Flags: MW
HStem: -10 48<188.5 285.5 188.5 288.5> 381 48<227.5 314 213.5 323.5> 648 48<252 325 245 333>
VStem: 32 54<138.5 234 138.5 246> 463 54<507.5 548.5>
LayerCount: 2
Fore
SplineSet
252 696 m 1
 333 696 l 2
 443 696 517 624 517 514 c 0
 517 501 516 488 514 475 c 2
 477 211 l 2
 458 77 352 -10 225 -10 c 0
 110 -10 32 61 32 173 c 0
 32 319 148 429 279 429 c 0
 349 429 411 396 441 341 c 1
 461 481 l 2
 462 490 463 499 463 508 c 0
 463 589 410 648 325 648 c 2
 245 648 l 1
 252 696 l 1
232 38 m 0
 339 38 425 126 425 241 c 0
 425 323 367 381 280 381 c 0
 175 381 86 288 86 180 c 0
 86 97 145 38 232 38 c 0
EndSplineSet
EndChar

StartChar: percent
Encoding: 37 37 296
Width: 700
Flags: MW
HStem: -1 46<494.5 536.5 494.5 544.5> 303 46<528 570.5> 336 46<151.5 193.5 151.5 202.5> 640 46<185 227.5>
VStem: 60 50<423.5 440> 268 50<582 599.5> 403 50<86.5 103> 611 50<245 262.5>
LayerCount: 2
Fore
SplineSet
317 566 m 2xdf
 301 456 l 2
 290 378 240 336 165 336 c 0xbf
 97 336 60 380 60 437 c 0
 60 443 60 449 61 456 c 2
 77 566 l 2
 89 645 138 686 214 686 c 0
 281 686 318 642 318 585 c 0
 318 579 318 572 317 566 c 2xdf
75 0 m 1
 589 686 l 1
 648 686 l 1
 135 0 l 1
 75 0 l 1
251 452 m 2
 267 570 l 2
 268 574 268 579 268 583 c 0
 268 616 248 640 207 640 c 0
 163 640 132 609 127 570 c 2
 111 452 l 2
 110 448 110 444 110 440 c 0
 110 407 132 382 171 382 c 0
 216 382 246 413 251 452 c 2
660 229 m 2
 644 119 l 2
 633 41 582 -1 507 -1 c 0
 439 -1 403 43 403 100 c 0
 403 106 403 112 404 119 c 2
 420 229 l 2
 431 304 480 349 556 349 c 0xdf
 624 349 661 305 661 248 c 0
 661 242 661 235 660 229 c 2
594 115 m 2
 610 233 l 2
 611 237 611 242 611 246 c 0
 611 279 591 303 550 303 c 0
 506 303 475 272 470 233 c 2
 454 115 l 2
 453 111 453 107 453 103 c 0
 453 70 475 45 514 45 c 0
 559 45 589 76 594 115 c 2
EndSplineSet
EndChar

StartChar: perthousand
Encoding: 8240 8240 297
Width: 1034
Flags: MW
HStem: -1 46<497.5 539.5 497.5 547.5 827.5 869.5> 303 46<531 573.5 861 903.5> 337 46<153.5 195.5 153.5 203.5> 641 46<187 229.5>
VStem: 62 50<424.5 441> 270 50<583 600.5> 406 50<86.5 103> 614 50<245 262.5> 736 50<86.5 103> 944 50<245 262.5>
LayerCount: 2
Fore
SplineSet
319 567 m 2xdfc0
 303 457 l 2
 292 379 241 337 166 337 c 0xbd
 98 337 62 381 62 438 c 0
 62 444 62 450 63 457 c 2
 79 567 l 2
 90 642 139 687 215 687 c 0
 283 687 320 643 320 586 c 0
 320 580 320 573 319 567 c 2xdfc0
78 0 m 1
 592 686 l 1
 651 686 l 1
 138 0 l 1
 78 0 l 1
253 453 m 2
 269 571 l 2
 270 575 270 580 270 584 c 0
 270 617 250 641 209 641 c 0
 165 641 134 610 129 571 c 2
 113 453 l 2
 112 449 112 445 112 441 c 0
 112 408 134 383 173 383 c 0
 218 383 248 414 253 453 c 2
663 229 m 2
 647 119 l 2
 636 41 585 -1 510 -1 c 0
 442 -1 406 43 406 100 c 0
 406 106 406 112 407 119 c 2
 423 229 l 2
 434 304 483 349 559 349 c 0xc3c0
 627 349 664 305 664 248 c 0
 664 242 664 235 663 229 c 2
993 229 m 2
 977 119 l 2
 966 41 915 -1 840 -1 c 0
 772 -1 736 43 736 100 c 0
 736 106 736 112 737 119 c 2
 753 229 l 2
 764 304 813 349 889 349 c 0
 957 349 994 305 994 248 c 0
 994 242 994 235 993 229 c 2
597 115 m 2
 613 233 l 2
 614 237 614 242 614 246 c 0
 614 279 594 303 553 303 c 0
 509 303 478 272 473 233 c 2
 457 115 l 2
 456 111 456 107 456 103 c 0
 456 70 478 45 517 45 c 0
 562 45 592 76 597 115 c 2
927 115 m 2
 943 233 l 2
 944 237 944 242 944 246 c 0
 944 279 924 303 883 303 c 0
 839 303 808 272 803 233 c 2
 787 115 l 2
 786 111 786 107 786 103 c 0
 786 70 808 45 847 45 c 0
 892 45 922 76 927 115 c 2
EndSplineSet
EndChar

StartChar: plus
Encoding: 43 43 298
Width: 615
Flags: MW
HStem: 0 21G<237 295 237 237> 226 58<50 268 41 277 335 553 50 326> 491 20G<308 366 366 366>
VStem: 41 521<226 284>
LayerCount: 2
Fore
SplineSet
562 284 m 1
 553 226 l 1
 326 226 l 1
 295 0 l 1
 237 0 l 1
 268 226 l 1
 41 226 l 1
 50 284 l 1
 277 284 l 1
 308 511 l 1
 366 511 l 1
 335 284 l 1
 562 284 l 1
EndSplineSet
EndChar

StartChar: plusminus
Encoding: 177 177 299
Width: 615
Flags: MW
HStem: 0 58<24 516 16 524> 286 58<58 277 50 285 343 562 58 335> 286 225<50 366 335 366 308 562 335 335>
VStem: 16 554<0 344>
LayerCount: 2
Fore
SplineSet
570 344 m 1xd0
 562 286 l 1
 335 286 l 1
 311 120 l 1
 253 120 l 1
 277 286 l 1
 50 286 l 1
 58 344 l 1
 285 344 l 1xd0
 308 511 l 1
 366 511 l 1xb0
 343 344 l 1
 570 344 l 1xd0
24 58 m 1
 524 58 l 1
 516 0 l 1
 16 0 l 1
 24 58 l 1
EndSplineSet
EndChar

StartChar: product
Encoding: 8719 8719 300
Width: 749
Flags: MW
HStem: 647 48<77 184 70 718 240 541 240 240 597 597 597 711>
VStem: 70 648<647 695>
LayerCount: 2
Fore
SplineSet
493 -96 m 1
 437 -96 l 1
 541 647 l 1
 240 647 l 1
 136 -96 l 1
 80 -96 l 1
 184 647 l 1
 70 647 l 1
 77 695 l 1
 718 695 l 1
 711 647 l 1
 597 647 l 1
 493 -96 l 1
EndSplineSet
EndChar

StartChar: radical
Encoding: 8730 8730 301
Width: 565
Flags: MW
HStem: -146 951<164 579 164 579>
VStem: -20 599<321 805>
LayerCount: 2
Fore
SplineSet
164 -146 m 1
 66 307 l 1
 -12 279 l 1
 -20 321 l 1
 117 371 l 1
 196 0 l 2
 199 -27 202 -50 202 -67 c 1
 528 805 l 1
 579 805 l 1
 225 -146 l 1
 164 -146 l 1
EndSplineSet
EndChar

StartChar: summation
Encoding: 8721 8721 302
Width: 605
Flags: MW
HStem: -96 55<62 477> 647 48<176 566 176 176> 670 25<91 573>
VStem: -28 601
LayerCount: 2
Fore
SplineSet
-24 -65 m 1xd0
 311 302 l 1
 91 670 l 1xb0
 94 695 l 1
 573 695 l 1
 566 647 l 1
 176 647 l 1
 176 643 l 1
 376 307 l 1
 61 -38 l 1
 62 -41 l 1
 485 -41 l 1
 477 -96 l 1
 -28 -96 l 1
 -24 -65 l 1xd0
EndSplineSet
EndChar

StartChar: lozenge
Encoding: 9674 9674 303
Width: 489
Flags: MW
HStem: 0 47<200 200 200 237> 639 47<283 283>
VStem: 36 412<343 343>
LayerCount: 2
Fore
SplineSet
36 343 m 1
 246 686 l 1
 334 686 l 1
 448 343 l 1
 237 0 l 1
 149 0 l 1
 36 343 l 1
200 47 m 1
 386 343 l 1
 283 639 l 1
 98 343 l 1
 200 47 l 1
EndSplineSet
EndChar

StartChar: bar
Encoding: 124 124 304
Width: 290
Flags: MW
HStem: -199 919<102 283 102 283>
VStem: 102 181
LayerCount: 2
Fore
SplineSet
231 720 m 1
 283 720 l 1
 154 -199 l 1
 102 -199 l 1
 231 720 l 1
EndSplineSet
EndChar

StartChar: brokenbar
Encoding: 166 166 305
Width: 269
Flags: MW
HStem: 0 21G<49 114 49 49> 0 262<86 114 49 151> 424 262<146 174 109 211> 666 20G<146 211 211 211>
VStem: 49 162
LayerCount: 2
Fore
SplineSet
211 686 m 1x98
 174 424 l 1
 109 424 l 1x68
 146 686 l 1
 211 686 l 1x98
151 262 m 1
 114 0 l 1
 49 0 l 1
 86 262 l 1
 151 262 l 1
EndSplineSet
EndChar

StartChar: at
Encoding: 64 64 306
Width: 887
Flags: MW
HStem: -153 47<299.5 411.5> 23 43<658 730> 267 42<519.5 610> 478 43<470.5 550> 650 47<414.5 623.5>
VStem: 60 50<76 314> 256 51<112 198 112 212.5> 307 50<380 380 380 415> 586 49<85.5 93.5> 626 51<394.5 428.5> 829 50<334.5 485.5>
LayerCount: 2
Fore
SplineSet
670 66 m 0xfea0
 792 66 829 279 829 390 c 0
 829 581 711 650 536 650 c 0
 293 650 110 493 110 167 c 0
 110 -15 202 -106 397 -106 c 0
 443 -106 528 -92 566 -74 c 1
 559 -126 l 1
 514 -142 433 -153 390 -153 c 0
 184 -153 60 -57 60 162 c 0
 60 466 223 697 544 697 c 0
 739 697 879 609 879 398 c 0
 879 175 794 23 666 23 c 0
 604 23 586 49 586 90 c 0
 586 97 587 106 588 115 c 1
 538 49 473 22 394 22 c 0
 325 22 256 45 256 130 c 0xfea0
 256 295 414 309 616 309 c 1
 624 370 l 2
 625 380 626 390 626 399 c 0
 626 458 590 478 510 478 c 0
 431 478 367 451 357 380 c 2
 355 365 l 1
 307 365 l 1
 307 465 398 521 516 521 c 0
 624 521 677 484 677 406 c 0xfd60
 677 377 635 109 635 94 c 0
 635 77 646 66 670 66 c 0xfea0
605 234 m 2
 610 267 l 1
 429 267 307 259 307 137 c 0xfe60
 307 87 342 65 410 65 c 0
 494 65 587 117 605 234 c 2
EndSplineSet
EndChar

StartChar: ampersand
Encoding: 38 38 307
Width: 661
Flags: MW
HStem: 0 46<205.5 405 269 405 269 450> 329 46<259 451 320 445 502 615 320 496> 648 48<300.5 358> 668 20G<427 427>
VStem: 58 52<129.5 220> 116 54<457.5 550.5 457.5 559.5>
LayerCount: 2
Fore
SplineSet
427 688 m 1xd8
 420 638 l 1
 397 645 372 648 344 648 c 0
 257 648 170 601 170 500 c 0xe4
 170 415 238 375 320 375 c 2
 451 375 l 1
 492 538 l 1
 525 538 l 1
 502 375 l 1
 621 375 l 1
 615 329 l 1
 496 329 l 1
 450 0 l 1
 263 0 l 2
 148 0 58 60 58 164 c 0xe8
 58 276 128 330 209 352 c 1
 209 356 l 1
 156 386 116 420 116 494 c 0
 116 625 230 696 350 696 c 0xe4
 378 696 404 693 427 688 c 1xd8
445 329 m 1
 309 329 l 2
 209 329 110 285 110 169 c 0xe8
 110 90 176 46 269 46 c 2
 405 46 l 1
 445 329 l 1
EndSplineSet
EndChar

StartChar: paragraph
Encoding: 182 182 308
Width: 524
Flags: MW
HStem: 637 49<326 398 326 326 450 516 450 450>
VStem: 61 462<388 686>
LayerCount: 2
Fore
SplineSet
160 -174 m 1
 220 249 l 1
 126 263 61 340 61 436 c 0
 61 588 175 686 313 686 c 2
 523 686 l 1
 516 637 l 1
 450 637 l 1
 336 -174 l 1
 284 -174 l 1
 398 637 l 1
 326 637 l 1
 212 -174 l 1
 160 -174 l 1
EndSplineSet
EndChar

StartChar: copyright
Encoding: 169 169 309
Width: 785
Flags: MW
HStem: -10 26<309.5 490 309.5 497.5> 129 36<370 440 370 448> 522 36<370 437.5> 670 26<309.5 490>
VStem: 46 26<253 434 253 441.5> 241 40<294 393 393 401> 527 36<394 401 401 442.5> 728 26<253 434>
LayerCount: 2
Fore
SplineSet
754 344 m 0
 754 147 595 -10 400 -10 c 0
 204 -10 46 147 46 344 c 0
 46 539 204 696 400 696 c 0
 595 696 754 539 754 344 c 0
728 344 m 0
 728 524 580 670 400 670 c 0
 219 670 72 524 72 344 c 0
 72 162 219 16 400 16 c 0
 580 16 728 162 728 344 c 0
527 394 m 1
 527 401 l 2
 527 484 471 522 404 522 c 0
 336 522 281 484 281 401 c 2
 281 287 l 2
 281 202 336 165 404 165 c 0
 476 165 528 207 528 292 c 1
 563 292 l 1
 563 177 492 129 404 129 c 0
 314 129 241 176 241 294 c 2
 241 393 l 2
 241 510 314 558 404 558 c 0
 492 558 563 509 563 394 c 1
 527 394 l 1
EndSplineSet
EndChar

StartChar: registered
Encoding: 174 174 310
Width: 785
Flags: MW
HStem: -10 26<309.5 490 309.5 497.5> 134 17<542.5 572> 328 35<305 430 305 435> 511 36<305 433 433 435 305 305> 670 26<309.5 490>
VStem: 46 26<253 434 253 441.5> 264 41<135 328 363 511> 503 38<207 267.5> 511 37<419 459> 728 26<253 434>
LayerCount: 2
Fore
SplineSet
754 344 m 0xff40
 754 147 595 -10 400 -10 c 0
 204 -10 46 147 46 344 c 0
 46 539 204 696 400 696 c 0
 595 696 754 539 754 344 c 0xff40
728 344 m 0
 728 524 580 670 400 670 c 0
 219 670 72 524 72 344 c 0
 72 162 219 16 400 16 c 0
 580 16 728 162 728 344 c 0
572 151 m 1
 572 137 l 1
 572 137 561 134 553 134 c 0
 532 134 503 145 503 215 c 0
 503 320 449 328 430 328 c 2xff40
 305 328 l 1
 305 135 l 1
 264 135 l 1
 264 547 l 1
 433 547 l 2
 493 547 548 506 548 443 c 0xfec0
 548 395 516 360 485 347 c 1
 485 343 l 1
 504 335 541 311 541 229 c 0
 541 185 541 163 572 151 c 1
305 363 m 1
 435 363 l 2
 477 363 511 397 511 438 c 0
 511 480 477 511 435 511 c 2xfec0
 305 511 l 1
 305 363 l 1
EndSplineSet
EndChar

StartChar: section
Encoding: 167 167 311
Width: 516
Flags: MW
HStem: -185 46<135 229 135 252> 650 46<264 357>
VStem: 10 51<-72.5 -56.5> 42 53<230 290.5> 92 53<499.5 571> 347 52<-60.5 11 -60.5 40> 397 53<219.5 280> 431 51<567.5 582.5>
LayerCount: 2
Fore
SplineSet
450 257 m 0xea
 450 182 396 133 326 100 c 1
 368 72 399 37 399 -15 c 0
 399 -106 325 -185 179 -185 c 0
 54 -185 10 -119 10 -62 c 0
 10 -51 13 -35 14 -33 c 2
 64 -33 l 1
 61 -49 61 -53 61 -58 c 0xed
 61 -87 76 -139 194 -139 c 0
 264 -139 347 -109 347 -25 c 0
 347 105 42 112 42 254 c 0xd5
 42 327 88 372 165 411 c 1
 124 438 92 473 92 526 c 0
 92 616 167 696 313 696 c 0
 438 696 482 630 482 573 c 0
 482 562 479 546 478 544 c 2
 428 544 l 1
 431 560 431 564 431 568 c 0xed
 431 597 416 650 298 650 c 0
 230 650 145 621 145 535 c 0
 145 406 450 398 450 257 c 0xea
294 118 m 1
 344 140 397 181 397 242 c 0
 397 318 285 345 197 392 c 1
 160 376 95 341 95 268 c 0xd2
 95 192 206 165 294 118 c 1
EndSplineSet
EndChar

StartChar: trademark
Encoding: 8482 8482 312
Width: 898
Flags: MW
HStem: 648 38<97 221 92 396 263 263 263 391>
VStem: 92 734<648 686>
LayerCount: 2
Fore
SplineSet
213 289 m 1
 171 289 l 1
 221 648 l 1
 92 648 l 1
 97 686 l 1
 396 686 l 1
 391 648 l 1
 263 648 l 1
 213 289 l 1
730 289 m 1
 775 627 l 1
 712 517 639 398 576 289 c 1
 546 289 l 1
 444 623 l 1
 397 289 l 1
 361 289 l 1
 416 686 l 1
 473 686 l 1
 573 346 l 1
 770 686 l 1
 826 686 l 1
 771 289 l 1
 730 289 l 1
EndSplineSet
EndChar

StartChar: degree
Encoding: 176 176 313
Width: 404
Flags: MW
HStem: 396 43<205.5 265 205.5 279> 651 45<221.5 277>
VStem: 92 43<509.5 570 509.5 579.5> 347 45<522.5 581.5>
LayerCount: 2
Fore
SplineSet
392 555 m 0
 392 474 327 396 231 396 c 0
 151 396 92 458 92 536 c 0
 92 623 160 696 252 696 c 0
 331 696 392 633 392 555 c 0
249 651 m 0
 194 651 135 603 135 537 c 0
 135 482 177 439 234 439 c 0
 296 439 347 491 347 554 c 0
 347 609 305 651 249 651 c 0
EndSplineSet
EndChar

StartChar: estimated
Encoding: 8494 8494 314
Width: 780
Flags: MW
HStem: -10 45<368.5 459.5 368.5 466.5> 316 48<199 608 199 709 199 608> 651 45<361 449.5>
VStem: 101 98<364 367 367 470> 608 101<364 368 316 554>
LayerCount: 2
Fore
SplineSet
405 696 m 0
 587 696 709 573 709 368 c 2
 709 316 l 1
 199 316 l 1
 199 141 l 1
 245 72 322 35 415 35 c 0
 504 35 576 69 622 135 c 1
 660 105 l 1
 605 31 520 -10 413 -10 c 0
 228 -10 101 113 101 319 c 2
 101 367 l 2
 101 573 223 696 405 696 c 0
199 364 m 1
 608 364 l 1
 608 554 l 1
 564 617 493 651 406 651 c 0
 316 651 243 615 199 549 c 1
 199 364 l 1
EndSplineSet
EndChar

StartChar: literSign
Encoding: 8467 8467 315
Width: 470
Flags: MW
HStem: -10 46<199 227.5> 230 45<38 114 32 120> 655 45<282 336.5>
VStem: 98 51<74 104> 391 50<499 587>
LayerCount: 2
Fore
SplineSet
165 231 m 1
 153 147 l 2
 150 122 149 113 149 103 c 0
 149 45 184 36 214 36 c 0
 245 36 284 45 309 52 c 1
 302 7 l 1
 279 -3 243 -10 212 -10 c 0
 144 -10 98 24 98 99 c 0
 98 109 98 120 101 140 c 2
 114 230 l 1
 32 230 l 1
 38 275 l 1
 120 275 l 1
 146 462 l 1
 153 512 l 2
 169 628 216 700 312 700 c 0
 394 700 441 648 441 550 c 0
 441 436 377 242 165 231 c 1
204 510 m 2
 171 276 l 1
 342 287 391 450 391 548 c 0
 391 626 360 655 313 655 c 0
 251 655 217 606 204 510 c 2
EndSplineSet
EndChar

StartChar: asciicircum
Encoding: 94 94 316
Width: 596
Flags: MW
HStem: 0 21G<12 74 12 12 432 494 432 432> 464 47<318 318>
VStem: 12 482<0 0>
LayerCount: 2
Fore
SplineSet
494 0 m 1
 432 0 l 1
 318 464 l 1
 74 0 l 1
 12 0 l 1
 280 511 l 1
 368 511 l 1
 494 0 l 1
EndSplineSet
EndChar

StartChar: dagger
Encoding: 8224 8224 317
Width: 511
Flags: MW
HStem: 454 56 666 20G<263 328 328 328>
VStem: 41 450<446 510>
LayerCount: 2
Fore
SplineSet
207 -175 m 1
 142 -175 l 1
 248 462 l 1
 41 446 l 1
 50 510 l 1
 252 494 l 1
 263 686 l 1
 328 686 l 1
 285 494 l 1
 491 510 l 1
 482 446 l 1
 281 462 l 1
 207 -175 l 1
EndSplineSet
EndChar

StartChar: daggerdbl
Encoding: 8225 8225 318
Width: 531
Flags: MW
HStem: 0 56 454 56 666 20G<277 342 342 342>
VStem: -7 512<0 510>
LayerCount: 2
Fore
SplineSet
434 0 m 1
 232 16 l 1
 221 -176 l 1
 156 -176 l 1
 199 16 l 1
 -7 0 l 1
 2 64 l 1
 203 48 l 1
 217 256 l 1
 262 462 l 1
 55 446 l 1
 64 510 l 1
 266 494 l 1
 277 686 l 1
 342 686 l 1
 299 494 l 1
 505 510 l 1
 496 446 l 1
 295 462 l 1
 282 256 l 1
 236 48 l 1
 443 64 l 1
 434 0 l 1
EndSplineSet
EndChar

StartChar: acute
Encoding: 180 180 319
Width: 333
Flags: MW
HStem: 575 145<56 238 56 238>
VStem: 56 182<575 720>
LayerCount: 2
Fore
SplineSet
173 720 m 1
 238 720 l 1
 237 717 l 1
 106 575 l 1
 56 575 l 1
 173 720 l 1
EndSplineSet
EndChar

StartChar: breve
Encoding: 728 728 320
Width: 520
Flags: MW
HStem: 613 49<231.5 296.5 231.5 310.5>
VStem: 81 386<701.5 737>
LayerCount: 2
Fore
SplineSet
257 613 m 0
 156 613 81 674 81 729 c 0
 81 731 81 734 82 737 c 2
 138 737 l 1
 147 687 199 662 264 662 c 0
 329 662 387 687 411 737 c 1
 467 737 l 1
 459 680 364 613 257 613 c 0
EndSplineSet
EndChar

StartChar: caron
Encoding: 711 711 321
Width: 536
Flags: MW
HStem: 575 145<101 272 101 214>
VStem: 101 326<720 720>
LayerCount: 2
Fore
SplineSet
161 720 m 1
 250 623 l 1
 367 720 l 1
 427 720 l 1
 272 575 l 1
 214 575 l 1
 101 720 l 1
 161 720 l 1
EndSplineSet
EndChar

StartChar: cedilla
Encoding: 184 184 322
Width: 350
Flags: MW
HStem: -197 46<122.5 150 115.5 159> -184 21G<59 59> -51 34<147 164 142 176.5>
VStem: 216 51<-115 -77.5>
LayerCount: 2
Fore
SplineSet
59 -184 m 1x70
 65 -138 l 1
 77 -145 99 -151 132 -151 c 0
 168 -151 216 -139 216 -91 c 0
 216 -64 189 -51 164 -51 c 2
 142 -51 l 1
 147 -17 l 1
 206 -17 267 -22 267 -90 c 0
 267 -177 183 -197 135 -197 c 0xb0
 110 -197 81 -193 59 -184 c 1x70
EndSplineSet
EndChar

StartChar: circumflex
Encoding: 710 710 323
Width: 536
Flags: MW
HStem: 575 145<80 293 235 406 235 346>
VStem: 80 326<575 575>
LayerCount: 2
Fore
SplineSet
293 720 m 1
 406 575 l 1
 346 575 l 1
 257 672 l 1
 140 575 l 1
 80 575 l 1
 235 720 l 1
 293 720 l 1
EndSplineSet
EndChar

StartChar: dieresis
Encoding: 168 168 324
Width: 440
Flags: MW
HStem: 651 69<82 138 73 147 258 314>
VStem: 77.5 65 253.5 65
LayerCount: 2
Fore
SplineSet
147 720 m 1
 138 651 l 1
 73 651 l 1
 82 720 l 1
 147 720 l 1
323 720 m 1
 314 651 l 1
 249 651 l 1
 258 720 l 1
 323 720 l 1
EndSplineSet
EndChar

StartChar: dotaccent
Encoding: 729 729 325
Width: 280
Flags: MW
HStem: 604 132<132 158>
VStem: 78 134<659.5 680.5>
LayerCount: 2
Fore
SplineSet
212 679 m 0
 212 640 180 604 136 604 c 0
 104 604 78 628 78 660 c 0
 78 701 110 736 154 736 c 0
 188 736 212 711 212 679 c 0
EndSplineSet
EndChar

StartChar: grave
Encoding: 96 96 326
Width: 333
Flags: MW
HStem: 575 145<77 217 77 167>
VStem: 76 141
LayerCount: 2
Fore
SplineSet
76 717 m 1
 77 720 l 1
 142 720 l 1
 217 575 l 1
 167 575 l 1
 76 717 l 1
EndSplineSet
EndChar

StartChar: hungarumlaut
Encoding: 733 733 327
Width: 442
Flags: MW
HStem: 575 145<39 220 39 220 164 164 164 214>
VStem: 39 306<575 720>
LayerCount: 2
Fore
SplineSet
156 720 m 1
 220 720 l 1
 220 716 l 1
 89 575 l 1
 39 575 l 1
 156 720 l 1
281 720 m 1
 345 720 l 1
 345 716 l 1
 214 575 l 1
 164 575 l 1
 281 720 l 1
EndSplineSet
EndChar

StartChar: macron
Encoding: 175 175 328
Width: 460
Flags: MW
HStem: 691 45<76 386 68 394>
VStem: 68 326<691 736>
LayerCount: 2
Fore
SplineSet
76 736 m 1
 394 736 l 1
 386 691 l 1
 68 691 l 1
 76 736 l 1
EndSplineSet
EndChar

StartChar: ogonek
Encoding: 731 731 329
Width: 340
Flags: MW
HStem: -143 43<161.5 175.5> 0 21G<139 189 189 189>
VStem: 74 58<-80 -63.5>
LayerCount: 2
Fore
SplineSet
240 -86 m 1
 249 -119 l 1
 221 -135 190 -143 161 -143 c 0
 118 -143 74 -129 74 -83 c 0
 74 -44 107 -19 139 0 c 1
 189 0 l 1
 185 -2 l 2
 161 -17 132 -36 132 -67 c 0
 132 -93 152 -100 171 -100 c 0
 195 -100 218 -93 240 -86 c 1
EndSplineSet
EndChar

StartChar: ring
Encoding: 730 730 330
Width: 340
Flags: MW
HStem: 545 36<148 183.5 148 191> 710 36<163.5 198.5>
VStem: 71 36<620 656 620 665> 239 36<634.5 671>
LayerCount: 2
Fore
SplineSet
275 660 m 0
 275 597 223 545 159 545 c 0
 108 545 71 582 71 632 c 0
 71 698 128 746 188 746 c 0
 238 746 275 709 275 660 c 0
164 581 m 0
 203 581 239 614 239 655 c 0
 239 687 214 710 183 710 c 0
 144 710 107 676 107 636 c 0
 107 604 132 581 164 581 c 0
EndSplineSet
EndChar

StartChar: tilde
Encoding: 732 732 331
Width: 364
Flags: MW
HStem: 634 50<240 283.5 240 292.5> 666 50<73.5 117>
VStem: -8 373<634 716>
LayerCount: 2
Fore
SplineSet
328 716 m 1xa0
 365 716 l 1
 361 684 332 634 253 634 c 0xa0
 189 634 144 666 90 666 c 0
 57 666 39 657 29 634 c 1
 -8 634 l 1
 -4 666 26 716 104 716 c 0x60
 168 716 213 684 267 684 c 0
 300 684 318 693 328 716 c 1xa0
EndSplineSet
EndChar

StartChar: caron.alt
Encoding: 65537 -1 332
Width: 218
Flags: MW
HStem: 496 20G<96 130 96 96.5> 516 170<118 130 96 183> 617 69<118 133 109 183>
VStem: 113.5 65.5
LayerCount: 2
Fore
SplineSet
130 516 m 1x50
 96 516 l 2
 97 516 133 617 133 617 c 1
 109 617 l 1
 118 686 l 1
 183 686 l 1
 175 628 l 1xb0
 130 516 l 1x50
EndSplineSet
EndChar

StartChar: commaaccent
Encoding: 806 806 333
Width: 0
GlyphClass: 4
Flags: MW
HStem: -149 69<25 40 16 90>
VStem: 20.5 65.5
AnchorPoint: "Bottom" 71 0 mark 0
LayerCount: 2
Fore
SplineSet
36 -250 m 1
 2 -250 l 2
 3 -250 40 -149 40 -149 c 1
 16 -149 l 1
 25 -80 l 1
 90 -80 l 1
 82 -138 l 1
 36 -250 l 1
EndSplineSet
EndChar

StartChar: firsttonechinese
Encoding: 713 713 334
Width: 460
Flags: MW
HStem: 691 45<76 386 68 394>
VStem: 68 326<691 736>
LayerCount: 2
Fore
SplineSet
76 736 m 1
 394 736 l 1
 386 691 l 1
 68 691 l 1
 76 736 l 1
EndSplineSet
EndChar
